<?xml version="1.0" encoding="UTF-8"?>
<svg id="Calque_1" data-name="Calque 1" xmlns="http://www.w3.org/2000/svg" viewBox="0 0 334.54 333.46">
  <defs>
    <style>
      .cls-1 {
        letter-spacing: -.02em;
      }

      .cls-2 {
        letter-spacing: -.03em;
      }

      .cls-3 {
        font-size: 10.56px;
      }

      .cls-3, .cls-4, .cls-5 {
        font-family: Lato-Regular, Lato;
      }

      .cls-4 {
        font-size: 10px;
      }

      .cls-5 {
        font-size: 13.95px;
      }

      .cls-6, .cls-7, .cls-8 {
        stroke: #000;
        stroke-miterlimit: 10;
      }

      .cls-6, .cls-9 {
        fill: #ffc100;
      }

      .cls-7 {
        fill: #b44c00;
      }

      .cls-9 {
        font-family: AnnaiMN-Regular, 'Annai MN';
        font-size: 6.01px;
      }

      .cls-8 {
        fill: #ebd344;
        stroke-width: 1.5px;
      }

      .cls-10 {
        letter-spacing: -.01em;
      }

      .cls-11 {
        letter-spacing: -.01em;
      }
    </style>
  </defs>
  <g>
    <circle class="cls-7" cx="262.63" cy="17.15" r="16.65"/>
    <circle class="cls-7" cx="262.63" cy="52.22" r="13.52"/>
    <circle class="cls-7" cx="262.63" cy="80.66" r="11.08"/>
    <circle class="cls-7" cx="262.63" cy="106.85" r="7.39"/>
    <text class="cls-3" transform="translate(290.91 109.47)"><tspan x="0" y="0">0 - 100</tspan></text>
    <text class="cls-3" transform="translate(288.95 83.28)"><tspan x="0" y="0">100 - 200</tspan></text>
    <text class="cls-3" transform="translate(290.04 54.84)"><tspan x="0" y="0">200 - 300</tspan></text>
    <text class="cls-3" transform="translate(287.72 19.78)"><tspan x="0" y="0">300 - 400</tspan></text>
  </g>
  <g>
    <g>
      <g>
        <path class="cls-6" d="M117.6,8.12l.65.41s.09.07.11.13l.86,2.01c.02.05.03.11.02.17l-.39,2.07c-.01.06,0,.12.02.17l.56,1.14c.05.11.14.16.26.16h1.05c.05,0,.1.03.13.08.3.57.61,1.13.92,1.69.19.35.95.58,1.3.73.18.07.38.05.54-.06l1.95-1.36s.1-.05.15-.05l1.83-.13c.06,0,.11.02.15.06l1.16,1.28c.07.07.1.17.08.27-.05.36-.2.84-.07,1.2.38,1.07.77,2.13,1.15,3.16.04.11.13.2.24.24.4.14.83.29,1.29.44.1.03.23,0,.38-.13.19-.15.38-.29.56-.43.04-.03.09-.02.12.02,0,0,0,.01.01.02l.29.61c.03.05.07.09.13.1l1.91.46c.06.01.1.05.11.11l.77,3.29c.05.19.24.31.43.27.06-.01.12-.04.16-.09l.62-.57c.06-.06.15-.08.24-.06.55.12,1.12.25,1.72.4.15.04.32.04.51,0,.66-.14,1.27-.25,1.83-.33.06-.01.12.01.16.06l1.45,1.73c.05.05.11.08.18.07l.5-.06c.07,0,.1.02.07.09l-.59,1.85c-.03.09-.02.18.03.26l1.06,1.84c.03.05.03.11,0,.16l-1.18,2.25c-.09.16-.02.36.14.45.02,0,.04.02.05.02l1.34.42c.11.46.2.93.27,1.42.04.29.02.57-.07.83-.14.41-.47.87-.3,1.32.09.23.17.45.26.68.07.19.05.36-.07.53-.48.66-.95,1.32-1.4,1.98-.26.38-.75.32-1.15.37-.14.02-.25.14-.25.28-.02,1.32,0,2.7.08,4.14.03.65.02,1.27-.06,1.86-.02.19-.2.32-.38.3-.02,0-.05,0-.07-.02l-1.51-.53c-.07-.02-.13-.02-.19,0-.9.42-1.86.88-2.86,1.38-.58.29-.78.86-.98,1.43-.05.14-.04.28.01.42.36.89.71,1.77,1.06,2.64.02.05,0,.12-.06.14-.53.22-1.08.44-1.63.67-.64.26,0,.95.22,1.28.04.07.05.15.03.22-.06.21-.14.44-.23.68-.2.54.28.63.6.82.04.02.05.07.03.11,0,0,0,0,0,0l-2.3,3.17c-.05.07-.14.09-.22.04-.84-.54-1.69-1.08-2.53-1.63-.77-.5-1.3-1.1-1.91-1.77-.08-.09-.11-.21-.09-.32l.14-.76c.02-.09,0-.19-.05-.27-.27-.45-.6-1.09-1.18-1.21-.48-.1-.75-.24-1.28-.06-.88.31-1.74.62-2.56.94-.13.05-.26.03-.38-.06-.17-.13-.37-.27-.58-.41-.55-.37-.82.79-1.48.67-.56-.1-1.12-.15-1.67-.25-.36-.07-.67-.18-.93-.33-1.32-.77-2.6-1.51-3.82-2.2-.1-.06-.22-.05-.32.01l-.67.46c-.08.05-.18.07-.27.05l-3.03-.76c-.19-.05-.39-.05-.58,0-.62.16-1.22.34-1.81.54-.27.1-.54.12-.81.07-.5-.09-.99-.19-1.48-.3-.08-.02-.15-.07-.19-.14l-.28-.54c-.04-.09-.01-.19.07-.24l1.17-.73c.15-.1.22-.29.15-.46l-1.27-3.03c-.05-.13-.07-.27-.04-.4.17-.8.31-1.6.43-2.41.05-.36.05-.71-.02-1.07-.14-.85-.28-1.7-.41-2.57-.02-.14,0-.29.09-.41l.99-1.51c.07-.11.08-.22.04-.34l-1.26-3.17c-.07-.19-.19-.35-.35-.48-1.02-.86-2.05-1.76-3.09-2.68-.42-.37-.85-.67-1.3-.98-.1-.07-.13-.21-.05-.31h0s1.92-2.68,1.92-2.68c.07-.1.21-.13.32-.07l.66.37c.16.09.37.03.46-.13,0,0,0,0,0,0,.09-.16.07-.34-.06-.55-.49-.78-.81-1.4-.97-1.87-.07-.21-.07-.46,0-.75.03-.11.11-.21.23-.24.42-.13.78-.27,1.08-.43.36-.19.17-.55-.09-.71-.18-.11-.36-.23-.54-.38-.05-.04-.08-.09-.09-.15-.21-.91-.14-1.8.04-2.79,0-.04.05-.06.08-.06,0,0,.02,0,.02,0,.26.17.79.62,1.02.14.06-.13.04-.28-.05-.39l-.98-1.14c-.07-.08-.11-.19-.11-.31l.03-6.38c0-.12.05-.23.14-.31l1.88-1.62s.07-.05.12-.07c1.09-.37,2.35-.76,3.79-1.18.39-.11.72-.29,1.14-.4,2.05-.53,4.13-1.06,6.26-1.6.19-.05.34-.05.48,0Z"/>
        <path class="cls-6" d="M194.32,91.75l-.83-1.96c-.06-.14-.21-.23-.36-.21l-.53.07c-.11.01-.2-.06-.22-.16,0,0,0-.01,0-.02l-.09-2.86c0-.24-.13-.46-.34-.59-.95-.61-1.89-1.22-2.81-1.83-.17-.11-.33-.13-.5-.06-.14.06-.29.04-.41-.06l-2.75-2.18c-.15-.11-.34-.14-.51-.06l-1.55.69c-.13.06-.27.04-.38-.05l-1.51-1.16c-.11-.08-.25-.11-.38-.08l-1.85.49c-.13.03-.26.02-.38-.05l-2.43-1.46c-.16-.1-.36-.09-.52.02l-3.1,2.23c-.12.08-.17.2-.15.34.03.24.06.44-.09.66-.15.22-.31.44-.48.65-.05.07-.14.1-.23.09l-.71-.1c-.14-.02-.27.03-.36.13-.32.34-.88.85-.9,1.35-.04.9-.07,1.8-.09,2.71,0,.08-.04.13-.1.17-.66.36-.9.1-1.37-.34-.12-.12-.31-.14-.46-.05-.82.51-1.67,1.02-2.54,1.53-.3.17-.38.88-.85,1.07-.29.12-.59.23-.9.35-.05.02-.1,0-.12-.05,0,0,0-.02,0-.03v-.53c-.01-.06-.04-.11-.09-.14-.64-.4-1.25-.66-1.84-.77-.92-.17-1.8-.43-2.72-.59-.15-.03-.28-.12-.35-.26l-.57-1.15c-.07-.13-.03-.29.09-.38.26-.19.49-.39.7-.59.24-.23.05-.53-.02-.78-.16-.61-.46-1.16-.89-1.63-.16-.17-.3-.26-.44-.29-.18-.03-.37-.05-.55-.05-.1,0-.18-.08-.18-.18,0,0,0-.02,0-.03l.09-.56c.02-.15-.06-.3-.2-.36l-.66-.25c-.14-.05-.24-.18-.26-.33l-.1-.69c-.02-.16-.15-.29-.32-.32l-2.8-.42c-.14-.02-.28.02-.39.11l-1.6,1.35c-.09.07-.19.12-.31.14-.61.09-1.22.19-1.85.3-.24.04-.43.11-.57.2-.31.2-.52.72-.96.4-.4-.29-.8-.38-1.3-.29-1.12.21-2.27.36-3.45.46-.37.03-.67.19-.87-.25-.55-1.23-1.09-2.38-1.61-3.46-.27-.56-.73-1-1.17-1.44-.36-.36-.56-1.03-1.15-.32-.06.07-.15.07-.22.02-.03-.02-.04-.05-.05-.08-.14-.61-.3-1.21-.48-1.81-.13-.44-.29-.79-.48-1.03-.43-.56-.92-1.17-1.45-1.84-.25-.31-1-.51-1.35-.64-.08-.03-.12-.08-.12-.17l-.09-2.5c0-.09.05-.18.14-.21.51-.19.76-.06,1.09-.6.35-.59.69-1.18,1.02-1.76.1-.17.04-.39-.13-.49l-.74-.45c-.11-.07-.19-.16-.24-.28l-1.06-2.57c-.05-.12-.02-.25.07-.34.16-.16.33-.31.5-.46.38-.33.27-.79.54-1.17.5-.7,1.03-1.38,1.59-2.06.37-.45.67-.93,1.01-1.39.38-.52.45-.89-.33-1.11-.18-.05-.25-.17-.2-.35.14-.53.29-.84-.15-1.29-.06-.06-.06-.15,0-.21.01-.01.03-.02.05-.03l1.5-.59c.27-.11.35-.29.24-.56-.33-.85-.65-1.66-.96-2.46-.12-.31-.16-.57-.1-.78.09-.35.3-.6.64-.76.75-.34,1.51-.73,2.26-1.18.12-.07.26-.08.39-.04l1.85.64c.15.05.32-.02.39-.17.27-.58.41-1.07.41-1.73,0-1.57-.04-3.11-.09-4.63,0-.13.1-.24.23-.25,0,0,.01,0,.02,0,.6.01.71-.07,1.04-.53.54-.76,1.07-1.54,1.61-2.33.33-.48-.07-1.06-.28-1.52-.03-.06-.03-.13-.01-.19.14-.43.5-1.08.41-1.52-.13-.63-.16-1.23-.11-1.79.31-.05.56-.11.85-.01.6.2,1.18.38,1.75.56.09.03.18.02.27-.02l3.4-1.52c.11-.05.2-.15.23-.27l.58-2.25c.02-.08.06-.15.12-.21l1.2-1.26c.06-.06.13-.07.2-.04l.24.1c.12.05.15.14.09.25-.22.41-.44.83-.66,1.26-.28.54-.2,1.16-.19,1.74,0,.29.07.56.2.83.26.54.54,1.09.83,1.66.06.11.08.24.06.37-.09.67-.19,1.38-.29,2.13-.01.09-.01.18,0,.27.03.16.17.27.33.27l2.09-.06c.06,0,.12.02.16.06l2.43,2.14c.09.08.19.13.31.16l1.91.47c.06.01.09.05.09.12v.9c.01.17.15.31.33.31,0,0,.01,0,.02,0l.9-.06c.09,0,.18.04.22.13l1.17,2.45c.08.16.24.25.42.23l2.22-.28c.12-.01.21-.09.26-.19l.36-.81c.02-.05.08-.09.13-.09.58,0,1.14,0,1.7,0,.26,0,.47-.05.69.14.49.42,1.01.91,1.59,1.16.44.19.87.38,1.28.59.51.25,1.63.32,2.09-.06.42-.35.87-.7,1.35-1.06.05-.03.1-.04.15-.03,1.36.31,2.67.62,3.94.92.19.04.54.28,1.04.7.04.04.07.08.09.14.16.58.32,1.16.5,1.73.09.28.23.53.42.75.87,1,1.77,2.03,2.69,3.08.16.18.35.31.56.37.31.1.63.18.95.24.19.04.38-.09.42-.28,0-.01,0-.02,0-.04l.08-.88c0-.07.04-.12.1-.15l.58-.32c.05-.03.11-.03.17-.01.38.14.81.3,1.01.68.2.39.42.77.65,1.15.12.19.28.24.48.15l.82-.39c.06-.03.13-.04.2-.03l2.46.44c.13.02.27,0,.38-.08l2.12-1.43s.04-.01.06,0l2.98,2.67c.1.09.23.14.36.15,1.67.07,3.4.13,5.19.18.36.01.7.07,1.01.19.8.3,1.58.58,2.34.84.08.03.1.08.07.15-.4,1.09-.79,2.14-1.16,3.16-.12.34-.32.69-.6,1.06-1.26,1.66-2.46,3.23-3.62,4.74-.08.11-.13.24-.15.37l-.55,5.77c-.02.16-.06.31-.12.46l-2.19,5.11c-.07.17-.09.34-.06.52.22,1.13.44,2.27.66,3.42.05.28.05.57,0,.88-.31,1.79-.62,3.55-.93,5.29-.04.21-.02.43.06.66.3.84.61,1.68.93,2.51.02.06,0,.12-.04.16l-.64.54s-.07.09-.08.15l-.07.92c0,.06-.04.09-.09.09l-.77.06c-.13.01-.24.11-.27.24l-.17.9c-.01.05-.04.1-.09.13-.36.2-.68.3-.96.31-.65.01-1.34.02-2.07,0-.09,0-.12-.05-.1-.13.09-.36.41-1-.19-1.1-.19-.03-.43-.07-.73-.11Z"/>
        <path class="cls-6" d="M77.88,50.03c.85-.21,1.49-1.05,2.14-1.59.2-.16.43-.28.7-.34.97-.22,1.93-.4,2.86-.78.21-.09.29-.23.26-.43-.02-.13-.12-.24-.26-.28-1.01-.27-1.98-.48-2.92-.63-.5-.08-.8-.28-.96-.74-.02-.05-.02-.11,0-.16.35-.85.74-1.69,1.16-2.5.32-.61.61-1.24.87-1.88.05-.12.14-.23.26-.29.38-.19.76-.4,1.15-.61.37-.2.76-.4,1.16-.6.91-.44,1.8-.91,2.68-1.39.32-.18.73-.32,1.02-.39,2.66-.64,5.3-1.27,7.92-1.89.16-.04.32-.11.45-.22.59-.45,1.22-.91,1.89-1.36.2-.14.4-.43.64-.48.04,0,.07-.02.09-.04.28-.23.55-.46.82-.68.29-.25.54-.24.78.04.31.35.67.69,1.07,1.02,1.03.84,2.02,1.65,2.96,2.45.16.13.28.3.35.49l1.03,2.59c.04.1.03.21-.03.3l-.93,1.41c-.09.14-.13.31-.1.48l.47,2.9c.04.25.04.5,0,.74-.16.88-.32,1.79-.48,2.73-.03.16.04.39.19.7.4.8.72,1.65,1.09,2.45.03.06,0,.14-.06.18-.42.26-1.24.65-1.43,1.13-.44,1.07-.88,2.14-1.32,3.2-.04.09-.12.14-.21.14h-1.13c-.06,0-.12.01-.16.05-.38.31-.72.65-1.02,1.02-.1.12-.13.28-.08.42l.58,1.92c.03.11.01.21-.06.29-.64.72-1.29,1.45-1.94,2.21-.32.37-.27.66-.23,1.09,0,.09-.05.17-.14.2l-1.47.36c-.16.04-.32.02-.46-.06-.28-.16-.86-.59-1.2-.39-.57.34-1.1.66-1.61.97-.2.12-.41.21-.64.25-.59.12-1.2.23-1.81.33-.2.03-.38.12-.52.26-.24.24-.49.5-.73.77-.31.34-.2,1.13-.15,1.57.02.19.11.36.25.49.5.47.98.91,1.46,1.34.11.09.16.23.15.38-.1,1.01-.06,1.98.13,2.9.01.06,0,.11-.06.14l-2.65,1.77c-.21.14-.3.34-.26.6l.32,2.13c0,.05-.03.1-.08.11,0,0-.02,0-.03,0-.23-.03-.43-.09-.59-.27-.33-.35-.66-.71-1-1.08-.28-.3-.9.02-1.2.15-.11.05-.23.04-.33-.03l-2.23-1.53c-.14-.09-.23-.24-.26-.4l-.53-2.86c-.03-.15-.11-.26-.24-.33l-.93-.51c-.18-.1-.39-.1-.57,0-1.27.67-2.53,1.35-3.76,2.03-.29.16-.6.22-.95.2-.12,0-.2-.11-.2-.22l.02-.69c0-.1-.06-.2-.15-.24l-1-.47c-.12-.06-.21-.16-.24-.28l-.6-2.03c-.05-.16-.19-.28-.36-.29l-1.06-.1c-.18-.02-.34.09-.39.26l-.18.65c-.02.09-.11.15-.2.15-.92.01-1.85.02-2.78.02-.31,0-.53.04-.82.18-.69.34-1.38.67-2.07.98-.08.04-.17.03-.24-.02-.23-.16-.59-.47-.88-.51-.06,0-.12,0-.17.04l-.54.34c-.1.06-.23.04-.3-.04l-.9-1.01c-.1-.11-.23-.18-.38-.19-.88-.08-1.74-.15-2.58-.21-.94-.07-1.79-.54-2.64-.92-.19-.08-.4-.07-.57.05l-2.45,1.6s-.1.05-.16.05c-.7-.02-.79-.4-1.1-1.05-.38-.77-.75-1.5-1.11-2.2-.02-.04,0-.08.03-.1,0,0,.02,0,.03,0l2.17-.24c.14-.01.25-.11.29-.24l.4-1.23c.05-.17-.04-.35-.2-.4-.01,0-.03,0-.04,0-.21-.04-.41.03-.6.21-.35.33-.7.36-1.04.09-.15-.12-.3-.36-.46-.72-.36-.84-.74-1.67-1.13-2.49-.1-.22-.11-.43-.03-.65.31-.77.72-1.55.75-2.4.02-.53.07-1.08.13-1.63.03-.23-.02-.43-.15-.61-.18-.25-.35-.5-.52-.75-.03-.05-.05-.12-.04-.18l.47-3.75c.01-.1-.02-.19-.09-.26-.67-.71-1.34-1.44-2.01-2.19-.36-.4-.74-.75-1.11-1.15-.13-.14-.21-.31-.26-.51-.26-1.14-.52-2.24-.79-3.29-.02-.09,0-.18.06-.25l.57-.63c.05-.05.07-.13.07-.2l-.22-1.87c-.02-.15-.11-.28-.25-.35-.28-.13-.57-.3-.86-.49-.1-.07-.15-.13-.17-.21-.02-.08,0-.16.05-.22.04-.04.08-.06.14-.04.37.12.65.23.83.31.9.4,1.8.78,2.71,1.13.27.1.52.14.75.12.64-.07,1.31-.09,2-.08.5,0,.84-.34,1.22-.62.14-.1.31-.13.48-.09.55.13,1.11.22,1.68.25.06,0,.12.03.16.08.26.3.34.62.24.94-.27.87-.54,1.71-.82,2.55-.07.2-.04.41.06.59l2.36,3.94c.15.25.36.32.63.21.56-.24,1.11-.47,1.65-.71.2-.08.41-.05.6.03.76.3,1.51.56,2.25.8.63.2,1.35.34,2.17.42,1.03.1,2.06.23,3.11.39.52.08,1.01.21,1.46.39.83.33,1.62.66,2.37.99.19.08.39.09.58.03,1.06-.32,2.11-.62,3.17-.88Z"/>
        <path class="cls-6" d="M111.3,53.95c.9.18,1.78.39,2.66.62.12.03.24,0,.34-.07l.58-.42c.07-.05.15-.05.23-.01,1.19.67,2.31,1.44,3.54,2.08,1,.52,2.1.49,3.16.68.42.08.63-.33.83-.59.09-.11.24-.14.37-.07l.55.33c.09.05.2.07.3.03.85-.29,1.73-.61,2.63-.95.25-.09.5-.13.75-.1.32.04.55.18.7.42.14.23.21.45.21.67,0,.26-.03.49-.08.72-.04.16,0,.34.12.46.35.37.7.75,1.06,1.15.28.31.6.57.95.79,1,.63,1.95,1.22,2.83,1.77.18.11.23.34.12.52-.02.03-.04.06-.07.08l-.81.71c-.16.14-.22.37-.13.56.4.99.82,1.99,1.26,2.98.16.37.41.55.76.68.1.04.15.15.12.25,0,.01-.01.02-.02.04-.24.39-.48.79-.73,1.19-.18.3-.81.36-1.13.44-.18.04-.31.21-.3.4l.19,3s-.02.05-.05.06l-5.7,1.16c-.17.03-.29.18-.3.35-.02.57-.05,1.18-.08,1.83-.01.23-.08.44-.2.62-.38.55-.76,1.06-1.14,1.5-.05.06-.12.1-.2.12-1.02.25-2.01.49-2.96.73-.63.16-1.16.23-1.6.21-.53-.03-1.08-.06-1.66-.11-.07,0-.1-.04-.08-.11l.25-1.13c.03-.13,0-.27-.09-.38-.37-.43-.75-.83-1.15-1.2-.48-.44-.62-1.01-.7-1.6-.02-.11-.1-.2-.22-.22-.41-.06-.83-.13-1.27-.2-.56-.1-.75.14-1.18.4-.07.04-.16.02-.21-.05-.09-.15-.17-.3-.25-.46-.13-.29-.48-.42-.69-.11-.17.26-.34.51-.5.77-.07.11-.19.19-.32.2l-1.85.2c-.13.01-.25-.07-.28-.19l-1-3.65c-.05-.19-.18-.27-.37-.25-.27.04-.53.08-.79.13-.5.1-.94-.55-1.02-.97-.11-.52-.23-1.05-.37-1.6-.04-.16-.12-.3-.24-.41-.63-.58-1.28-1.16-1.96-1.76-.17-.15-.25-.33-.26-.56-.04-1.22-.09-2.42-.15-3.59,0-.17-.05-.33-.14-.48-.33-.59-.67-1.19-1.02-1.81-.23-.41-.41-.82-.54-1.24-.14-.45-.27-.89-.38-1.31-.02-.06,0-.11.03-.15.18-.24.38-.45.6-.63.05-.04.12-.06.18-.06h1.27c.1,0,.2-.06.24-.16l1.17-2.87c.05-.11.09-.11.14,0,.16.36.28.54.71.63.59.12,1.17.24,1.73.36.21.04.43.04.64-.02.62-.17,1.28-.35,1.98-.54.32-.09.76.09,1.01.14Z"/>
        <path class="cls-6" d="M36.27,66.35c.61-.53,1.24-1.04,1.89-1.59.38-.33.81-.35,1.28-.28.07.01.13.06.16.13l.2.58c.07.2.28.3.48.23.01,0,.02,0,.03-.01l.65-.29c.1-.04.21,0,.25.1,0,.02.01.03.01.05.06.39.11.94.66.88.55-.06,1.06-.1,1.54-.12.14,0,.24-.12.25-.25l.02-.37c0-.06.03-.09.08-.11.14-.05.27-.05.41,0,.05.02.09.06.11.11.14.39.28.77.41,1.13.18.49.77.91,1.17,1.19.21.15.56.06.58-.25,0-.13-.02-.25-.07-.36-.26-.53-.52-1.08-.79-1.63-.06-.12-.03-.26.07-.35.35-.31.68-.62,1-.93.18-.17.42-.27.72-.29.09,0,.14.04.13.13l-.09,1.57c-.01.2.14.37.34.38,0,0,.01,0,.02,0h4.22c.08,0,.14.04.18.11l1.67,3.38c.05.1.14.19.24.24.34.17,1.14.5,1.51.26.64-.43,1.43-.97,2.38-1.62.08-.06.19-.07.28-.03l1.49.64c.07.03.11.08.11.16.02,1.29.01,2.6-.03,3.93-.01.44-.21.71-.46,1.05-.1.13-.14.29-.13.46.2,2.03.43,4.15.69,6.34.01.11-.03.18-.13.22l-1.77.71c-.1.04-.18.12-.22.22l-1.54,3.64c-.03.06-.1.09-.16.06,0,0,0,0,0,0-.67-.33-1.31-.66-1.93-.99-.39-.2-.77.1-1.12.25-.76.33-1.54.66-2.35,1-.32.13-.62.25-.79.56-.12.22-.24.43-.36.65-.03.05-.08.08-.13.09-.3.04-.54.06-.73.06-1.43.03-2.83.08-4.21.14-.07,0-.15.03-.21.06l-1.94,1.21c-.16.1-.27.28-.28.47l-.08,1.86c0,.09-.06.17-.15.19l-5.3,1.57c-.07.02-.12,0-.16-.06l-.03-.05s-.01-.1.03-.12c.01,0,.03-.01.04-.01l.46-.04c.19-.02.32-.18.31-.37,0-.11-.07-.2-.16-.26-.49-.3-1.05-.68-1.67-.62-1.27.12-2.59.22-3.94.31-.43.03-.71-.08-.97-.4-.02-.03-.02-.07.01-.09.01,0,.02-.01.04-.01.48,0,1,.3,1.36-.18.21-.29.42-.56.62-.82.11-.14.1-.34-.01-.48l-.74-.85c-.1-.11-.23-.19-.38-.21l-1.39-.24c-.11-.02-.22.03-.28.13l-.27.44s-.09.06-.13.03c-.01,0-.03-.02-.03-.03-.23-.39-.47-.79-.72-1.2-.14-.24-.35-.4-.61-.22-.14.09-.2.26-.16.43l.27,1.05c.01.05-.02.11-.07.12-.01,0-.02,0-.03,0-.63-.05-1.59.1-2.09.59-.19.19-.26.16-.2-.11.05-.21-.01-.41-.18-.61-.37-.42-.77-.86-.71-1.46,0-.08.04-.13.11-.17l.7-.38c.08-.04.12-.14.12-.28,0-.08-.04-.16-.11-.24-.09-.11-.24-.15-.38-.09l-.87.35c-.05.02-.11.02-.16,0-.63-.24-1.19-.28-1.45-1.07-.02-.05,0-.11.04-.15.15-.14.31-.3.48-.46.37-.36.12-.72-.33-.76-.21-.02-.41-.05-.62-.1-.05-.01-.1-.06-.1-.12l-.13-.81c-.04-.25-.19-.35-.44-.32h-.08c-.12.03-.21.13-.22.25,0,.55.04,1.15.15,1.81.05.34-.13.54-.56.62-.04,0-.08,0-.12,0-.42-.09-.65-.35-.69-.78-.08-.8-.16-1.58-.22-2.34-.02-.28-.17-.4-.45-.36-.17.02-.29.16-.3.33l-.05.8c0,.07-.04.12-.09.15-.52.3-1.01.43-1.49.4-.12,0-.2-.11-.19-.22,0,0,0-.02,0-.03.05-.2.08-.4.1-.6.06-.6-.59-.43-.89-.28-.06.03-.13,0-.16-.05,0-.02-.01-.03-.01-.05,0-.33-.09-.88-.58-.78-.16.03-.27.18-.27.34l.02.67c0,.07-.03.13-.09.17-.14.09-.3.12-.46.11-.09,0-.15-.04-.21-.11l-1.51-1.96c-.13-.16-.35-.23-.54-.16l-1.4.51c-.06.02-.13.02-.2,0-.23-.08-.47-.22-.7-.41-.07-.05-.09-.12-.08-.2l.05-.48c0-.08.05-.13.13-.14l.37-.05c.07,0,.13-.05.16-.11.1-.17.09-.34,0-.52-.18-.32-.34-.65-.5-1-.08-.19-.27-.25-.47-.21-.13.03-.24.14-.26.27-.04.27-.08.54-.1.8-.01.14-.09.23-.23.27-.16.05-.26.21-.22.38l.26.95c.02.09,0,.18-.06.24l-1.02,1.18c-.07.08-.18.13-.29.12l-1.93-.13c-.08,0-.15-.08-.14-.16,0,0,0-.01,0-.02l.31-1.43c.05-.22,0-.44-.1-.63l-1.34-2.25c-.07-.13-.19-.22-.33-.27l-2.99-1.1c-.1-.04-.16-.16-.12-.26,0-.02.02-.04.04-.06.09-.1.22-.16.38-.18,1.34-.12,2.66-.26,3.97-.41.49-.06.76.13,1.15.37.26.16.48.11.66-.17.23-.34.72-.9.61-1.35-.11-.42-.24-1.2-.64-1.44-.63-.37-1.25-.73-1.85-1.06-.34-.19-.86-.25-1.57-.19-.05,0-.1.03-.14.07l-.31.36s-.08.03-.11,0c0,0-.01-.01-.02-.02-.12-.25-.24-.5-.36-.76-.15-.33-.11-.54.02-.85.02-.04.06-.06.1-.04.01,0,.03.02.04.03.17.27.36.39.69.47.59.14,1.18.27,1.78.37.5.09.97-.11,1.43-.27.12-.04.25.01.31.12.11.19.25.65.49.72.84.23,1.61.43,2.32.59.32.08.51-.04.57-.34.03-.16-.06-.33-.21-.39l-1.21-.48c-.1-.04-.11-.09-.03-.17.28-.25.16-.57-.15-.68-.22-.08-.44-.17-.65-.27-.1-.05-.15-.16-.12-.27.09-.29.11-.57.08-.83-.02-.17-.17-.29-.34-.27-.01,0-.02,0-.04,0l-1.64.39c-.15.04-.21-.02-.19-.18l.02-.11c.03-.16.12-.27.27-.34.52-.23.87-.4,1.06-.51.2-.12.27-.27.2-.45-.1-.28-.36-.27-.59-.2-1.54.46-3.01.89-4.39,1.3-.3.09-.82-.23-1.08-.36-.06-.03-.12-.04-.18-.03-.19.03-.38.1-.56.21-.64.37-.86-.42-.77-.86.17-.83.31-1.67.41-2.53.05-.36.23-.69.54-.99.04-.04.1-.06.16-.05l3.05.31c.12.01.23-.05.29-.15.1-.18.07-.32-.09-.41-.06-.03-.12-.06-.18-.09-.3-.13-.3-.26,0-.39.25-.11.52-.2.78-.35.6-.34,1.2-.68,1.79-1.01.1-.06.23-.04.3.05.1.11.18.26.23.42.08.24.32.38.57.33.22-.04.42-.09.61-.16,1.34-.44,2.82-.91,4.42-1.4.06-.02.13.02.15.08,0,.01,0,.02,0,.03l.05,1.94c0,.18.15.33.34.34.35,0,.53-.58.63-.85.02-.05.08-.08.13-.06.02,0,.03.02.04.03.2.22.46.72.79.68.14-.02.26-.13.29-.26.07-.3.13-.61.19-.95.06-.38.75-.36,1.01-.21.42.26.89.54,1.4.86.17.1.37.15.56.12l1.16-.18c.14-.02.25-.14.26-.29l.09-2.02c0-.19.1-.37.25-.5l.94-.78c.11-.09.27-.08.36.03.03.03.05.08.05.12.07.39.34.56.7.42,1.01-.39,1.92-.78,2.74-1.15.1-.05.22,0,.27.1.01.02.02.05.02.08,0,.26-.02.71.18.9.14.13.29.13.47,0,.25-.18.52-.36.78-.54.07-.05.15-.06.23-.03.05.02.08.08.07.13-.1.46-.21.95-.32,1.46-.04.19.04.33.24.42.13.06.29,0,.36-.12.23-.41.43-1.2,1.03-1.13.09.01.15.1.14.19,0,.01,0,.02,0,.04-.07.18-.11.37-.12.56-.01.18.07.28.25.31l.76.12c.15.02.28.11.35.25.4.73.84,1.48,1.32,2.24.29.46.29.99.27,1.52,0,.16.08.32.22.41l1.22.76c.1.06.17.17.2.28l.26,1.2c.04.2.24.32.43.28.06-.01.11-.04.16-.08.62-.52,1.28-1.07,1.97-1.67Z"/>
        <path class="cls-6" d="M108.94,74.24c.11.38.22.77.31,1.16.05.21.24.35.46.32l2.7-.32c.07,0,.12-.03.17-.08.14-.13.26-.31.35-.53.03-.07.11-.1.18-.07.03.01.05.03.07.06l.23.42c.09.16.29.21.45.13,0,0,.01,0,.01,0,.22-.14.44-.28.68-.42.47-.29.81-.13,1.29-.09.12.01.18.08.19.2.02.51.11.92.49,1.3.39.39.78.77,1.17,1.13.04.04.06.09.07.14.07.87-.59.86-1.11,1.27-.05.04-.08.1-.08.16-.02.29.13.45.44.48.98.08,1.95.15,2.9.22.39.03.72.04,1.11-.05,1.23-.29,2.43-.57,3.61-.85.12-.03.24.01.32.1l2.12,2.37c.12.13.19.3.2.48l.11,1.38c.01.19-.05.37-.18.5-.47.49-.93.96-1.38,1.41-.46.46-.06.93.08,1.42.01.05.01.11-.01.16-.17.36-.37.62-.6.78-.52.34-1.1.72-1.74,1.12-.39.24-.25.58.03.83.53.46.97.78,1.19,1.51.15.49.31.98.48,1.47.03.08-.01.17-.1.2,0,0-.02,0-.03,0l-.61.1c-.06.01-.11.04-.14.09-.28.42-.8.99-.63,1.52.21.63.4,1.28.58,1.94.06.22.06.44,0,.65-.18.6-.34,1.19-.5,1.77-.05.19.02.4.18.52.27.2.86.58.99.91.3.74.6,1.49.9,2.23.31.76.23,1.69.26,2.49.02.46.39.72.71.98.12.09.18.24.18.39-.03.82-.05,1.63-.18,2.46-.12.81-.24,1.61-.35,2.41-.01.1-.1.17-.2.17l-1.13-.02c-.06,0-.12.02-.17.05-.51.38-1.01.78-1.52,1.2-.23.19-.5.33-.81.43-.7.22-1.43.46-2.18.73-.65.22-1.03.5-1.5.92-.19.17-.25.36-.19.58.13.44.28.92.45,1.43.15.43-.09.9-.52,1.04-.06.02-.11.03-.17.04l-2.92.33c-.14.02-.26.1-.33.22l-1.16,2.02c-.05.09-.16.15-.27.14-.45-.04-.92-.06-1.39-.05-.51.01-.98.35-1.46.26-1.35-.26-2.73-.54-4.13-.85-.3-.06-.6-.11-.9-.14-.11-.01-.21.04-.27.12-.17.24-.36.49-.57.75-.06.07-.13.11-.22.12-1.46.16-2.89.29-4.28.39-.06,0-.11.03-.15.08l-.62.7c-.11.12-.21.11-.29-.02l-.26-.4c-.08-.12-.22-.18-.37-.16-.72.13-1.4.25-2.06.34-.21.03-.4-.01-.57-.13-.07-.05-.08-.14-.04-.21.19-.31.64-.87.14-1.16-.41-.24-.77-.3-1-.77-.29-.56-.56-1.12-.82-1.67-.05-.12-.17-.19-.3-.18l-.73.04c-.14,0-.27-.04-.37-.14l-1.36-1.32c-.07-.07-.11-.17-.09-.27l.24-1.78c.03-.19-.02-.39-.13-.54-1.05-1.51-2.14-3.06-3.28-4.64-.31-.42-.25-.85-.27-1.33,0-.2-.1-.35-.28-.45-.7-.37-1.4-.74-2.13-1.12-.1-.05-.21-.05-.31,0-.38.21-.02.77.12,1.03.02.04,0,.09-.03.11-.01,0-.02,0-.04,0-.89,0-1.81.04-2.76.1-.42.03-.72-.12-1.05-.34-.14-.09-.22-.21-.25-.37-.11-.62-.26-1.29-.45-2-.04-.14-.18-.24-.32-.23l-.62.05c-.1,0-.19-.07-.2-.17l-.07-.73c-.01-.12-.08-.23-.19-.29l-1.74-.98c-.09-.05-.13-.16-.1-.26.55-1.42,1.1-2.87,1.65-4.34.32-.85.54-1.62.65-2.3.13-.79.28-1.62.44-2.5.03-.19.08-.38.15-.55.03-.08.11-.12.19-.09,0,0,0,0,.01,0,.64.29,1.27.56,1.88.8.35.14.57-.16.5-.48-.04-.2-.07-.41-.09-.63,0-.09.03-.13.12-.11.33.08.59.09.9-.09.85-.49,1.74-1.01,2.66-1.54.48-.28.45-.89.53-1.35.02-.1.09-.19.2-.21.32-.09.99-.22,1.18-.55.73-1.26,1.5-2.6,2.31-4.01.06-.11.09-.24.09-.36-.02-.58-.05-1.2-.09-1.85-.02-.38-.19-.7-.46-.96-.08-.08-.09-.2-.01-.29,0-.01.02-.02.03-.03.36-.26.58-.64.67-1.15.04-.25,0-.5-.14-.75-.29-.54-.66-1.05-.75-1.67-.09-.66-.18-1.31-.27-1.94-.02-.12.04-.25.14-.32.82-.55,1.64-1.11,2.47-1.69.19-.13.33-.26.29-.52-.18-1.11-.23-2.21-.14-3.32.02-.21-.05-.38-.21-.52-.43-.38-.87-.78-1.32-1.21-.24-.23-.37-.46-.4-.7-.04-.37.09-.7.37-.99.27-.28.54-.43.8-.47.8-.12,1.74-.19,2.45-.64.44-.28.88-.55,1.32-.8.09-.05.2-.05.29,0,.25.15.5.3.74.44.08.04.16.06.25.04.79-.14,1.58-.29,2.36-.47.19-.04.32-.21.32-.4,0-.31-.1-.99.13-1.24.57-.61,1.11-1.24,1.6-1.91.02-.03.06-.03.09-.01,0,0,.01.01.02.02.29.5.56.98.82,1.44.21.37.32.69.34.95.06,1.18.11,2.39.14,3.63,0,.23.11.45.29.6l2,1.72c.13.11.21.25.25.42.11.51.22,1.05.33,1.6.11.56.62.86.99,1.24.26.27.85.04,1.18-.04.09-.02.18.04.2.13,0,0,0,0,0,0,.17.83.37,1.67.6,2.47Z"/>
        <path class="cls-6" d="M42.18,105.88c.52-.56,1.03-1.1,1.53-1.61.22-.23.22-.45,0-.67-.48-.47-.94-.95-1.4-1.46-.49-.55-1.01-.75-1.68-.9-.07-.02-.11-.06-.13-.13,0-.05.02-.09.07-.11.19-.06.3-.2.33-.4.09-.73.16-1.45.2-2.15,0-.13.07-.21.19-.25.73-.27,1.44-.53,2.12-.78.25-.09.45-.25.4-.52-.04-.18-.2-.3-.38-.28l-2.79.25c-.12,0-.24.05-.34.12l-1.46,1.04c-.07.05-.17.05-.24-.01-.23-.21-.42-.44-.74-.51-.62-.13-1.24-.23-1.84-.32-.14-.02-.27-.12-.32-.25l-.63-1.5c-.07-.17-.03-.37.11-.5l1.2-1.14c.1-.1.22-.17.36-.21l5.68-1.66c.21-.06.32-.2.33-.42l.11-1.85c0-.18.11-.33.27-.41.4-.21.78-.45,1.14-.74.24-.19.58-.29,1.04-.3,1.54-.04,3.03-.1,4.49-.18.11,0,.21-.07.26-.17l.5-.92c.03-.05.08-.1.13-.12.88-.39,1.79-.8,2.71-1.21.36-.16.56-.2.94,0,.67.36,1.36.74,2.07,1.14.31.17.58-.05.63-.36.04-.28.11-.55.21-.81.39-.98.77-1.95,1.15-2.91.06-.14.17-.26.32-.32l1.83-.73c.14-.05.22-.19.21-.34-.21-2.07-.44-4.23-.69-6.48-.02-.21.03-.39.15-.55.23-.31.37-.48.38-.91.04-1.34.05-2.68.03-4.02,0-.08.06-.14.14-.15,0,0,.01,0,.02,0l2.55.28c.14.02.26.08.35.19.33.42.65.79.97,1.12.39.4.81-.07,1.14-.3.08-.06.19-.06.28-.01.19.11.37.23.54.38.15.13.33.15.54.05.7-.33,1.35-.65,1.97-.98.31-.17.64-.25.96-.25.96-.02,1.95-.02,2.97,0,.62.01.51-.6.68-1,.02-.05.06-.08.12-.08.14,0,.27.03.39.09.05.03.08.07.1.12.2.67.4,1.33.61,1.99.03.09.14.19.32.27.29.14.57.26.84.37.1.04.16.13.16.24l-.03.83c0,.15.11.27.26.27,0,0,0,0,0,0h1.22c.12.01.23-.02.34-.07l3.65-1.91c.4-.21.89-.06,1.1.34.04.07.06.15.08.22l.54,2.75c.03.16.13.3.27.39.97.61,1.83,1.2,2.57,1.75.4.3.87.03,1.27-.11.08-.03.14-.01.2.05.27.32.56.64.86.96.35.37.79.39,1.26.49.08.02.15.07.2.13.18.27.35.57.52.9.31.61-.3,1.03-.68,1.4-.39.39.24.92.44,1.23.1.16.16.35.17.56.03.57.19,1.31-.11,1.81-.7,1.19-1.38,2.34-2.04,3.46-.07.12-.19.21-.32.26l-.94.3c-.12.04-.2.14-.22.26l-.17,1.07c-.02.12-.09.22-.2.28-.75.43-1.5.87-2.25,1.31-.48.28-.82.19-1.32.12-.28-.03-.43.11-.4.4.02.17.04.34.06.51.01.11-.03.14-.13.1l-1.64-.72c-.18-.08-.39,0-.47.19,0,.01,0,.02-.01.04-.14.45-.32.9-.41,1.36-.27,1.44-.42,2.85-.96,4.26-.62,1.61-1.21,3.19-1.76,4.75-.04.12-.12.23-.21.32l-2.1,1.89s-.08.03-.11,0c-.19-.18-.38-.38-.57-.58-.08-.09-.18-.13-.32-.13-1,0-1.96.02-2.9.03-1.04.01-2.07.2-3.08.35-.16.02-.3.11-.4.24l-1.1,1.46c-.11.14-.27.23-.44.24l-4.45.3c-.13,0-.24.11-.27.24-.02.12,0,.26.07.42.25.6.49,1.23.72,1.89.07.18.21.38.42.58.44.41.87.82,1.29,1.23.04.04.07.09.09.15.29,1.12.63,2.21.88,3.33.22,1.02.5,2.06.84,3.12.07.21.1.43.09.64-.03.85-.06,1.68-.09,2.49-.01.34.25.54.5.72.04.03.05.1.02.14,0,.01-.02.02-.04.03l-2.51,1.21c-.11.05-.25.04-.35-.04-.18-.14-.36-.28-.56-.41-.05-.04-.11-.05-.17-.05-.68,0-1.31.03-1.9.08-.05,0-.09-.03-.1-.08,0-.01,0-.03,0-.04l.25-.56c.04-.09.03-.19-.02-.28-.11-.17-.26-.21-.46-.14-1.11.43-2.19.86-3.26,1.3-.1.04-.21.05-.32.03l-.84-.17c-.12-.02-.24.03-.3.13-.09.15-.14.31-.14.49,0,.08-.07.15-.15.15-.04,0-.07-.01-.1-.04-.34-.32-.68-.61-1-.87-.52-.42-1.63-.53-2.33-.62-.15-.02-.28-.12-.33-.26l-.39-.99c-.07-.17-.22-.29-.4-.33-.65-.12-1.57-.17-2.1-.64-.83-.74-1.68-1.45-2.55-2.12-.09-.07-.15-.16-.18-.27l-.68-2.38c-.04-.16-.12-.3-.23-.42l-3.68-4.28c-.11-.13-.19-.29-.22-.46-.05-.3-.09-.63-.13-.99-.02-.26.03-.45.16-.59.37-.39.76-.79,1.15-1.21Z"/>
        <path class="cls-6" d="M193.45,91.69l-1.1.16c-.14.02-.27.09-.36.2-.35.41-.71.82-1.08,1.22-.44.48-.63,1.12-.78,1.73-.03.13.01.26.11.34l1.29,1.07s.04.08,0,.11c0,0,0,0,0,0l-.59.58s-.07.1-.06.17l.09.9c0,.08-.01.14-.06.21-1.33,1.61-2.65,3.24-3.96,4.87-.31.38-.61.68-.92.89-.94.65-1.87,1.31-2.81,1.96-.15.11-.24.29-.22.47l.28,3.37c.01.12-.03.23-.12.31l-4.3,3.94c-.09.08-.15.18-.19.3l-1.29,4.47c-.43.82-.96,1.62-1.59,2.41-.1.12-.29.29-.45.39-.51.31-1.02.61-1.54.91-.22.12-.63.19-1.22.19-.06,0-.09-.03-.1-.09l-.1-.67c-.02-.12-.09-.22-.2-.27l-1.31-.61c-.16-.07-.35-.04-.47.09-.44.48-.89.96-1.33,1.42-.13.13-.34.19-.64.17-.07,0-.11-.04-.11-.12v-.71c0-.19-.15-.34-.34-.35l-.84-.03c-.08,0-.15-.05-.19-.11l-1.45-2.6c-.05-.1-.13-.18-.22-.24l-1.77-1.2c-.16-.11-.33-.14-.51-.09l-1.68.39c-.15.04-.32.03-.47,0l-2.04-.53c-.16-.04-.33.05-.38.22l-2.1,7.36s-.06.07-.11.06c-.02,0-.03-.02-.04-.03l-1.69-2.23c-.12-.16-.35-.19-.51-.07-.03.02-.06.05-.08.09l-.31.47c-.05.08-.16.1-.24.05l-.56-.33c-.14-.08-.31-.08-.44.02l-.55.39c-.08.06-.18.05-.25-.01l-.43-.38c-.15-.13-.37-.14-.52-.02-.28.22-.58.46-.89.72-.13.1-.18.28-.17.54.01.19-.01.38-.07.56-.04.14-.16.28-.36.4-.44.28-.89.58-1.35.9-.1.07-.23.05-.31-.04-.23-.25-.52-.64-.93-.55-.91.19-1.78.36-2.63.52-.13.02-.26,0-.37-.07-.48-.3-.95-.59-1.4-.86-.46-.28-.22-1,.04-1.33.35-.44.7-.88,1.05-1.31.09-.11.14-.24.16-.38.06-.56.11-1.14.15-1.74.02-.32-.04-.58-.18-.77-.16-.22-.32-.45-.46-.67-.04-.07-.1-.12-.19-.15-1.03-.39-2-.76-2.89-1.1-.09-.03-.15-.09-.19-.18-.77-1.7-1.6-3.39-2.49-5.07-.05-.09-.14-.16-.24-.18-.12-.03-.22,0-.31.08-.68.67-1.36,1.34-2.04,2.01-.05.05-.13.05-.19,0l-1.3-1.1c-.14-.12-.35-.14-.52-.04-.42.26-.82.57-1.34.58-.6,0-1.17-.02-1.73-.08-.12-.01-.24-.07-.32-.16l-1.77-1.92c-.09-.1-.13-.23-.11-.36.2-1.25.43-2.49.5-3.77.03-.59.06-1.13.09-1.64,0-.15-.05-.29-.16-.39-.28-.26-.71-.52-.71-.94,0-.47-.01-.96-.05-1.46-.03-.39-.16-.83-.39-1.34-.28-.63-.56-1.26-.81-1.89-.19-.47-.56-.68-.95-.95-.12-.08-.17-.23-.13-.37l.52-1.71c.05-.16.05-.31,0-.47-.21-.66-.42-1.32-.62-2-.07-.25,0-.51.23-.79.25-.31.71-.26,1.07-.37.25-.08.33-.26.25-.54-.27-.88-.55-1.75-.83-2.63-.1-.32-.53-.62-.78-.82-.14-.12-.13-.22.03-.31.52-.28.96-.55,1.33-.82.27-.2.54-.54.83-1.03.23-.39-.02-.81-.16-1.18-.05-.12-.02-.26.07-.36l1.46-1.57c.1-.11.15-.26.14-.41l-.14-1.99c-.01-.21-.09-.4-.24-.56l-2.18-2.48c-.09-.1-.09-.2-.01-.31l1.15-1.53c.13-.17.2-.38.2-.6l.02-1.66c0-.06.05-.12.11-.13,1.78-.35,3.54-.7,5.27-1.05.58-.12,1.51.43,1.87.89.39.51.79,1,1.19,1.48.07.09.13.19.17.3.33,1.03.65,2.03.94,3.01.06.19.18.26.36.23.24-.04.47-.39.65-.56.08-.08.22-.08.3,0,.01.01.02.02.03.03.21.32.45.64.74.96.15.16.33.49.54.99.49,1.15,1,2.3,1.53,3.46.1.21.26.29.48.26,1.5-.25,2.98-.45,4.44-.6.5-.05.97.23,1.41.41.13.06.28.03.39-.06.22-.19.61-.64.9-.71.09-.02.2-.04.3-.05.56-.05,1.09-.12,1.59-.2.3-.05.54-.15.74-.31.47-.39.9-.76,1.3-1.1.11-.09.25-.14.4-.12l2.11.29c.11.01.19.1.21.21.02.17.04.34.06.51.05.51.54.55.93.67.11.03.18.14.16.26-.03.19-.06.37-.1.55-.07.33.07.51.42.51.28,0,.54.02.79.05.07,0,.13.04.17.09.38.45.64.96.78,1.51.01.06,0,.1-.04.14-.22.21-.46.42-.73.63-.23.18-.28.41-.14.69.25.5.5,1.04.77,1.63.07.16.22.28.39.31.89.18,1.78.38,2.68.58.57.13,1.12.34,1.63.63.06.03.09.09.08.16-.02.28-.02.56,0,.86.01.18.09.28.24.31.08.02.2,0,.35-.04,1.11-.3,2.11-.8,3.01-1.51.04-.03.07-.08.08-.14.01-.13-.02-.25-.1-.34-.04-.05-.03-.13.02-.17,0,0,0,0,.01,0l1.49-.89c.12-.07.27-.05.37.04.21.2.57.59.92.47.4-.14.79-.27,1.19-.39.09-.03.16-.11.16-.2.07-.99.11-1.94.13-2.83.01-.5.26-.8.61-1.09.04-.04.09-.05.15-.04.2.02.42.05.64.08.26.04.46-.04.61-.24.25-.35.92-1.14.85-1.56-.02-.12.03-.25.13-.32l2.49-1.78c.09-.07.21-.07.31-.01l2.24,1.4c.2.12.44.15.66.08l1.54-.52c.17-.06.35-.03.49.08l1.47,1.13c.17.13.39.15.58.07l1.59-.69c.11-.05.25-.03.34.05.94.79,1.9,1.56,2.88,2.32.16.13.35.13.54.07.13-.05.28-.03.39.05l2.16,1.46c.12.08.19.21.2.35l.2,3.2c0,.17.16.3.33.29,0,0,0,0,0,0l.79-.05c.07,0,.14.04.17.11l.46,1.23Z"/>
        <path class="cls-6" d="M67.39,206.35l-1.9.96c-.06.03-.11.03-.16,0l-.69-.42c-.12-.07-.27-.07-.38.02l-.58.43c-.05.04-.12.04-.18,0-.74-.61-1.48-1.21-2.23-1.81-.3-.24-.53-.5-.71-.8-.27-.44-.51-.9-.74-1.37-.08-.16-.24-.26-.42-.25-.64.03-1.3.07-1.96.12-.25.02-.53-.03-.84-.15-1.31-.51-2.69-.97-3.93-1.63-.46-.24-.92-.49-1.38-.74-.05-.03-.08-.07-.09-.13l-.09-.98c-.03-.33-.2-.45-.52-.36l-1.11.33c-.13.04-.22.15-.24.28l-.12.94c-.01.08-.05.11-.13.09l-.74-.18c-.07-.02-.13-.06-.16-.13l-.23-.49c-.03-.07-.01-.16.05-.21.36-.29.76-.58.91-1.04.23-.72.46-1.43.68-2.12.02-.06.02-.14-.02-.2l-.59-1.19c-.04-.09-.12-.15-.22-.17-.85-.17-1.7-.34-2.55-.51-.25-.05-.43.01-.56.18-.19.26-.28.22-.28-.1,0-.29-.1-.44-.37-.57-.5-.23-1.03-.48-1.59-.73.55-.39,1.08-.77,1.58-1.16.35-.27.65-.57.89-.89.49-.67.96-1.31,1.4-1.9.2-.27.38-.58.52-.92.25-.61.56-1.17.85-1.76.13-.27.23-.55.29-.84.64-2.99,1.29-5.97,1.95-8.95,0,0,.08-.42.25-1.24.11-.57.28-1.15.41-1.71.49-2.32,1.01-4.61,1.56-6.86.08-.32.12-.62.12-.92.01-.67-.11-1.33.19-1.97.28-.59.55-1.16.81-1.72.03-.07.11-.11.19-.1.72.12,1.4.23,2.06.32.33.05.49-.12.47-.49-.03-.59,0-1.05-.44-1.54-.47-.53-.95-1.09-1.45-1.7-.13-.15-.3-.2-.51-.14-.06.02-.1.05-.13.1l-.31.62c-.21.43-.29.4-.23-.07.69-5.45,1.36-10.97,2.01-16.57.03-.23.08-.41.16-.56.18-.36.36-.72.54-1.1.02-.04.06-.05.09-.03.01,0,.02.01.03.02.11.15.22.29.33.41,1.03,1.09,2.24,2.29,3.65,3.6.23.22.38.47.47.77.27.87.55,1.74.83,2.62.06.19.27.3.46.24.08-.03.15-.08.2-.15l.81-1.25c.06-.1.09-.21.07-.33-.16-1.35-.62-2.64-.98-3.95-.05-.2-.2-.42-.44-.67-1.09-1.17-2.18-2.34-3.27-3.51-.33-.35-.72-.68-1.18-.99-.66-.43-1.35-.85-2.07-1.26-.45-.25-.56-.9-.67-1.37-.02-.09.02-.19.09-.24l1.42-.96c.13-.09.24-.21.31-.35l1.01-2.08c.06-.13.07-.26.03-.39l-.45-1.46c-.03-.11.03-.22.14-.26.02,0,.03,0,.05,0,.16,0,.31-.03.45-.08.26-.08.33-.25.2-.49-.52-1.03-1.02-2.01-1.48-2.96-.17-.34-.46-.42-.8-.47-.11-.01-.19-.12-.18-.23,0,0,0-.02,0-.03.04-.16.1-.32.19-.47.47-.9.87-1.75,1.18-2.55.04-.11.13-.2.25-.23.68-.23,1.36-.48,2.03-.78.26-.11.34-.04.22.22-.05.12-.06.24-.02.35.03.07.08.11.16.12.79.07,1.58.06,2.36-.03.58-.06.87.95,1.57.62,1.02-.48,2.03-.98,3.03-1.49.2-.1.43-.17.57-.35.11-.14.09-.35-.06-.47l-.72-.58c-.07-.06-.11-.14-.12-.23-.04-.69-.03-1.36.02-2.03.03-.39,0-.79-.08-1.18-.21-.95-.44-1.86-.71-2.73-.2-.66-.37-1.28-.49-1.85-.15-.68-.31-1.29-.49-1.85-.14-.45-.86-1.02-1.23-1.37-.31-.29-.52-.56-.64-.8-.2-.42-.38-.87-.54-1.35-.01-.03,0-.06.04-.07,0,0,0,0,.01,0l4.23-.28c.14,0,.25-.07.34-.18l1.22-1.62c.05-.06.12-.1.19-.12.85-.13,1.72-.29,2.58-.29.93,0,1.84-.02,2.72-.07.15,0,.3.05.41.16l.6.63c.15.16.39.17.55.02l2.33-2.08s.11-.05.17-.01l1.43.87c.1.06.17.17.19.29l.11.91c.02.19.19.32.38.3l.71-.07c.08,0,.16.05.18.13l.42,1.91c.02.1.08.18.16.23.53.35,1.17.67,1.81.64,1.17-.07,2.31-.13,3.41-.17.27-.01.43-.15.48-.42,0-.05.05-.08.1-.07.01,0,.02,0,.03.01l.51.31c.06.04.09.09.1.15.08.48.03.95.33,1.38,1.06,1.54,2.14,3.07,3.25,4.58.12.16.15.36.1.59-.13.52-.21,1.07-.27,1.65-.02.25.06.45.25.61.51.43,1.02.88,1.53,1.35.31.29.65.29,1.04.26.17-.01.33.09.4.25.21.48.44.96.68,1.45.18.35.36.52.72.64.11.03.16.15.13.25,0,.01,0,.02-.01.03-.11.21-.22.43-.32.65-.16.35.23.5.47.61.37.17.76.34,1.18.26.59-.11,1.18-.23,1.76-.34.08-.01.14.01.18.08.18.33.54,1.15,1.06.63.29-.29.55-.56.8-.82.06-.07.14-.11.23-.12,1.28-.16,2.67-.29,4.16-.4.38-.03.65-.47.81-.77.07-.12.2-.19.34-.16.92.2,1.87.38,2.85.54.24.04.59.11,1.05.22.49.12.92.25,1.4.1.63-.19,1.38-.22,2.24-.1.07,0,.12.06.13.12.08.54.13,1.21.65,1.54.78.49,1.54.98,2.29,1.47.19.12.34.3.43.5.37.82.74,1.65,1.1,2.48.22.5.05,1.05-.01,1.56-.03.23.02.53.14.88.22.63.43,1.26.64,1.89.02.05,0,.1-.03.14l-3.48,3.22c-.07.07-.1.17-.08.27.03.11.08.21.15.3.43.55.85,1.06,1.26,1.54.52.62.63,1.53.77,2.28.01.06,0,.12-.03.17-.22.42-.67.73-.59,1.25.2,1.4.42,2.93.66,4.57,0,.05-.03.09-.07.1-.01,0-.03,0-.04,0l-1.64-.56c-.36-.12-.57,0-.64.38-.06.31-.11.62-.15.92-.05.31-.23.54-.43.77-.77.91-1.52,1.82-2.27,2.75-.47.58-.44.74.06,1.28.09.09.08.24-.01.33,0,0,0,0,0,0l-.47.41s-.07.08-.08.13c-.05.26-.08.55-.09.89-.02.53-.62.55-1,.7-.29.12-.36.31-.22.58.11.21.22.42.34.64.08.15.02.34-.13.42l-.71.39s-.1.04-.15.03l-2.23-.1c-.19,0-.38.03-.55.12l-1.55.81c-.07.04-.16.03-.22-.03l-2.33-2.12c-.11-.1-.23-.14-.38-.13l-3.23.28c-.06,0-.11.04-.14.09-.08.13-.13.27-.14.42-.12,1.24-.35,2.42-.69,3.54-.04.13-.12.24-.22.31-.46.32-.96.66-1.48,1.03-.17.12-.23.28-.19.48l.18.93c.02.1-.03.19-.11.24l-1.78.96c-.17.09-.32.22-.44.37-.5.62-.96,1.25-1.4,1.88-.45.65-1.06,1.2-1.63,1.75-.1.1-.14.25-.1.39l.89,3.05c.03.1-.03.21-.13.24,0,0,0,0,0,0l-2.39.61c-.15.04-.25.17-.24.32v1.26c.01.06.04.11.08.15.13.13.28.23.44.3.09.04.14.14.1.24,0,.02-.02.04-.03.05-.46.52-.9,1.05-1.32,1.59-.14.18-.17.35-.05.55.16.27.08.4-.23.37-.15-.01-.27.03-.37.15-.37.41-.7.85-.98,1.3-.35.56-1.03,1.01-1.71.92-.88-.12-1.78-.22-2.69-.3-.21-.02-.41.02-.59.13-.52.29-1.44.93-2.05.88-.88-.07-1.79-.12-2.74-.16-.14,0-.27.06-.35.18l-.4.63s-.08.07-.14.07c-.31-.04-.63-.1-.96-.18-1.01-.26-.27,1.15-.91,1.42-.09.04-.2,0-.23-.1,0-.01,0-.02,0-.03l-.09-.48c-.05-.27-.21-.37-.47-.29l-3.66,1.07c-.15.04-.25.18-.24.33.03.67.07,1.37.1,2.12.02.36-.06.6-.18.91-.4,1.07-.83,2.19-1.29,3.34-.11.29-.15.59.02.89.17.29.34.58.51.85.06.1.16.16.27.17.69.07,1.39.11,2.1.1.18,0,.34.1.41.27l.65,1.56c.04.11.04.23-.01.33l-.41.79c-.07.14-.02.32.13.39.04.02.09.03.14.03h.8c.05,0,.1.04.1.09l.13,2.05c0,.13-.06.25-.17.31l-.66.36c-.11.06-.16.18-.14.29l.17.94c.02.13-.01.27-.1.38-.79.91-1.6,1.8-2.44,2.67-.13.14-.27.29-.41.46-.28.34-.19.77-.08,1.14.02.08-.02.17-.1.19,0,0,0,0-.01,0-.4.09-.95.09-1.19.52-.23.42-.57.93-.62,1.34-.13,1.04-.28,2.04-.48,3ZM71.78,195.55c-.21.13-.45.25-.66.36-.18.1-.25.32-.15.5.03.05.06.09.11.13l.88.63c.15.11.36.07.47-.08.04-.06.06-.12.06-.19l.02-1.17c0-.07-.02-.12-.07-.17-.18-.17-.4-.18-.66-.02Z"/>
        <path class="cls-6" d="M177.8,119.82l.77.45c.06.04.1.11.08.18l-.31,2.03c-.02.11-.08.2-.17.26l-2,1.21c-.09.05-.15.15-.16.25l-.22,2.05c-.02.19.12.36.31.38.03,0,.05,0,.08,0l2.61-.33c.19-.02.37-.1.53-.22l2.58-2.02c.16-.13.19-.37.06-.53,0,0,0,0,0,0l-.72-.9c-.05-.06-.06-.14-.02-.21l.77-1.56c.03-.05.09-.07.14-.05l.86.37c.17.07.36.04.5-.07l1.76-1.46c.07-.06.16-.1.26-.1.81-.06,1.61-.12,2.4-.17.57-.04,1.05.01,1.44.15.06.02.08.06.07.12-.05.36-.25.72,0,1.06.39.55.79,1.15,1.21,1.79.04.06.04.12.02.19l-.77,2.11c-.05.14-.02.3.09.41.82.81,1.64,1.59,2.45,2.34.65.6,1.15,1.34,1.69,2.07.03.04.05.1.04.15-.06.51-.23.9-.52,1.18-1.02.98-1.99,1.93-2.92,2.85-.13.13-.18.3-.16.5.06.42.12.8.17,1.13.01.08.05.15.11.21.26.25.52.5.77.75.21.21.49.38.85.53.47.2.95.39,1.43.59.08.03.12.12.09.2-.19.49-.22.89,0,1.41.23.57.46,1.13.68,1.66.05.12.13.23.24.3l2.45,1.71c.05.03.07.1.04.16l-.86,1.61c-.08.14-.08.31-.01.46l.32.68c.03.06.02.11,0,.16l-.49.92c-.06.12-.17.21-.29.27l-7.11,3.04c-.66.2-1.35.36-2.07.48-.47.08-.8.21-1.05.57-.09.12-.25.17-.39.11l-2.61-1.18c-.25-.11-.43-.04-.54.21-.19.42-.7,1.44-.54,1.89.15.42.33.87.53,1.33.1.22.25.41.46.56.41.29.8.57,1.2.84.07.05.11.13.11.22l-.08,1.22c0,.1-.09.17-.19.16-.03,0-.05-.01-.08-.02-.3-.18-.62-.22-.97-.11-1.46.45-3.01.93-4.66,1.46-.37.12-.43.66-.54.99-.04.11-.12.19-.24.22-.57.15-1.13.27-1.7.37-.18.03-.3.13-.37.29-.28.67-.44,1.34-.48,2.02,0,.15-.13.26-.27.27l-1.77.11c-.1,0-.19.07-.23.17-.32.85-.64,1.72-.95,2.6-.04.12-.05.23-.02.35.03.11.09.19.18.25.2.13.4.28.6.44.07.06.09.13.04.22-.09.18-.22.31-.41.4-.06.03-.12.03-.19.01l-1.22-.43c-.18-.07-.33-.02-.44.14-.42.61-.83,1.23-1.23,1.85-.22.34-.07.54.12.9.21.4.4.74.81.98,1.12.64,2.2,1.26,3.26,1.86.09.05.15.15.14.25v1.02c0,.1-.06.15-.15.15-.33.02-.93-.02-1.18.27-.42.5-.86.98-1.32,1.45-.06.06-.16.08-.24.04l-1.19-.55c-.06-.03-.1-.07-.12-.13-.07-.23-.11-.46-.1-.7,0-.33-.17-.44-.48-.48-1.04-.13-2.08-.2-3.11-.22-.1,0-.19-.08-.2-.18-.05-.56-.09-1.13-.13-1.7-.01-.17-.05-.29-.11-.36-.16-.18-.44-.1-.6.06-.17.18-.36.35-.55.51-.09.08-.23.08-.32,0-.2-.17-.43-.28-.71-.34-.06-.01-.11,0-.16.02l-3.06,1.35c-.07.03-.16.01-.21-.05l-1.05-1.28c-.1-.12-.24-.2-.4-.22l-2.3-.28c-.15-.02-.28.09-.3.23,0,.01,0,.02,0,.04v.77s-.03.08-.07.08c-.01,0-.03,0-.04,0-.37-.2-.73-.41-1.08-.62-.66-.41-1.32-.43-2.02-.33-.05,0-.1.03-.14.07l-.26.23s-.09.03-.12,0c-.01-.01-.02-.03-.02-.05l-.04-.37c-.02-.18-.18-.31-.36-.3-.05,0-.1.02-.14.05l-2.5,1.54c-.08.05-.19.05-.26,0-.75-.51-1.51-1.01-2.29-1.52-.24-.16-.41-.38-.55-.67-.66-1.33-1.34-2.7-2.04-4.09-.28-.55-.48-1.06-.59-1.54-.23-.94-.47-1.89-.7-2.85-.02-.08-.07-.16-.13-.22l-3.36-2.94c-.11-.1-.25-.16-.39-.17l-1.07-.1c-.18-.02-.34.12-.36.3,0,0,0,0,0,0l-.04.56c0,.08-.08.14-.16.14,0,0-.01,0-.02,0l-1.54-.3c-.13-.03-.23-.12-.26-.25-.11-.45-.22-.91-.35-1.38-.18-.68-.7-1.05-1.25-1.34-.12-.06-.26-.05-.36.04l-2.67,2.32s-.11.03-.15-.01c0,0,0,0,0,0-.2-.28-.46-.75-.87-.57-.07.03-.12.09-.17.19-.78,1.77-1.57,3.56-2.36,5.36-.02.03-.06.05-.09.03-.01,0-.02-.01-.03-.02-.16-.24-.31-.54-.43-.89-.13-.36.02-.8.08-1.18.04-.25-.05-.39-.27-.51-.23-.13-.45-.28-.66-.45-.05-.04-.08-.09-.09-.14l-.35-1.21c-.07-.23-.2-.42-.39-.56l-1.89-1.41c-.14-.11-.35-.1-.48.02-.54.49-1.07.96-1.57,1.39-.25.22-.43.48-.53.79-.27.82-.54,1.66-.82,2.52-.11.34-.29.69-.55,1.02-.28.37-.57.72-.89,1.08-.1.11-.26.16-.4.13-.6-.13-1.2-.27-1.8-.42-.23-.06-.45-.02-.66.13-.48.33-.96.63-1.43.9-.06.04-.15.02-.19-.04l-.82-1.19c-.08-.12-.1-.27-.06-.41l.58-1.87c.04-.13.02-.27-.05-.38-.35-.56-.71-1.13-1.07-1.72-.21-.34-.34-.66-.39-.96-.07-.39-.15-.78-.25-1.18-.04-.18.01-.31.17-.41l.88-.51c.15-.08.2-.27.13-.42l-.33-.68c-.11-.22-.04-.37.19-.45.41-.14.86-.12.84-.71-.01-.32,0-.61.05-.89.01-.08.05-.15.12-.19l.7-.52c.15-.11.18-.33.07-.48h0s-.38-.52-.38-.52c-.07-.09-.07-.22,0-.32.8-1.08,1.64-2.15,2.51-3.22.26-.32.29-.67.33-1.07,0-.1.1-.16.19-.15.01,0,.02,0,.04,0l1.91.63c.19.06.39-.04.45-.23.02-.05.02-.11.01-.17l-.74-5.19c-.01-.09,0-.19.06-.26l.49-.7c.09-.13.12-.29.09-.45l-.43-1.9c-.04-.2-.13-.38-.26-.54l-1.32-1.62c-.04-.05-.04-.13.01-.18l3.29-3c.15-.13.2-.34.14-.53-.26-.78-.53-1.56-.8-2.33-.14-.4.09-1.09.1-1.55,0-.27-.05-.55-.18-.84-.4-.92-.8-1.82-1.18-2.69-.07-.17-.2-.31-.35-.42l-2.48-1.66c-.09-.06-.16-.15-.19-.26l-.25-.85c-.04-.13-.02-.28.05-.39l.97-1.67c.07-.13.21-.21.35-.23.96-.09,1.93-.2,2.92-.31.2-.02.35-.11.45-.26.17-.25.33-.49.5-.73.13-.19.15-.4.07-.64-.18-.56-.35-1.07-.51-1.54-.02-.05-.01-.1.02-.15.19-.28.43-.47.71-.58.79-.29,1.75-.61,2.89-.96.17-.05.42-.2.75-.45.43-.33.84-.65,1.23-.97.09-.08.21-.12.33-.12.31,0,1.08-.11,1.3.17.64.78,1.3,1.51,1.98,2.2.08.08.19.13.31.13.75.02,1.51.03,2.27.04.5,0,.84-.24,1.21-.51.06-.04.14-.04.2,0l1.35,1.17c.19.16.47.15.64-.03l1.8-1.86c.05-.05.13-.05.19,0,.01.01.02.02.03.04.75,1.62,1.53,3.17,2.35,4.64.07.13.17.21.31.26.89.31,1.76.62,2.6.93.4.15.76.72.75,1.14-.02.58-.06,1.13-.13,1.66,0,.06-.03.11-.07.16l-1.29,1.54c-.11.13-.16.27-.16.44l.02,1.04c0,.14.08.27.2.35l1.9,1.19c.14.09.31.12.48.09l2.71-.54c.11-.02.2.01.27.1.26.35.6.92,1.12.57.63-.43,1.29-.88,1.99-1.33.59-.39.16-1.03.53-1.46.12-.14.27-.25.43-.33.07-.03.13-.02.18.03l.42.37c.16.14.39.15.56.02l.52-.39c.09-.07.22-.07.32,0,.53.41.91.75,1.33-.08.03-.06.11-.09.17-.06.02,0,.04.02.05.04.57.83,1.15,1.65,1.76,2.47.17.23.37.27.59.14.05-.03.08-.07.1-.12.04-.1.08-.21.11-.31.7-2.46,1.4-4.98,2.08-7.55.02-.07.09-.12.17-.1l1.6.42c.21.06.43.06.64,0l1.48-.35c.16-.04.33,0,.46.09.38.27.79.54,1.21.8.18.11.34.29.48.53.47.84.93,1.69,1.39,2.53.23.41.7.28,1.08.27.08,0,.11.04.12.11.01.22.01.46,0,.7,0,.26.11.39.35.38.39-.01.76-.03,1.1-.05.18-.01.34-.09.45-.22l1.13-1.26c.08-.09.22-.12.33-.06l.63.33c.06.03.09.07.1.14.06.36.02,1.04.44,1.07.79.06,1.37.02,1.74-.11.35-.12.94-.46,1.78-1.02.29-.19.55-.45.79-.77.47-.62.92-1.25,1.36-1.89Z"/>
        <path class="cls-6" d="M188.72,151.09l.73,1.67c.06.13.18.21.32.21h.67c.06,0,.11.04.11.1l.26,2.17c.02.13.08.23.2.31.59.37,1.21.76,1.84,1.17.17.11.36.17.57.18.69.03,1.33.06,1.9.09.05,0,.08.03.1.07l1.12,2.8c.03.08,0,.11-.08.1-.26-.04-.53-.05-.83-.03-.07,0-.13.04-.18.09-.39.48-.85.86-.98,1.53-.1.51-.21,1.03-.33,1.54-.09.37-.41.58-.71.78-.29.19-.37.42-.15.72.4.58.83,1.16,1.28,1.75.07.09.08.19.04.29l-.63,1.61c-.05.12-.03.26.06.36l2.47,2.99c.05.06.12.1.2.12l2.16.41c.17.03.34.09.49.17l3.27,1.75c.16.08.34.1.51.04l4.2-1.49c.07-.02.12,0,.17.05l1.16,1.52s.04.1.02.16c-.27.59-.51,1.19-.89,1.73-.7,1-1.4,1.99-2.1,2.95-.09.12-.14.26-.15.4l-.16,2.52-5.5,2.98c-.14.08-.24.21-.28.37l-.24,1.04c-.04.19-.17.35-.35.43l-1.73.81c-.15.07-.28.19-.37.34l-1.41,2.56c-.07.12-.19.2-.32.22l-1.74.24c-.12.02-.23.08-.3.18l-2.38,3.16c-.12.16-.09.38.07.5.02.02.05.03.07.04l.98.43c.08.03.11.12.08.2l-.54,1.35c-.03.08-.08.12-.17.12-.29.02-.6,0-.94-.08-.24-.05-.39,0-.57.16-.37.34-.72.76-1.21.87-.58.13-1.17.26-1.79.39-.2.04-.3.16-.3.36v.49c-.01.09-.09.16-.18.16,0,0-.02,0-.02,0l-2.33-.41c-.16-.03-.33.06-.39.22l-.41,1.01c-.06.15-.13.15-.22.02-.07-.11-.18-.19-.33-.23-.71-.19-1.4-.36-2.07-.52-.14-.03-.28-.03-.42,0l-2.69.77c-.09.03-.19-.03-.22-.12,0-.02,0-.05,0-.07l.04-.35c0-.06,0-.11-.04-.17-.07-.11-.16-.2-.28-.26-.77-.43-1.51-.86-2.22-1.28-.38-.23-.8.07-1.18.14-.16.03-.33.02-.54-.04-.98-.25-1.96-.51-2.96-.75-.14-.04-.26-.13-.32-.26l-1.42-3.12c-.06-.13-.19-.2-.32-.18l-4.84.54c-.11.01-.22-.03-.28-.12-.47-.57-.97-1.15-1.48-1.74-.3-.35-1.16-.38-1.57-.36-.1,0-.19.06-.24.16-.15.29-.29.59-.43.9-.14.3-.14.51.13.74.15.13.13.2-.07.23-.82.08-1.61.18-2.38.28-.45.06-.81-.02-1.24-.15-.1-.03-.16-.14-.13-.24.1-.35.16-.68-.09-1-.26-.35-.62-.96-1.08-.98-1.58-.06-3.15-.1-4.72-.11-.05,0-.09-.04-.09-.09,0-.02,0-.04.02-.05l.88-1.34c.08-.13.21-.22.35-.26l1.92-.57c.19-.06.31-.26.26-.45-.09-.35-.42-.85-.12-1.17.37-.38.7-.78.99-1.18.08-.11.22-.15.34-.11.42.14,1.26.57,1.38-.16.19-1.11.37-2.19.57-3.24.06-.35.13-.64.38-.91,1.01-1.08,2-2.18,2.97-3.29.14-.17.13-.41-.03-.56-.62-.59-1.24-1.23-1.88-1.91-.26-.28-.42-.45-.45-.86-.03-.54-.06-1.06-.08-1.55,0-.12-.04-.24-.1-.34-.23-.41-.47-.83-.72-1.27-.22-.38-.28-.72-.23-1.13,0-.06.06-.1.11-.09,0,0,0,0,0,0l1.42.17c.11.01.21.07.28.16l1.18,1.44c.11.14.31.18.47.11.97-.44,1.97-.9,2.99-1.38.57-.27,1.07.79,1.58.22.27-.3.4-.25.39.15-.01.32,0,.66.04,1.03.03.28.16.43.4.44,1,.05,2.03.15,3.1.29.09.01.16.09.16.18,0,.59-.09.8.51,1.07.61.28,1.22.54,1.82.78.17.07.37.02.49-.12l1.46-1.66c.08-.09.17-.13.29-.13.25,0,.51-.02.78-.03.35-.02.52-.19.53-.51.02-.55.04-1.12.07-1.7,0-.19-.09-.37-.26-.46-1.28-.7-2.48-1.38-3.61-2.05-.29-.17-.48-.46-.57-.86-.01-.05,0-.1.03-.14l.84-1.32c.06-.09.17-.13.28-.09l1.07.4c.19.07.41.03.56-.12l.89-.89c.14-.14.15-.38,0-.52-.01-.01-.03-.03-.04-.04l-.82-.6c-.09-.07-.12-.18-.09-.28l.7-1.89c.04-.11.14-.18.26-.19.6-.03,1.22-.06,1.86-.08.2,0,.3-.16.31-.44.01-.67.14-1.32.37-1.96.04-.12.15-.21.27-.24l1.73-.37c.13-.03.23-.12.27-.24l.27-.84c.03-.09.1-.15.19-.18,1.49-.43,2.93-.83,4.31-1.21.51-.14.89.25,1.29.34.33.08.58-.08.59-.42,0-.77.04-1.52.09-2.25.01-.16-.06-.31-.19-.39-.41-.28-.81-.56-1.21-.84-.23-.16-.39-.35-.5-.58-.16-.33-.29-.66-.4-.99-.02-.06-.02-.11,0-.17l.28-.8c.04-.1.11-.13.21-.09l2.6,1.16c.11.05.23.03.32-.06.23-.23.47-.45.72-.67.06-.05.13-.09.22-.1.56-.1,1.09-.2,1.59-.31.05-.01.11,0,.16.01.06.02.11.06.15.1Z"/>
        <path class="cls-6" d="M129.1,216.68l-2.01-.53c-.18-.05-.37-.05-.55-.02-.55.1-1.11.2-1.66.29-.4.07-.78.19-1.14.37-.93.47-1.86.96-2.79,1.45-.11.06-.18.17-.18.29v.77c0,.08-.04.12-.12.12l-1.73.11c-.08,0-.17-.02-.23-.07l-1.51-1.15c-.11-.09-.24-.15-.38-.18-1.04-.24-2.11-.5-3.22-.77-.56-.13-1.04-.03-1.59-.03-.19,0-.36.07-.51.22-.19.19-.67.62-1.45,1.3-.04.04-.09.05-.15.05l-.7-.03c-.06,0-.09-.03-.12-.08l-.76-1.89c-.06-.15-.18-.26-.34-.3l-2.91-.85c-.07-.02-.09-.07-.07-.13l.58-1.46c.07-.17,0-.37-.18-.45-1.26-.61-2.51-1.21-3.74-1.8-.33-.16-.61-.24-.82-.23-.36.01-.74.03-1.14.05-.31.02-.38.38-.44.63,0,.03-.03.05-.06.04-.01,0-.02-.01-.03-.02l-1.77-2.33c-.08-.1-.2-.16-.32-.15l-2.18.15c-.11,0-.22-.03-.31-.11-.45-.4-.93-.84-1.44-1.3-.22-.2-.44-.32-.68-.38-2.11-.47-4.22-1.09-6.33-1.85-.06-.02-.12-.02-.17.01l-1.04.56c-.11.06-.18.18-.17.31l.13,2.31c0,.07-.02.13-.07.18l-.51.5c-.07.07-.16.1-.26.09-.92-.06-1.82-.13-2.75-.12-1.03.02-2.05.04-3.08.06-.06,0-.11-.02-.15-.06l-.81-.7c-.08-.07-.19-.1-.3-.09l-4.56.63s-.1,0-.13-.04l-4.08-3.62c.09-.84.21-1.7.34-2.57.08-.53.25-.94.53-1.36.07-.11.18-.18.31-.21.3-.06.59-.12.86-.17.35-.07.47-.29.37-.66-.11-.39-.09-.71.06-.97.1-.17.29-.41.57-.72.61-.67,1.28-1.43,2.01-2.27.05-.06.11-.12.17-.18.32-.3.13-.77,0-1.12-.07-.21-.01-.37.19-.47l.59-.31c.09-.04.14-.13.13-.23-.06-.92-.13-1.91-.23-2.96-.01-.17-.1-.26-.27-.29-.13-.02-.25,0-.38.04-.07.02-.14-.01-.16-.08-.01-.03,0-.07,0-.1l.22-.44c.03-.05.03-.11.03-.17-.02-.18-.07-.35-.14-.51-.29-.66-.58-1.3-.85-1.93-.05-.11-.15-.18-.27-.19l-2.07-.14c-.43-.03-.76-.4-.73-.83,0-.08.02-.16.05-.23l1.47-3.82c.07-.18.1-.38.08-.58l-.17-1.68c-.01-.12.06-.23.18-.27l2.67-.82c.1-.03.2.02.23.12,0,.02,0,.03,0,.05,0,.22.05.46.13.7.06.17.24.26.41.2.02,0,.04-.01.06-.02.24-.13.5-.27.76-.39.39-.19.47-.56.46-.95,0-.12.09-.23.22-.23.01,0,.03,0,.04,0,.24.04.47.08.71.13.25.05.52.02.61-.25.07-.19.16-.38.28-.56.13-.2.3-.14.51-.12.76.09,1.53.17,2.29.26.74.09,1.45-.49,2.03-.87.26-.17.55-.24.85-.21.89.08,1.8.19,2.72.32.12.02.23,0,.33-.05.49-.22,1.05-.42,1.37-.84.31-.41.61-.81.91-1.2.09-.12.24-.19.39-.18.25.01.5.02.74.02.27,0,.39-.14.37-.41-.01-.13-.06-.25-.14-.35-.43-.53-.18-.84.19-1.27.34-.39.67-.79.99-1.19.51-.63-.26-.81-.66-1.03-.05-.03-.08-.07-.1-.12-.07-.21-.06-.42.03-.61.02-.05.06-.08.11-.09l2.53-.64c.19-.05.31-.24.26-.43,0,0,0,0,0,0-.25-.95-.56-1.99-.93-3.13-.07-.2-.01-.37.16-.5.74-.56,1.3-1.16,1.7-1.78.31-.49.71-.96,1.04-1.42.08-.11.18-.2.29-.26l2.12-1.19c.14-.08.21-.23.18-.38l-.19-.96c-.03-.14.03-.29.15-.37.43-.29.85-.59,1.28-.91.11-.09.19-.2.24-.33.4-1.23.66-2.43.79-3.6.01-.13.12-.23.25-.24.6-.04,1.3-.1,2.09-.18.25-.03.46.04.63.2.74.69,1.52,1.37,2.35,2.04.1.08.24.1.36.04.57-.28,1.12-.56,1.66-.84.23-.12.46-.18.69-.18.63,0,1.23.02,1.81.03.1,0,.18.08.19.17l.2,1.39c.03.24.12.47.25.67l1.22,1.85c.07.11.09.25.05.37l-.56,1.78c-.05.17-.03.36.07.51l1.2,1.86c.11.17.35.23.52.12l1.7-1.05c.13-.08.29-.1.44-.05.65.21,1.3.39,1.96.56.26.06.46,0,.61-.22.35-.49.76-.95,1.13-1.46.23-.31.42-.7.57-1.15.25-.78.53-1.62.84-2.51.07-.19.18-.36.33-.5l1.12-1.02c.12-.11.3-.11.42,0,.33.29.68.56,1.06.83.53.37.7,1.09.82,1.67.08.39.52.59.82.78.08.06.13.16.11.25-.07.36-.21.81-.03,1.15.31.59.6,1.17.88,1.73.06.13.16.23.28.3.17.09.37.03.46-.14,0,0,0-.02.01-.03l2.46-5.66s.03-.03.06-.02c0,0,.01,0,.02.01l.34.39c.11.13.31.15.44.03,0,0,0,0,0,0l2.75-2.35c.07-.06.18-.07.26-.02.24.15.39.34.45.57.15.54.31,1.14.47,1.8.05.19.21.34.41.38l2.45.44c.19.03.37-.09.41-.28,0-.02,0-.04,0-.05v-.62c.02-.08.07-.14.15-.15.28-.03.52.05.73.24.91.81,1.87,1.61,2.88,2.4.21.17.34.32.39.59.14.73.29,1.45.44,2.17.15.7.31,1.25.5,1.63.89,1.84,1.7,3.51,2.44,4.99.09.18.23.33.42.45.95.59,1.88,1.17,2.79,1.73.17.11.38.11.55,0l2.07-1.3s.06,0,.07.02c0,0,0,.02,0,.03.01.15.03.3.04.44.02.17.07.28.16.33.36.23.81-.32,1.04-.52.18-.16.37-.25.55-.27.3-.04.59.01.85.16.59.33,1.16.65,1.72.95.15.08.28.21.37.36l.66,1.18c.08.15.13.32.14.5l.05,1.65c0,.19.08.37.22.5l1.94,1.87c.15.14.16.29.01.44-.82.87-1.61,1.67-2.36,2.41-.06.05-.13.15-.24.29-.19.25-.41.47-.46.81-.17,1.17-.35,2.28-.55,3.31-.03.15-.17.24-.32.22-.02,0-.05-.01-.07-.02-.24-.12-.49-.16-.76-.14-.06,0-.12.03-.16.08l-1.66,1.86c-.1.11-.13.27-.08.41l.22.63c.02.05-.01.11-.06.12,0,0,0,0,0,0l-1.69.5c-.16.05-.3.15-.4.3-.39.6-.78,1.2-1.18,1.83-.2.31-.87.08-1.04-.18-.37-.56-.7-1.11-.99-1.63-.08-.14-.24-.21-.4-.17-.99.26-2.01.53-3.06.81-.31.08-.71.31-1.2.68-.84.64-1.72,1.29-2.65,1.96-.61.44-1.14.9-1.59,1.38-.55.59-1.11,1.2-1.67,1.83-.14.15-.31.23-.52.23-.78.01-1.5.03-2.15.04-.12,0-.24.04-.34.12-1.21.89-2.79,1.86-3.54,3.33-.51,1.01-1.06,2.02-1.65,3.05-.17.29-.26.62-.29.96-.07.9-.11,1.81-.12,2.73-.03,2.6.01,5.17.13,7.72,0,.18.06.42.19.56.49.52.94,1.1,1.35,1.73Z"/>
        <path class="cls-6" d="M200.48,232.1c.01.33.04.65.08.96.08.67-.32,1.37-.53,2-.08.23-.2.42-.37.56-.28.23-.79.46-.86.84-.03.16.07.31.23.34.02,0,.03,0,.05,0h.66c.16.02.21.09.15.24l-1.96,4.67c-.04.09-.1.12-.2.1-.88-.22-.57-1.23-1.3-1.45-1.24-.37-2.49-.73-3.73-1.09-.29-.09-.53-.17-.77-.4-.43-.4-.82-.74-1.19-1.04-.35-.29-.4-.8-.12-1.15.05-.07.12-.12.19-.17.49-.32.99-.65,1.53-1,.13-.08.17-.21.14-.38-.02-.11-.11-.2-.23-.22l-3.29-.61c-.06-.01-.09-.07-.08-.12,0,0,0-.01,0-.02l.92-2.23c.04-.1.06-.22.04-.33l-.39-2.22c-.04-.2-.23-.34-.43-.3-.02,0-.04,0-.06.02l-1.9.68s-.1,0-.12-.05c0-.02,0-.04,0-.06l.7-2.01c.04-.12.13-.23.24-.3l.74-.48c.18-.11.23-.35.11-.53-.03-.05-.08-.1-.13-.13l-2.84-1.59c-.08-.05-.14-.13-.16-.22l-.28-1.43c-.03-.13.03-.26.13-.34l1.68-1.19c.16-.12.2-.34.09-.51,0-.01-.02-.02-.03-.04l-1.44-1.58c-.1-.11-.26-.14-.4-.08-.09.04-.18.06-.26.06-.13,0-.23-.1-.24-.22,0-.06.02-.11.05-.16l1.5-1.81c.08-.1.12-.22.11-.35-.02-.31-.05-.62-.08-.92-.04-.38.21-.68.42-.97.45-.62.96-.14,1.43-.47.05-.04.09-.09.1-.15.07-.3.15-.88.47-1,1.28-.45,2.54-.92,3.76-1.39.19-.07.36-.21.48-.38l1-1.47c.07-.11.18-.15.31-.13l2.97.47c.19.03.38-.1.41-.3,0-.02,0-.04,0-.06-.05-2.23-.12-4.39-.19-6.48,0-.21.15-.43.48-.66.05-.04.11-.06.17-.06.47,0,.73.2.8.61.19,1.18.59,2.43.53,3.7-.04,1.07-.1,2.02-.16,2.87-.03.41-.02.72.24,1.06.4.54.8,1.1,1.19,1.68.09.14.16.29.18.46l1.43,9.49c.02.17,0,.33-.06.49-.6,1.38-1.23,2.76-1.89,4.13-.1.2-.15.43-.15.67-.02,1.16,0,2.13.07,2.92.03.39.06.8.08,1.23Z"/>
      </g>
      <text class="cls-9" transform="translate(116.51 67.98)"><tspan x="0" y="0">1</tspan></text>
      <text class="cls-9" transform="translate(152.71 145.3)"><tspan x="0" y="0">2</tspan></text>
      <text class="cls-9" transform="translate(82.27 145.3)"><tspan x="0" y="0">3</tspan></text>
    </g>
    <circle class="cls-7" cx="194.54" cy="222.3" r="5.26"/>
    <circle class="cls-7" cx="106.22" cy="95.45" r="5.26"/>
    <circle class="cls-7" cx="156.35" cy="102.55" r="5.26"/>
    <circle class="cls-7" cx="82.71" cy="58.23" r="7.89"/>
    <circle class="cls-7" cx="124.5" cy="37.5" r="7.89"/>
    <circle class="cls-7" cx="32.75" cy="77.13" r="7.89"/>
    <circle class="cls-7" cx="170.61" cy="64.95" r="7.89"/>
    <circle class="cls-7" cx="64.47" cy="92.88" r="7.89"/>
    <circle class="cls-7" cx="181.39" cy="182.91" r="7.89"/>
    <circle class="cls-7" cx="82.71" cy="145.46" r="9.64"/>
    <circle class="cls-7" cx="111.49" cy="190.8" r="9.64"/>
    <circle class="cls-7" cx="156.35" cy="143.66" r="11.87"/>
    <circle class="cls-7" cx="117.93" cy="64.95" r="11.87"/>
  </g>
  <g>
    <g>
      <g>
        <rect class="cls-8" x="16.25" y="270" width="78.55" height="62.71"/>
        <rect class="cls-8" x="94.79" y="247.83" width="79.18" height="84.88"/>
        <rect class="cls-8" x="173.97" y="280.13" width="78.55" height="52.57"/>
      </g>
      <text class="cls-4" transform="translate(113.25 285.11)"><tspan x="0" y="0">Au</tspan><tspan class="cls-11" x="12.36" y="0">v</tspan><tspan x="17.35" y="0">ergne</tspan><tspan x="7.08" y="12">Rhne</tspan><tspan x="9.03" y="24">Alpes</tspan></text>
      <text class="cls-4" transform="translate(26.33 306.42)"><tspan x="0" y="0">le-de-</tspan><tspan class="cls-2" x="28.64" y="0">F</tspan><tspan class="cls-1" x="34" y="0">r</tspan><tspan x="37.84" y="0">ance</tspan></text>
      <text class="cls-4" transform="translate(196.11 303.92)"><tspan x="0" y="0">Nou</tspan><tspan class="cls-10" x="18.68" y="0">v</tspan><tspan x="23.67" y="0">elle</tspan><tspan x="-1.7" y="12">Aquitaine</tspan></text>
    </g>
    <text class="cls-5" transform="translate(122.25 241.81)"><tspan x="0" y="0">321</tspan></text>
    <text class="cls-5" transform="translate(43.39 262.38)"><tspan x="0" y="0">304</tspan></text>
    <text class="cls-5" transform="translate(201.11 275.16)"><tspan x="0" y="0">227</tspan></text>
  </g>
</svg>