<?xml version="1.0" encoding="UTF-8"?>
<svg id="Calque_1" data-name="Calque 1" xmlns="http://www.w3.org/2000/svg" viewBox="0 0 73.82 59.8">
  <defs>
    <style>
      .cls-1 {
        fill: #ffc100;
        stroke: #000;
        stroke-miterlimit: 10;
      }

      .cls-2 {
        opacity: .6;
      }
    </style>
  </defs>
  <g id="TitrePrincipal">
    <g class="cls-2">
      <path class="cls-1" d="M38.2,6.95s0,.04.02.04h.01l.27-.06c.06-.01.11.02.12.07h0s.15,1.02.15,1.02c0,.04.04.08.08.1l.48.22s.06.04.07.07l.19.55s.02.03.04.04l.14.03s.03.02.02.04l-.57.97s0,.05.01.07l.66.54s.02.03-.01.03l-.35.02s-.04,0-.06.02c-.14.13-.36.31-.42.49-.05.16-.1.32-.16.47,0,.01-.02.03-.03.04l-.54.23s-.04.01-.06,0l-.26-.06c-.07-.01-.09.01-.08.08l.1.41c.01.05.04.09.1.1l.31.07c.06.01.09.07.08.13,0,.01,0,.02-.01.03l-.1.17s-.03.03-.06.03h-.43s-.07.02-.09.05l-.69,1.16s-.03.03-.04.04c-.11.05-.31.07-.34.2-.04.16-.14.22-.29.17-.02,0-.04,0-.05,0-.25.15-.49.3-.74.45-.16.09-.23.3-.32.45-.01.02-.03.03-.05.02-.16-.04-.33-.01-.49-.03-.25-.03-.49-.06-.74-.09-.13-.01-.28,0-.42.06-.07.02-.1,0-.15-.04-.16-.15-.41-.38-.76-.71-.02-.02-.04-.03-.07-.03-.16-.02-.32-.07-.48-.15-.04-.02-.08-.01-.11.02l-.39.39s-.03.02-.05.01l-.28-.07s-.04,0-.06.02l-.31.55s-.02.01-.03.01c0,0,0,0,0,0l-.11-.15s-.03-.03-.06-.02l-.2.04s-.04,0-.06-.01c-.1-.07-.18-.16-.29-.21-.15-.06-.28-.12-.42-.17-.03-.01-.06,0-.07.01l-.35.36s-.02.03-.01.05l.1.33s0,.03-.02.04c-.2.07-.41.13-.61.19-.12.03-.22.08-.3.15-.5.38-1.03.74-1.48,1.17-.21.2-.42.4-.63.59-.03.02-.04.02-.04-.01l-.03-.36s0-.07.03-.09c.06-.06.1-.12.14-.17.01-.02.01-.04,0-.06l-.17-.52s0-.05.01-.07l.19-.23s.02-.03.02-.05v-.45s-.02-.05-.04-.05l-1.02-.18s-.01-.01-.01-.02h0c.03-.07.07-.14.1-.21.09-.18,0-.44-.04-.63-.02-.1-.06-.2-.13-.3-.09-.13-.17-.31-.3-.37-.19-.1-.35-.2-.57-.24-.21-.04-.39-.07-.57-.11-.19-.04-.31-.22-.27-.41h0s.14-.57.14-.57c0-.02,0-.04,0-.06l-.17-.5s-.04-.04-.06-.03c0,0-.01,0-.02.01l-.42.44s-.04.02-.06.01l-.69-.27s-.08,0-.1.03l-.4.58s-.03.02-.04,0l-.17-.26s-.04-.03-.07-.02c-.16.08-.31.16-.47.25-.08.04-.17.07-.25.07-.2.01-.38.03-.56.04-.01,0-.03,0-.03.02l-.06.08s-.03.01-.04,0h0c-.39-.36-.73-.74-1.02-1.15-.02-.03-.05-.04-.07-.03l-.28.07s-.04,0-.06,0c-.12-.04-.23-.09-.35-.15-.14-.06-.27-.02-.41,0-.03,0-.04,0-.06-.03l-.04-.07s-.03-.03-.05-.04l-.29-.04s-.05,0-.07.01l-.2.14s-.03.01-.05,0l-.76-.95s-.02-.04-.01-.07l.04-.15s0-.06-.03-.07l-.17-.12s-.04-.01-.06,0l-.86.77s-.03.04-.03.07l-.05.6s-.01.03-.03.03l-.39.06s-.04.01-.06.03l-.17.16s-.04.02-.02-.01l.07-.19s0-.04,0-.06l-.1-.48s-.02-.04-.04-.05l-.2-.13s-.03-.03-.02-.05l.47-1.19s0-.07-.03-.08l-.75-.35s-.03-.03-.03-.05l-.02-.17s-.01-.04-.03-.05l-.55-.36s-.03-.02-.06-.02c-.12,0-.22-.01-.34.02-.19.06-.39.12-.59.18-.02,0-.04.03-.03.06l.07.28s0,.04,0,.06l-.15.33s-.03.03-.05.03h-.68s-.04,0-.07-.02l-.35-.27s-.03,0-.03,0c-.09.11-.17.23-.26.36-.08.12-.06.24-.07.37,0,.03-.01.04-.04.03l-.42-.02s-.04-.01-.06-.03l-.07-.06s-.05-.02-.07,0l-.22.23s-.03.02-.06,0l-.91-.57s-.03-.03-.02-.05l.1-.36s0-.04-.01-.06c-.16-.17-.31-.36-.5-.48-.1-.06-.19-.13-.29-.2-.07-.05-.15-.08-.25-.09-.22-.03-.44-.06-.66-.1-.04,0-.07,0-.11.01-.26.1-.52.2-.79.31-.09.03-.15.09-.23.14-.02.01-.03,0-.04-.01l-.12-.23s0-.04.01-.06l.44-.34s.05-.07,0-.11l-.06-.04s-.03-.03-.03-.06c0-.1.01-.2.02-.31,0-.07.04-.16.11-.26.27-.39.55-.79.82-1.18.09-.13.21-.25.32-.37.01-.01.02-.03.02-.05l-.06-.53s0-.04.01-.06l.36-.63s.01-.04,0-.05l-.06-.08s-.02-.04,0-.07l.24-.57s.01-.04,0-.06l-.07-.28s0-.05.01-.07l.13-.18s.02-.04.02-.06c0-.11-.01-.23-.03-.35,0-.07,0-.14.03-.2.06-.12.11-.25.16-.37,0-.01,0-.03,0-.05-.03-.11-.09-.26-.06-.36.02-.07.04-.13.06-.2.02-.06.06-.11.13-.16.21-.18.42-.36.63-.55.06-.05.11-.12.15-.2.05-.11.12-.22.2-.34.04-.06.09-.07.16-.03l.79.59s.01.02,0,.03c-.04.04-.07.09-.07.14-.02.14-.03.27-.05.41,0,.02-.01.03-.03.04l-.58.26s-.04.04-.04.06v.16s.01.05.04.06c.12.06.31.07.29.24,0,.07,0,.13.03.19,0,.02.02.03.04.03l.36.08s.03.02.04.04l.1.58s.02.05.04.06l.41.24s.07.02.1,0l.66-.48s.03-.01.05,0l.51.25s.05,0,.06-.02l.11-.17s.04-.03.06-.01h0l.55.42s.07.03.1.03l.4-.05s.03,0,.04.02l.12.2s.01.04,0,.07l-.08.26s0,.06.03.06c.01,0,.03,0,.04,0,.22-.12.44-.26.69-.31.23-.05.48-.1.73-.15.01,0,.02,0,.03.01l.15.57c.01.05.04.07.1.05l1.67-.51s.04,0,.06,0c.03.01.04.03.06.06s.04.04.07.04c.09,0,.17,0,.26,0,.18,0,.35-.09.52-.14.08-.03.15-.07.2-.14.09-.11.19-.22.28-.32.01-.01.04-.02.06-.01l.78.38s.06.01.09-.01c.23-.2.45-.39.65-.57.15-.13.34-.16.52-.21.07-.02.13-.06.21-.12.16-.12.31-.26.5-.32.14-.04.28-.09.41-.14.16-.06.26-.18.38-.29.01-.01.03-.01.05,0,.01,0,.01.01.02.03,0,.02.02.03.03.03l.23.07s.05.03.06.06l.16.71s.04.06.07.07c.17.03.34.05.51.09.19.04.39-.03.56-.1.04-.01.09,0,.12.03l.27.32s.04.02.06,0l.08-.07s.04-.02.06-.01c.13.04.26.05.35.15.07.07.14.13.2.19.02.01.02.04,0,.06l-.13.16s-.03.07,0,.11l.2.32c.05.08.15.1.23.05,0,0,.01,0,.01-.01l.31-.25s.03-.04.03-.07c0-.04-.01-.08-.03-.11-.03-.07,0-.09.06-.05.09.05.19.11.29.09.16-.02.32-.04.49-.06.19-.02.36-.12.52-.2.01,0,.04,0,.05.01l.36.57s.01.05,0,.07c-.17.18-.35.37-.54.56,0,0-.01.02-.01.03,0,.02.01.03.03.04.25.04.48.08.7.12.11.02.22.02.32,0,.12-.02.22-.04.32-.07.02,0,.04-.01.05-.03l.19-.19s.03-.02.05,0c.07.06.12.07.21.05.19-.05.39-.1.58-.15.03,0,.04-.03.05-.05l.07-.44s.01-.04.03-.06l.33-.36s.02-.03.02-.04l.04-.27s.02-.04.04-.04c.17-.06.39-.04.58-.02.02,0,.03.01.04.03l1.24,1.89s.06.03.08.02c0,0,.01,0,.01-.01l.44-.55s.03-.02.05,0l.65.45s.07.03.11.02l.46-.1s.04,0,.06,0l.93.31s.03.03.02.04c-.06.17-.11.35-.16.52,0,.02,0,.03.01.05.01.01.04.02.06.01l.7-.31s.1,0,.12.04c0,0,0,.01,0,.02v.07s.02.04.04.05c.15.09.3.17.45.25.04.02.07.07.05.12-.01.04,0,.08.04.09l.61.25c.13.05.19.2.14.33,0,.02-.02.04-.03.06l-.33.44s0,.03,0,.04c0,0,0,0,.01,0l1.38.37c.06.01.1,0,.1-.07l.1-.93s.01-.03.03-.04l.14-.08s.06-.01.04.04v.04s0-.01,0-.01Z"/>
      <path class="cls-1" d="M37.62,35.53h-.16s-.05-.01-.06-.04l-.1-.39s0-.05.02-.07l.74-.65s.03-.04.03-.07l.04-.6s-.01-.04-.03-.06l-.5-.29s-.05-.04-.07-.08l-.23-.6c-.02-.06,0-.12.06-.15,0,0,.02,0,.03,0l.65-.09s.03-.01.04-.04c.02-.12.04-.26.04-.39,0-.16.11-.28.2-.4.02-.03.01-.07-.01-.09l-.42-.35s-.02-.03,0-.05l.42-.67s.03-.03.05-.03l.21-.03s.04,0,.06.01l.2.14s.1.02.14-.02l.26-.29s.03-.03.06-.03l.3-.04s.04-.02.03-.04h0l-.13-.64s-.02-.04-.04-.06l-.2-.09s-.02-.02-.01-.04l.17-.29s.01-.04,0-.06c-.01-.03-.04-.04-.06-.06-.02-.01-.03-.03-.04-.04l-.19-.35s-.01-.04,0-.06c.11-.19.22-.38.34-.58.06-.11.14-.2.23-.28.11-.09.21-.19.32-.29.02-.02.02-.04.01-.07l-.22-.58s0-.04.01-.06l.36-.3s.02-.03.02-.05l-.06-.41s0-.04.03-.04l.49-.02s.06-.03.06-.06c0,0,0-.01,0-.02l-.27-.6s-.04-.04-.07-.04l-.47.03c-.06,0-.11-.04-.11-.1,0-.01,0-.03,0-.05l.36-.88s0-.06-.02-.09l-.19-.16s-.02-.03-.01-.05c.06-.12.1-.24.14-.36.02-.06,0-.09-.06-.11-.04,0-.05-.03-.04-.07l.1-.27s0-.04,0-.06c-.15-.45-.28-.89-.45-1.32-.09-.22-.18-.44-.27-.64-.01-.02,0-.04.02-.05l.22-.1s.03-.03.04-.04l.15-.44s0-.06-.03-.06h-.01l-.57-.05s-.04-.01-.03-.04l.07-.57s0-.04-.02-.05l-.33-.29s-.02-.03,0-.04c.1-.09.16-.17.3-.22.19-.07.38-.14.56-.2.03-.01.05-.04.04-.07l-.03-.29s0-.04.02-.06l.2-.26s.02-.06,0-.09l-.06-.05s-.02-.03-.02-.06l.1-.69s.02-.05.04-.06c.1-.05.19-.11.29-.17.03-.02.04-.05.04-.09-.01-.09,0-.18,0-.27,0-.02-.01-.04-.03-.05l-.17-.14s-.03-.03-.04-.06c-.03-.13-.06-.25-.09-.38-.02-.1-.06-.21-.13-.31-.26-.39-.52-.8-.78-1.2-.04-.07-.03-.11.05-.14l.23-.08s.04-.02.04-.04l.13-.29s.01-.03,0-.05l-.15-.69s-.02-.04-.04-.05l-.09-.04s-.03-.03-.04-.04l-.18-.51s-.03-.04-.06-.03l-.36.11s-.04,0-.05-.02l-.03-.06s-.04-.04-.06-.05l-.33-.08s-.05-.03-.06-.06l-.07-.31s0-.03.02-.04h.02c.12.04.22.06.35.01.17-.07.34-.14.51-.21.02-.01.04-.03.05-.06.06-.16.11-.32.16-.48.03-.09.08-.17.15-.24.07-.07.15-.15.22-.22.01-.01.03-.02.04-.02l.48-.02s.04-.02.04-.04,0-.03-.02-.04c-.23-.19-.47-.39-.7-.58-.01-.01-.02-.03,0-.04.19-.32.36-.61.52-.88.07-.12.14-.2.22-.27.11-.09.22-.18.33-.27.11-.09.14-.21.17-.33,0-.02.03-.03.04-.03h.26s.04,0,.05-.03l.41-.62s.03-.01.04,0c0,0,0,0,0,.01l.19.34s.04.04.07.04c.12,0,.29-.05.39.03.23.19.46.38.69.55.22.18.41.38.61.58.01.01.02.03.01.05l-.07.41s.01.06.04.07l.42.15s.07,0,.09-.02l.64-.72s.03-.01.04,0c0,0,0,0,0,.01l.31.9s.05.06.09.05c.25-.04.5-.08.75-.11.07-.01.13-.04.19-.08.25-.2.51-.39.76-.58.05-.03.04-.07,0-.1l-.35-.24c-.08-.06-.07-.08.03-.07.13.01.27.02.42.01.03,0,.05-.02.04-.05,0,0,0-.01,0-.02l-.1-.19s0-.04.02-.06h0c.09-.03.17-.04.25-.09.16-.1.32-.2.49-.31.01,0,.02,0,.03,0,.16.18.32.36.47.53.1.11.2.13.33.18.12.04.25-.02.36-.06.02,0,.04,0,.05.02l.34.69s.04.04.08.04c.13-.01.28-.03.42-.04.09,0,.16-.03.24-.08.15-.1.29-.19.44-.28.04-.03.09-.03.13,0,.06.04.12.03.15-.03.05-.1.1-.2.15-.3.01-.03.04-.04.07-.03l.69.33s.04.01.06,0l.26-.08s.03,0,.04,0c.04.01.07.03.09.06.01.01.03.02.05.02l.16-.03s.05-.03.06-.06l.07-.34c.01-.06.04-.08.1-.04.11.06.2.07.29.03.09-.04.18-.09.27-.15.06-.03.13-.01.17.04,0,.01.01.03.01.04l.09.64s.02.04.04.05l.42.12c.06.01.09,0,.1-.06l.12-.52s.01-.04.03-.05c.17-.14.37-.24.58-.31.04-.01.08-.01.12,0,.15.04.31.1.47.16.09.03.17.01.24-.04.02-.01.04-.01.06-.01.32.05.65.1.97.15.04,0,.07,0,.09,0,.02,0,.04-.03.03-.06,0,0,0,0,0-.01-.11-.17-.21-.35-.32-.52-.02-.03-.03-.1-.03-.22,0-.07.02-.13.06-.2.14-.21.28-.42.41-.63,0-.01.03-.02.04,0h0c.09.07.18.2.29.22.36.08.72.17,1.06.25.1.03.19,0,.28-.05.03-.01.05-.01.06.01.03.04.06.07.1.07h.35c.12,0,.18.05.26.13.08.08.17.15.26.21,0,0,.01,0,.02,0l.42.04s.03.01.02.03l-.28.64s-.01.04,0,.06c.02.06.04.12.07.18.07.18.28.18.38.34.15.23.29.46.43.69.01.02.01.04.01.06l-.02.19s0,.08.04.1l.28.27s.04.09,0,.13c0,0-.02.01-.03.02l-.23.09s-.05.03-.05.06l-.12.6s-.03.06-.05.07l-.37.21s-.03.03-.03.05l-.02.31s0,.05.02.07l.28.37s.03.03.04.03c.27.1.54.2.82.3.13.05.21.16.3.26.1.11.1.24.15.38,0,.02.02.03.04.04.13.05.27.1.41.15.04.01.07.05.07.11,0,.03.02.05.05.06.03,0,.05,0,.07-.02.01-.01.03,0,.04,0,0,0,0,.01,0,.01l.06.51s.03.06.06.06l.55.12s.04.02.05.04l.43,1.21s0,.04,0,.06l-.07.16s0,.04,0,.06l.16.29c.05.09.15.13.24.1.11-.03.22-.06.33-.09.1-.03.2-.07.29-.13.17-.1.33-.2.49-.3.02-.01.04,0,.05.01h0c.05.15.11.29.17.44.04.1.06.2.06.29,0,.2,0,.39.02.58,0,.03.01.07.04.09l.57.66s.04.02.06.01l1.06-.6s.04-.03.05-.06l.12-.28s.03-.04.04,0l.21.82s0,.04,0,.06l-.16.66s0,.04.01.06l.32.34s.05.07.05.12l.03.57c0,.12.11.22.23.21.02,0,.04,0,.06-.01l.43-.15s.02,0,.03.01h0s-.16.36-.16.36c-.01.03,0,.06.03.07h0l.28.12s.09.02.13,0l.39-.16s.04,0,.05.01l.15.23s.02.03.04.03l.75.25s.03.03.02.04h0l-.22.61s0,.06.03.07l.55.23s.08,0,.09-.04l.25-.55s.04-.04.06-.05l.37-.06s.04,0,.04.03l.19.78s0,.04,0,.06l-.19.43s-.01.03,0,.05c.01.14.04.3.06.47.01.07-.06.1-.1.14-.02.01-.05.01-.07,0,0,0,0,0,0,0l-.15-.26c-.06-.11-.2-.15-.31-.09l-.76.41s-.06.02-.09.02c-.11-.01-.21-.02-.31-.03-.1-.01-.19-.04-.25-.08-.11-.07-.22-.13-.34-.19-.02-.01-.05,0-.06.01l-.28.33c-.08.09-.07.23.03.31.01.01.03.03.05.03.17.08.32.2.52.21.17,0,.34.02.5.04.02,0,.04.02.04.04l.06.68s-.02.09-.06.1l-.34.14s-.06,0-.09,0c-.05-.03-.1-.06-.15-.09-.12-.06-.29-.03-.42-.03-.03,0-.06.02-.07.05-.13.36-.26.71-.39,1.05-.03.08-.03.16-.02.23.02.09.04.16.06.23,0,.02.02.03.04.04.15.04.3.12.45.06.17-.06.35-.12.52-.17.02,0,.04,0,.06,0l.19.13s.03.03.03.06c0,.13.01.27.01.4,0,.1.06.16.11.24.07.1.09.17.22.16.23-.02.47-.04.69-.05.02,0,.03.01.03.03h0v1.65s0,.03.02.04c.09.09.17.19.26.28,0,0,.01.02.02.03,0,.02,0,.03-.03.04-.03,0-.05.03-.06.06l-.05.47s-.01.04-.03.04c-.11.05-.22.1-.33.15-.09.04-.16.09-.21.15-.13.15-.26.31-.39.45-.02.03-.03.06-.01.09l.09.19s.01.04,0,.06c-.01.03-.04.06-.06.08-.03.03-.03.07,0,.1l.51.61s.02.04.01.06l-.25.82s0,.05.03.06h.02l.86-.15s.04-.01.06-.03l.48-.45s.05-.03.08-.02c.23.04.47.09.71.13.14.03.28,0,.4-.06.09-.04.1-.02.04.05-.09.11-.19.21-.29.31-.02.02-.02.04-.01.06.04.12.09.18.22.22.17.04.35.09.52.14.04.01.07.03.09.06l.42.42s.04.1,0,.15c-.01.01-.02.02-.04.02l-1.55.58c-.09.03-.14.14-.1.23,0,0,0,.02.01.03l.26.46s0,.04-.01.04c0,0,0,0-.01,0l-.67.1s-.07.03-.08.06l-.17.35s-.04.07-.08.09l-.58.41c-.07.05-.08.1-.04.17.16.29.32.59.49.89.06.1.08.19.07.25,0,.08-.01.17-.02.25,0,.03-.01.04-.04.05-.1.02-.21.03-.29.1-.22.18-.45.35-.67.53-.01.01-.03.02-.06.02-.1,0-.22,0-.33,0-.09,0-.2-.02-.32-.06-.18-.06-.37-.12-.55-.17-.03,0-.06,0-.08.02l-.28.25s-.03.06,0,.08c.16.2.34.42.53.64.09.1.16.22.22.35.07.18.16.36.23.53.05.11.04.22.02.33,0,.02-.02.03-.04.03-.1,0-.19-.01-.28-.02-.19-.02-.42.12-.61.2-.28.12-.52.3-.79.46-.03.01-.04.05-.02.08,0,0,0,0,0,0,.13.15.26.3.38.43.15.16-.03.32.09.49.08.12.16.23.24.34.01.02.01.04.01.06-.02.21-.03.41-.04.6,0,.15-.26.22-.3.41-.03.14-.06.28-.1.41,0,.02,0,.05.03.06l.56.17s.03.02.02.04c0,0,0,0,0,.01l-.17.22s-.01.04,0,.05c0,0,.01,0,.02,0h.47s.03,0,.04.02c.03.12.03.24,0,.35-.06.29-.12.57-.17.83,0,.02-.02.03-.04.03-.11,0-.22-.02-.33-.02-.07,0-.14-.04-.22-.1-.1-.08-.2-.15-.31-.23-.08-.06-.15-.09-.21-.09-.08,0-.15,0-.23,0-.03,0-.05.01-.07.03l-.29.36s-.02.04-.02.06l-.06.74s-.03.08-.06.11c-.02.01-.05.03-.07.04-.05.03-.07.01-.06-.04.01-.07.01-.14,0-.2,0-.02-.02-.03-.04-.04-.07-.01-.13-.01-.19,0-.01,0-.03.01-.04.03l-.15.22s-.03.03-.06.03c-.16-.02-.31,0-.45.05-.03.01-.06.01-.09,0-.14-.06-.28-.12-.42-.17-.12-.04-.19-.01-.23.1,0,.02-.03.03-.04.03h0l-.89-.4s-.04,0-.05.02l-.04.09s-.04.04-.07.04h-.23s-.04.01-.06.03l-.66.63s-.05.03-.08.02l-.76-.24s-.04,0-.06,0c-.26.06-.5.16-.73.29-.02.01-.04.01-.06,0l-.3-.23s-.04-.02-.06-.01l-.22.04s-.07-.01-.08-.04l-.08-.21s-.03-.04-.05-.06l-.32-.17s-.04,0-.06.02l-.13.26s-.03.04-.05.04l-.66.2s-.04,0-.05-.02l-.15-.22s-.03-.02-.05-.02c-.15.05-.3.1-.46.15-.09.03-.17.07-.23.13-.09.08-.19.15-.25.26-.1.21-.21.41-.32.61,0,.02-.03.02-.05.01,0,0-.01,0-.01-.01-.05-.09-.04-.23-.05-.33,0-.01-.02-.03-.03-.03h-.29s-.04,0-.06-.01l-.24-.16s-.04-.01-.06,0l-.45.16s-.04,0-.06,0l-.53-.12s-.08,0-.1.05l-.4.93s-.01.05,0,.07l.11.58s0,.04-.01.05l-.82,1.07s-.01.06,0,.09l.33.29s.02.03,0,.05l-.2.17s-.03.04-.01.07l.32.51s.01.04,0,.06l-.15.43s0,.07.04.08h0l.58.17s.03.02.04.04l.13,1.03s-.01.03-.03.03h0l-.4.03s-.08.03-.1.07c-.19.38-.38.76-.56,1.12-.14.28-.24.56-.35.86,0,.02-.02.03-.04.04l-.22.12s-.04.01-.06,0l-.23-.1s-.04,0-.06,0l-.57.27s-.05.04-.05.08l-.02.39s-.02.04-.04.05l-.44.07s-.04.01-.05.03l-.69.67s-.05.07-.04.12l.05.7s0,.03-.03.03l-2.34.37s-.06.02-.08.05c-.14.17-.27.34-.4.51-.06.09-.15.16-.26.23-.29.19-.59.38-.9.57-.02.01-.04.02-.07.01l-.52-.07s-.04-.01-.04-.03c-.04-.12-.09-.22-.08-.35,0-.23.02-.47.03-.71,0-.02,0-.04.02-.05.09-.1.18-.2.29-.31.06-.06.07-.14.05-.24,0-.02-.01-.03-.03-.04l-.38-.18s-.05-.01-.07,0l-.25.11s-.04,0-.06,0l-.24-.09s-.07,0-.1.02l-.17.15s-.1.05-.15.03c-.17-.05-.33-.03-.48.07-.03.02-.07.03-.13,0-.17-.07-.33-.13-.5-.2-.15-.06-.17-.03-.07.1.15.18.31.38.48.58.11.13.1.21.1.36,0,.02-.01.04-.03.05-.32.12-.64.24-.95.36-.09.03-.15.08-.2.13-.15.17-.29.35-.44.51-.02.03-.06.04-.09.04l-1.01-.02s-.04,0-.05.02l-.21.19s-.11.03-.15,0l-.8-.89s-.06-.03-.09-.03c-.33.09-.66.19-.98.29-.14.04-.28.07-.41.06-.23,0-.46,0-.68,0-.03,0-.04-.01-.05-.03l-.22-.41s-.03-.04-.06-.04h-1.12s-.06.01-.07.04c-.18.21-.35.41-.51.6-.03.04-.04.08-.02.13,0,.01,0,.03-.01.03h-.01c-.45-.06-.9-.12-1.34-.19-.1-.01-.2,0-.31.02-.16.04-.32.09-.49.13-.02,0-.04.02-.05.04-.01.02-.03.04-.04.05s-.04.02-.06.01l-.34-.08s-.03-.02-.03-.04l.03-.18s.01-.03.03-.04c.15-.09.29-.17.44-.26.09-.05.16-.12.22-.19.1-.15.2-.29.31-.42.01-.02.02-.05.02-.07l-.02-.23s0-.04.02-.06l.34-.44s.02-.01.03,0l.75.4s.06,0,.07-.02l.28-.41s.02-.05.01-.08l-.18-.77s0-.04,0-.07l.19-.53s.03-.05.06-.05l.09-.02s.04-.02.05-.04c.04-.11.1-.22.07-.35-.06-.25-.12-.49-.16-.72,0-.02-.01-.03-.03-.04-.02-.01-.04-.02-.06-.02s-.03-.01-.03-.03l.04-.55s-.01-.06-.04-.07l-.17-.06s-.06-.05-.07-.09l-.03-.41s-.02-.04-.04-.04l-.71-.03s-.05-.01-.07-.03c-.04-.05-.08-.1-.12-.15-.09-.1-.07-.26-.09-.39,0-.03-.01-.04-.03-.06l-.23-.21s-.05-.02-.07-.01l-.52.21s-.06,0-.09-.01l-.19-.15s-.04-.02-.06,0l-.09.03s-.04,0-.06,0c-.12-.04-.25-.07-.33-.17-.09-.11-.16-.22-.24-.35-.04-.07-.06-.16-.06-.28.01-.51.02-1.01.04-1.5,0-.04,0-.09-.03-.13-.17-.32-.36-.64-.54-.97-.04-.07-.09-.13-.14-.19-.07-.08-.17-.16-.19-.27-.02-.1-.04-.21-.06-.31,0-.03,0-.04.03-.03l.17.07s.04,0,.06,0l.6-.18s.04,0,.07,0l.41.13s.06,0,.07-.04v-.03l-.1-.61s0-.05.02-.07l.35-.44s.01-.06-.01-.09h0l-.29-.2s-.01-.03,0-.04c0,0,0,0,0,0l.26-.23s.04-.02.06-.01l.25.06s.07-.01.08-.05v-.02l-.02-.26s0-.03.02-.03l1.08-.43s.04-.04.03-.07c0,0,0,0,0-.01l-.25-.34s0-.03,0-.04l.33-.27s.04-.02.06-.01l.61.09s.08,0,.12-.03l.46-.4s.05-.03.08-.02l.78.14c.1.02.12-.01.06-.09l-1.01-1.35s-.03-.03-.05-.04l-.33-.09s-.03-.02-.03-.04l-.03-1.17s0-.04-.02-.05l-.16-.14s-.02-.04,0-.07c0,0,0,0,.01-.01l.22-.11s.03-.03.03-.05l-.11-1.16s0-.04.02-.05l.22-.18s.03-.03.03-.05c.09-.34.1-.72.13-1.09,0-.02,0-.03-.02-.04-.03-.02-.07-.03-.11-.02-.03,0-.06,0-.06-.04l-.05-.23s-.02-.04-.04-.04l-.22-.06s-.03-.02-.03-.05l.39-1.24s0-.06-.03-.06h-.24s-.01,0-.01-.01h0c.18-.29.36-.56.53-.83.09-.13.08-.25.11-.39,0-.02.02-.04.04-.05l.3-.19c.14-.09.13-.13-.04-.13h-.02Z"/>
      <path class="cls-1" d="M25.65,23.69c-.02.06,0,.09.06.08l.59-.05s.06,0,.07.03l.16.17s.02.03.02.05l.03.29s.02.04.04.05l.37.11c.09.03.16.12.15.21,0,.1,0,.19.01.29,0,.07-.05.14-.13.15h0l-.46.02s-.04,0-.05-.02l-.18-.18s-.04-.03-.06-.03l-.27-.02c-.1,0-.2.07-.21.17,0,.03,0,.06.01.09l.13.36s0,.04,0,.06l-.09.37s-.02.03-.03.02h0l-.4-.14s-.04,0-.06,0c-.11.06-.22.12-.33.19-.14.09-.29.06-.44.06-.03,0-.05,0-.07.02l-.4.29s-.03.03-.03.05c-.01.13-.05.26-.13.39-.01.02-.03.03-.05.02l-.49-.19s-.04,0-.06,0c-.19.06-.37.13-.56.22-.05.03-.07.09-.05.14h0s.3.54.3.54c.01.02.01.05,0,.07l-.08.26s0,.05,0,.07l.05.1s0,.04,0,.06c-.13.2-.26.41-.39.61-.06.1-.06.2-.03.31,0,.04,0,.04-.03.02l-.19-.14s-.04,0-.05.01c0,0,0,0,0,0l-.23.59s-.02.02-.03.01h0l-.33-.15s-.04,0-.06,0l-.07.06s-.03.02-.06.02h-.64s-.09.03-.1.07l-.09.25s-.02.03-.04.03c-.1,0-.19.02-.27.09-.01.01-.02.03-.03.04l-.22,1.01s-.02.03-.05.03l-.39-.09s-.05.01-.06.03h0l-.06.3s0,.04,0,.06l.27.56s.05.06.08.06l.41.03s.04.02.04.04c0,.1.01.21.02.32.01.15.16.34.26.44.15.14.31.28.45.42.01.01.02.04.02.06l-.07.37s-.02.04-.05.05l-.6.14s-.05.03-.06.06c-.03.15-.08.29-.06.43.02.12.04.23.06.34,0,.03,0,.06-.02.08l-.39.44s-.06.09-.07.14l-.15.95s-.01.03-.04.03h-1.1s-.05,0-.06.03l-.07.07s-.04.03-.07.01c-.13-.07-.26-.14-.39-.22-.09-.05-.18-.08-.26-.09-.24-.02-.47-.04-.71-.07-.04,0-.08.02-.09.06l-.13.65s0,.04.02.06l.95.71s.04.02.06.02l.39.02s.04.01.04.04v.2s0,.04-.02.04l-.2.05s-.05,0-.07-.01l-.07-.06s-.04-.02-.07,0l-.36.21s-.04.03-.05.06c-.19.42-.39.86-.6,1.3-.04.09-.07.19-.07.29,0,.14-.01.28-.02.41,0,.05-.01.1-.02.15,0,.02-.01.03-.03.04-.12.04-.26.06-.34.16-.06.07-.12.14-.17.21-.01.02-.02.04-.02.06l-.02.52s0,.04.01.06l.15.24s.01.04.01.06l-.07.38s-.01.04-.04.04l-.26.07s-.03.01-.04.03l-.17.23s-.04.04-.07.04c-.26,0-.52.02-.77-.03-.11-.02-.22-.03-.33-.01-.02,0-.04,0-.06-.02-.12-.08-.23-.19-.38-.23-.11-.02-.21-.04-.31-.07-.02,0-.04-.02-.04-.04-.18-.33-.31-.67-.39-1,0-.03-.04-.06-.07-.06-.23,0-.46.01-.69.03-.11,0-.23-.02-.36-.09-.02,0-.03-.02-.03-.04,0-.06,0-.13-.02-.2-.03-.12-.14-.19-.22-.28-.01-.01-.02-.03-.01-.05l.06-.2s0-.04-.01-.06l-.28-.35s-.01-.03-.01-.06l.08-.27s0-.04,0-.06c-.11-.21-.23-.44-.36-.67-.04-.07-.06-.15-.06-.24,0-.24-.04-.49.03-.72.13-.43.25-.85.37-1.27,0-.02,0-.04-.03-.05h-.02l-.27.05s-.05,0-.07-.03c-.09-.11-.19-.23-.29-.34-.14-.15-.15-.38-.2-.57,0-.03-.03-.06-.07-.08l-.42-.2s-.04-.01-.06,0l-.26.11s-.04,0-.06,0l-.89-.24s-.05-.04-.04-.08c0,0,0,0,0-.01.01-.02.01-.04,0-.07,0-.02-.01-.03-.03-.04-.07-.04-.14-.09-.21-.14-.02-.01-.02-.03-.01-.05l.55-1.06s.01-.06,0-.09l-.09-.29s-.03-.04-.05-.04c-.26-.02-.51-.04-.77-.07-.06,0-.1.02-.13.07-.01.02-.03.03-.05.01-.01,0-.03-.02-.04-.03-.02-.03-.01-.04.01-.06l.16-.07s.03-.03.02-.05c0-.01-.01-.02-.02-.02l-.29-.1h-.04l-.48.24s-.05,0-.06-.01c-.06-.09-.12-.17-.18-.26-.09-.12-.08-.21-.09-.34,0-.15-.14-.2-.23-.29-.01-.02-.02-.04-.01-.06l.06-.22s0-.04-.01-.06l-.29-.3s-.04-.06-.03-.1l.06-.25s0-.05-.03-.06h-.01l-.64.04s-.09-.01-.12-.04l-.57-.57s-.03-.04-.02-.07c.03-.19.07-.39.1-.6.03-.22.13-.44.22-.66.01-.03,0-.07-.03-.08l-.94-.39s-.04-.03-.04-.06l.02-.29s.01-.04.04-.06l.35-.21s.04-.06.02-.08c0-.01-.02-.02-.03-.03l-.11-.03s-.03-.02-.02-.04c0,0,0,0,0-.01l.88-1.15s.02-.02.04-.03l.12-.03s.04-.02.05-.04c.1-.2.13-.43.17-.64,0-.03,0-.07-.03-.1-.19-.17-.38-.35-.57-.53-.06-.05-.12-.09-.2-.1-.17-.04-.35-.07-.52-.11-.02,0-.04-.01-.05-.03-.05-.08-.06-.15-.02-.22.05-.09.09-.18.13-.27,0-.02,0-.04,0-.06l-.32-.55s-.01-.03-.01-.04l.09-1.1s.02-.08.06-.1l.25-.19c.1-.08.13-.18.07-.29l-.24-.54s0-.04.01-.05l.33-.22c.1-.06.12-.19.06-.29-.01-.02-.03-.03-.04-.05l-.22-.17s-.04-.03-.06-.03l-.19-.03s-.04-.02-.03-.05l.17-.57s0-.06-.02-.08c-.09-.08-.17-.16-.26-.25-.16-.15-.35-.2-.54-.29-.01,0-.04,0-.04.01h0s0,.03,0,.04c-.02.04-.04.04-.07,0-.08-.1-.17-.2-.27-.29-.01-.01-.01-.03,0-.04l.57-.87s.01-.06,0-.09l-.77-.77s-.02-.05,0-.07l.14-.15s.02-.03.01-.06l-.18-.55s-.02-.04-.04-.04l-.53-.17s-.04,0-.06,0l-.2.12s-.06,0-.07-.02l-.12-.17s-.01-.03,0-.04l.09-.25s0-.06-.01-.09l-.28-.34s-.01-.03,0-.04l.31-.62s0-.04-.01-.04h-.01l-.28.02s-.04-.01-.04-.03l-.15-.55s0-.05.02-.06l.76-.61s.02-.04,0-.06c0,0-.01-.01-.03-.01h-.14s-.05-.03-.06-.05l-.13-.18s-.05-.04-.09-.03c-.19.07-.4.19-.6.18-.12,0-.24,0-.37,0-.01,0-.03,0-.04.02l-.18.16s-.03.01-.04,0c0,0,0,0,0-.01l-.22-.55s0-.06.03-.07h0l.21-.07s.03-.02.04-.03l.33-.72s0-.06-.01-.09l-.16-.16s-.02-.03-.01-.05l.07-.2s0-.04,0-.06c-.16-.23-.39-.41-.6-.59-.02-.02-.04-.05-.04-.08-.01-.12-.02-.23-.03-.35-.01-.19-.15-.36-.24-.54-.01-.03-.01-.05,0-.08l.09-.26s0-.04-.01-.06c-.02-.03-.04-.04-.07-.06-.02-.01-.03-.03-.02-.05,0,0,0,0,0-.01l.39-.39s.04-.01.06,0h0c.12.13.24.25.36.38.12.13.3.16.46.19.02,0,.04,0,.06-.01l.52-.32s.03-.03.04-.05c.12-.33.23-.65.34-.96.01-.03,0-.08-.03-.16,0-.01,0-.01.01-.01h.04s.01,0,.01.01c.06.22.12.42.16.63,0,.04.04.06.09.05.25-.06.5-.11.73-.17.17-.04.37.03.54.08.04.01.08,0,.12-.03.07-.06.15-.13.24-.2.08-.06.17-.12.26-.15.18-.07.37-.15.56-.22.11-.04.22-.05.34-.06.02,0,.05.01.06.03l.28.58s.05.04.08.03c0,0,0,0,0,0,.07-.05.14-.11.23-.14.24-.09.49-.19.76-.3.07-.03.14-.03.22-.02.18.03.36.05.54.08.1.01.18.04.25.09.14.1.29.2.42.29.13.09.23.21.33.32.01.01.02.04.01.06l-.11.38s0,.06.03.07l1,.62s.05.01.07,0l.23-.23s.04-.02.06,0l.06.05s.03.01.04.01l.52.02s.04-.02.04-.04l.02-.33s0-.04.02-.06l.22-.31s.03-.02.04,0l.32.24s.04.02.07.02h.76s.04-.01.05-.04l.19-.42s0-.03,0-.05l-.06-.24s0-.03.02-.03l.58-.19c.1-.03.2-.02.29.04l.47.31s.03.03.04.05c.01.05.02.1.02.16,0,.03.01.06.04.07l.75.35s.01.01.01.03l-.48,1.2s0,.06.02.07l.22.15s.04.04.04.06c.02.11.04.22.07.33.04.15-.04.29-.09.43,0,.02,0,.04.02.05.12.04.25-.12.33-.18.01-.01.03-.02.05-.02l.44-.07s.03-.02.03-.04l.05-.65s.01-.04.03-.06l.78-.71s.04-.02.06-.01c.03.01.06.03.08.05.02.01.02.03.02.06l-.03.13s0,.06.01.07l.83,1.03s.06.03.09.01l.22-.15s.04-.02.07-.01l.19.03s.04.01.05.04l.04.09s.03.03.05.03l.31-.05s.03,0,.04,0c.13.05.27.1.41.16.12.05.27-.01.38-.04.03,0,.04,0,.06.02.09.12.18.23.26.35.22.29.5.54.74.8.03.03.09.03.12,0h.01s.04-.07.04-.07c0,0,.03-.03.04-.03.16-.02.33-.03.52-.04.24-.01.5-.2.71-.31.02,0,.03,0,.04.01l.18.27s.06.03.09.01c0,0,.01-.01.01-.01l.42-.61s.02-.01.03-.01l.71.28s.06,0,.09-.02l.38-.41s.02,0,.03,0c0,0,0,0,0,0,.04.1.07.2.1.31.03.08.03.15.01.22-.05.19-.1.39-.15.59,0,.02,0,.04.01.06l.18.27s.03.03.05.03c.23.05.47.1.71.14.19.03.34.13.5.22.07.04.14.1.19.18.08.13.17.23.21.38.04.16.14.48.07.63-.05.1-.09.19-.14.29-.02.03,0,.06.03.06l1.05.19s.03.01.03.03v.36s0,.04-.02.06l-.19.22s-.03.07-.02.1l.17.52s0,.04-.01.06l-.14.17s-.02.03-.02.06l.04.47s0,.04-.03.05c-.25.13-.51.27-.77.41-.12.06-.27.2-.33.32-.21.4-.42.8-.63,1.21-.01.03-.01.05,0,.08l.1.28s0,.04,0,.06l-.11.25s-.01.05,0,.07l.27.47s0,.03-.02.04l-.2.02s-.07.03-.08.07c-.04.13-.07.26-.12.39-.02.06-.02.14,0,.23.05.22.1.44.16.67,0,.02,0,.04,0,.06-.01.03-.02.05-.01.08,0,.02.01.04.03.05l.31.28s.08.04.12.04l.42-.03s.04.01.06.03l.26.62s0,.05-.02.07-.04.04-.05.07h.02Z"/>
      <path class="cls-1" d="M39.07,20.27l.57.05s.01.01.01.02h0l-.12.35s-.02.04-.04.05l-.23.11s-.04.05-.03.08c.1.23.19.46.28.68.09.21.17.43.23.64.07.22.14.43.21.66,0,.02,0,.05,0,.07l-.08.23s-.02.02-.03.01h0l-.66-.35s-.03-.03-.04-.04c-.04-.12-.05-.24-.03-.38,0-.05-.01-.09-.06-.12l-1.01-.67s-.03-.04-.03-.06v-.1s0-.04-.01-.06l-.71-.49s-.03-.01-.06-.01c-.01,0-.02,0-.03.01-.02.02-.04.02-.06,0l-.28-.31s-.03-.02-.05-.01c-.02,0-.04.01-.06.03-.03.03-.06.03-.07-.02-.03-.09-.06-.15-.16-.16-.14-.01-.28-.03-.41-.06-.04,0-.08,0-.12.01-.26.09-.52.17-.79.25-.14.04-.21.13-.31.22-.02.02-.04.02-.06.01-.09-.02-.17-.04-.25-.06-.1-.02-.25.12-.32.17-.02.01-.04.02-.07.02l-.32-.02s-.04-.02-.04-.04c-.03-.37-.06-.75-.09-1.14,0-.07-.03-.18-.09-.31,0-.02-.02-.03-.03-.05l-.3-.23s-.03-.03-.03-.05l-.1-.58s-.01-.04-.03-.06l-.23-.25s-.03-.02-.05-.02l-2.34.02s-.04-.01-.04-.03l-.16-.58s0-.04.02-.05c.07-.04.13-.05.17-.12.05-.08.12-.15.18-.21.16-.14.26-.35.37-.54.01-.02.01-.04.01-.06l-.04-.5s-.02-.05-.04-.06c-.2-.08-.4-.17-.61-.26-.24-.11-.52-.15-.78-.21-.02,0-.04-.02-.05-.04l-.1-.33s0-.04.01-.06l.26-.28s.04-.02.06-.01c.29.09.52.21.68.37.02.02.04.03.07.02l.2-.04s.05,0,.07.03l.12.16s.06.03.08.01c0,0,.01-.01.01-.02l.32-.57s.03-.03.04-.02l.23.06s.04,0,.06,0c.12-.06.26-.25.43-.41.01-.01.03-.02.05,0,.15.08.3.13.47.15.02,0,.04.01.06.03l.79.74s.07.04.12.03c.19-.05.32-.08.53-.06.2.03.4.05.58.07.2.03.41-.01.59.06.04.01.08,0,.1-.04.05-.09.1-.19.16-.29.04-.07.1-.13.17-.17.22-.14.46-.28.7-.42.01-.01.03-.01.05-.01.06,0,.09.02.15,0,.12-.06.19-.14.2-.25,0-.02.02-.04.04-.05.09-.03.18-.06.28-.1.02,0,.04-.02.05-.04.23-.38.46-.77.69-1.15.02-.03.05-.05.09-.05h.43s.04-.01.06-.03l.15-.23s.03-.03.05-.04l.31-.09s.04,0,.04.02l.17.48s.03.04.05.05l.07.04s.03.02.03.04l.13.61s0,.04,0,.06l-.1.23s-.03.03-.04.04l-.28.09s-.03.02-.03.04c-.01.11,0,.19.03.24.26.41.52.8.77,1.19.07.11.12.21.13.31.03.13.05.25.08.36,0,.02.01.03.03.04l.17.14s.03.04.03.06v.2s-.01.06-.04.07l-.29.17s-.03.03-.04.06c-.03.24-.07.48-.11.73-.01.06.02.1.06.14.02.01.02.04,0,.06h0l-.19.24s-.02.04-.02.06l.02.27s0,.04-.03.04c-.17.06-.33.12-.49.17-.16.05-.28.2-.39.32-.02.02-.01.05,0,.07h0l.34.3s.03.04.02.06l-.08.6s.01.06.05.06h0Z"/>
      <path class="cls-1" d="M29.78,26.76l-.64.26c-.07.03-.14,0-.17-.07h0l-.07-.19s0-.04,0-.06l.28-.34s.01-.04,0-.06c-.06-.1-.12-.2-.18-.31-.04-.08-.09-.14-.15-.18-.06-.05-.12-.1-.18-.15-.01-.01-.03-.02-.06-.02-.16-.01-.32-.02-.49-.03-.09,0-.19-.03-.28-.07-.14-.07-.27-.13-.4-.18-.03-.01-.04-.03-.05-.06-.03-.14-.08-.34-.17-.44-.01-.01-.02-.03-.02-.05,0-.14.04-.39-.16-.45-.13-.04-.25-.08-.38-.12-.02,0-.04-.03-.04-.05,0-.12,0-.25-.08-.34-.06-.06-.12-.13-.17-.19-.01-.02-.04-.03-.06-.03l-.54.05s-.02,0-.02-.01h0s.03-.05.03-.05c.01-.02.01-.04,0-.06l-.29-.69s-.05-.05-.08-.05l-.48.04s-.04,0-.06-.02l-.27-.24s-.02-.03-.01-.06c.01-.05.02-.1,0-.14-.06-.23-.11-.47-.17-.71,0-.02,0-.05,0-.07l.13-.42s.02-.03.04-.04l.27-.03s.05-.03.05-.06c0,0,0-.01,0-.02l-.29-.5s-.02-.06,0-.09l.1-.23s.01-.04,0-.06l-.1-.28s0-.04,0-.07c.22-.42.44-.83.65-1.25.03-.06.16-.16.24-.2.2-.1.4-.21.6-.31.13-.07.27-.17.42-.29.31-.27.63-.55.96-.85.33-.29.67-.54,1.02-.8.1-.07.21-.13.32-.17.17-.05.35-.11.52-.16.09-.03.16-.03.24-.01.28.07.53.1.8.23.17.08.34.15.51.22.02,0,.04.03.04.05l.03.39s0,.04-.01.06c-.07.12-.14.24-.22.37-.08.15-.21.23-.31.35-.06.07-.13.1-.21.14-.03.01-.04.03-.03.06l.19.65s0,.03-.01.03c-.36.22-.74.45-1.13.69-.11.07-.15.25-.2.38,0,.02-.02.03-.04.02l-.59-.07s-.08.01-.1.05l-.13.22s-.02.02-.03.01l-.24-.09s-.06,0-.09.01c-.12.09-.23.18-.34.27-.09.07-.15.15-.19.22-.13.27-.21.51-.23.71,0,.03.01.06.04.07l.77.36s.03.02.03.03c.05.12.09.25.14.38.02.06.06.1.11.13.15.09.28.13.38.13.02,0,.04,0,.05.03l.1.18c.03.06.08.07.14.05l.2-.09s.04,0,.06,0l1.62.7c.09.04.09.08,0,.12l-.34.2s-.05.06-.03.1l.15.37s0,.04,0,.06l-.17.65s0,.04.01.06l.19.28s.01.04,0,.06c-.06.15-.11.29-.16.44-.04.13-.15.22-.19.35-.07.19-.13.39-.19.57,0,.02,0,.05.02.06l.32.26s.02.03.02.06l-.23.83s-.03.04-.05.04l-.19.03s-.03,0-.03-.03l-.05-.45s-.02-.04-.05-.03h.03Z"/>
      <path class="cls-1" d="M28.27,19.73l.13-.23s.05-.04.08-.04l.58.07s.06-.01.07-.04l.12-.29s.02-.04.04-.05l1.19-.73s.03-.01.05-.01l2.29-.02s.06.01.08.03c.08.09.18.17.2.3.03.18.06.36.09.54,0,.02.01.04.03.05l.31.23s.03.03.03.04c.05.13.07.24.09.34.03.3.06.63.09.97.02.25-.04.49-.08.73-.03.13.04.2.13.28.01.01.03.01.04,0,0,0,0,0,0,0l.2-.41s.03-.02.04-.01h0s.09.04.13.03c.2-.04.4-.09.6-.13.04,0,.08,0,.12.01l.56.26s.03.03.03.04c-.01.15-.03.3-.04.45-.01.17-.09.33-.15.49,0,.02-.02.03-.04.03h-.73s-.05,0-.07-.03l-.19-.22s-.03-.02-.05-.03c-.15-.01-.29-.02-.43-.09-.16-.08-.31-.15-.45-.22-.02,0-.04,0-.05,0-.19.08-.39.15-.57.25-.25.13-.5.26-.76.4-.05.03-.13.04-.25.03-.02,0-.04-.01-.05-.03-.03-.03-.05-.06-.09-.08-.02-.01-.04-.01-.06,0l-.23.1s-.04.01-.06,0c-.16-.03-.32-.04-.47-.11-.55-.23-1.09-.47-1.64-.71-.02-.01-.05-.01-.07,0l-.2.09s-.04,0-.05-.02l-.11-.2s-.03-.03-.06-.03c-.14.01-.28-.03-.43-.14-.01-.01-.03-.03-.03-.04l-.16-.41s-.02-.04-.04-.05l-.75-.35s-.02-.02-.02-.04c.02-.11.03-.22.07-.32.07-.16.13-.37.26-.48.11-.09.22-.18.32-.26.03-.02.06-.03.09-.01l.28.09s.04,0,.05-.02h0Z"/>
      <path class="cls-1" d="M33.56,27.5c-.23.07-.47.16-.7.24-.2.07-.43.04-.63.04-.02,0-.03-.01-.03-.03l-.04-1.27s-.02-.04-.04-.04c0,0-.01,0-.02,0l-.47.33s-.05.02-.07.01c-.14-.04-.4-.07-.5-.19-.14-.17-.27-.32-.47-.42-.02-.01-.04-.01-.06,0l-.06.05s-.04.02-.06,0l-.26-.22s-.03-.04-.02-.06c.06-.16.11-.33.16-.49.05-.15.16-.24.21-.38.06-.16.11-.32.17-.48,0-.02,0-.04,0-.06l-.18-.26s-.03-.06-.02-.09l.17-.63v-.05l-.14-.35s0-.04.02-.05c.14-.07.29-.14.36-.29.01-.03.04-.04.07-.03.09.02.17.04.27.05.12.02.23-.05.34-.1.02-.01.03,0,.05,0l.07.07s.03.02.05.02c.14,0,.24,0,.3-.03.42-.2.86-.41,1.31-.63.02,0,.04-.01.06,0,.15.07.3.14.45.21.13.06.26.05.4.07.01,0,.03.01.04.02l.19.22s.04.03.06.03h.83s.04-.01.05-.03c.06-.17.15-.34.16-.53.01-.18.03-.36.04-.54,0-.02-.01-.05-.03-.06l-.66-.31s-.04-.01-.06,0c-.2.05-.41.1-.62.14-.07.01-.12,0-.17-.03-.03-.02-.07,0-.09.02h0s-.16.33-.16.33c0,0-.02.02-.03.01,0,0-.01,0-.01-.01-.01-.03-.01-.06,0-.09.03-.15.05-.31.07-.48,0-.03.02-.04.04-.04.09,0,.17,0,.25.01.21.03.32-.23.47-.17.07.02.15.04.23.06.04,0,.08,0,.11-.03.09-.09.16-.17.29-.21.24-.07.48-.15.72-.23.08-.03.16-.03.25-.02.11.02.21.03.31.04.02,0,.04.01.05.03l.09.17s.03.03.05.03c.04,0,.07-.01.1-.04.02-.01.05-.01.07,0l.25.29s.03.02.06.01l.06-.02s.04,0,.06,0l.62.42s.03.03.02.06v.08s0,.08.03.1l1.02.68s.03.03.03.05c0,.17-.01.29.06.45,0,.02.02.03.04.04l.83.44s.02.03.02.04l-.14.36s0,.04.01.06l.19.17s.02.03.01.05l-.38.92s0,.04.01.06l.11.11s.05.03.07.03l.47-.03s.01,0,.01,0l.24.53s0,.01,0,.01l-.5.02s-.06.03-.06.06h0s.06.44.06.44c0,.02,0,.04-.02.06l-.36.3s-.03.05-.02.07l.22.58s0,.04-.01.06c-.1.1-.21.19-.32.29-.09.07-.17.17-.24.3-.11.19-.22.38-.33.56-.01.02-.01.03,0,.05.06.2.15.36.29.49.01.01.02.03,0,.04l-.16.27s-.03.03-.05.04l-.64.12s-.05-.01-.06-.03l-.12-.39s-.03-.05-.06-.05l-.4-.06s-.04-.02-.05-.04l-.08-.17s0-.03.01-.04c.05-.04.06-.08.01-.13-.1-.12-.22-.22-.27-.38-.12-.36-.24-.71-.35-1.06,0-.03-.04-.04-.06-.03-.36.1-.71.21-1.07.32-.1.03-.19.05-.28.05-.13,0-.25-.01-.36.06-.13.09-.26.17-.38.25-.01.01-.03.03-.03.04,0,.06,0,.12.02.18,0,.03,0,.03-.02.01-.13-.12-.21-.25-.25-.41,0-.03-.04-.05-.06-.04h0l-.81.35s-.04,0-.05-.02h0s-.08-.34-.08-.34c0-.02-.03-.03-.04-.03h0v.02Z"/>
      <path class="cls-1" d="M20.8,50.01l-.04.21s-.01.04-.03.06l-.2.14s-.04.01-.06,0c-.18-.05-.39-.15-.58-.1-.21.05-.49.16-.7.13-.3-.05-.59-.1-.87-.14-.02,0-.04-.01-.05-.03-.18-.23-.34-.45-.5-.66-.06-.08-.1-.19-.13-.31,0-.02,0-.03.02-.04l.51-.23s.07-.06.06-.1l-.03-.38s0-.04.02-.05l.2-.22s.02-.04,0-.06l-.36-.59s-.01-.04-.01-.06l.15-.78s.01-.04.03-.05l.36-.3s.04-.06.02-.1l-.33-.78s-.03-.04-.05-.04l-.25-.04s-.04-.03-.03-.05h0s.33-.87.33-.87c.01-.03,0-.07-.03-.09-.12-.06-.23-.13-.35-.19-.17-.09-.35-.13-.54-.17-.07-.02-.15-.02-.23,0-.13.03-.28.05-.42.08-.03,0-.05-.01-.05-.04h0l-.03-.3s-.01-.04-.03-.04c-.02,0-.03-.02-.03-.04,0-.01,0-.02,0-.03l.38-.4s.02-.03.02-.05l-.04-.64s0-.04.01-.06l.16-.26s0-.04-.01-.05c0,0,0,0,0,0l-.23-.07s-.05-.03-.06-.06l-.08-.49s-.01-.03-.03-.04c-.12-.09-.25-.14-.32-.26-.04-.07-.09-.15-.13-.22-.01-.02-.01-.03-.01-.06l.02-.44s0-.03.02-.05c.04-.05.08-.1.12-.15.04-.05.09-.08.15-.1.08-.03.17-.06.25-.09.02,0,.03-.02.03-.04.02-.19.03-.38.03-.57,0-.1.03-.2.07-.31.2-.42.39-.84.58-1.25.01-.03.03-.04.06-.06l.28-.16s.04-.01.06,0c.1.09.32,0,.44-.04.03,0,.04-.03.03-.05l-.03-.35s-.02-.04-.04-.04l-.45-.02s-.04,0-.05-.02l-.88-.65s-.03-.04-.03-.06l.12-.56s.02-.04.05-.03c.2.03.42.05.64.06.09,0,.17.03.25.08.15.09.29.17.45.25.02.01.04,0,.06-.01l.1-.1s.03-.02.04-.02h1.13s.06-.03.07-.06l.17-1.03s.01-.04.03-.06l.42-.48s.04-.07.03-.11c-.03-.16-.1-.38-.06-.54.01-.06.03-.12.04-.18,0-.02.02-.03.04-.04l.63-.14s.04-.02.04-.04l.1-.47s0-.04-.02-.06c-.17-.15-.33-.31-.5-.47-.08-.07-.21-.24-.22-.35-.01-.13-.02-.26-.03-.4,0-.03-.03-.05-.06-.05l-.43-.03s-.03-.01-.04-.03c-.07-.15-.14-.29-.21-.44-.04-.07-.05-.13-.04-.18,0-.05.02-.1.03-.16,0-.02.01-.03.03-.02l.38.09s.07-.01.09-.05h0l.22-1.02s.02-.04.04-.06c.07-.05.15-.07.23-.06.03,0,.05-.01.06-.04l.1-.28s.02-.03.04-.03h.64s.04,0,.06-.02l.05-.04s.04-.02.06,0l.33.15s.08,0,.09-.04h0l.22-.55s.02-.03.04-.01l.22.15s.05,0,.06-.01c0,0,0-.02,0-.03l-.02-.28s0-.03,0-.04l.45-.7s.01-.04,0-.06l-.06-.14s-.01-.04,0-.06l.08-.28s0-.04,0-.06l-.29-.52s0-.07.02-.09h0c.16-.08.32-.15.48-.19.02,0,.04,0,.06,0l.51.2s.06,0,.08-.03c.1-.15.15-.3.16-.45,0-.02.01-.04.03-.06l.33-.25s.03-.02.05-.02h.25c.16,0,.38-.15.52-.23.02-.01.04-.01.06,0l.42.15s.07,0,.08-.04h0s.11-.47.11-.47v-.05l-.14-.38c-.02-.06,0-.12.06-.13.01,0,.02,0,.03,0,.08,0,.17,0,.26.01.02,0,.03.01.04.02l.18.18s.03.02.06.02c.17,0,.33-.01.48-.02.07,0,.14-.03.2-.09.02-.02.03-.01.04.01l.09.28s.03.05.06.07c.22.09.49.26.73.26.14,0,.29.01.44.03.1.01.23.13.28.21.07.12.15.24.23.38.01.01,0,.04,0,.05l-.27.32s-.02.04-.01.07l.12.3s.03.04.05.04c.11.02.18.02.22,0,.18-.07.35-.14.52-.21.02,0,.04,0,.04.02l.05.43s.02.04.04.03h0l.33-.06s.04-.02.05-.04l.26-.93s.05-.06.09-.05c0,0,.01,0,.01,0,.09.06.18.1.26.18.08.09.16.17.23.26.01.02.04.03.06.04l.43.12s.04,0,.06-.01l.4-.27s.05-.01.06.03l.04,1.19s.01.04.04.04c.14,0,.28,0,.44,0,.12,0,.24-.02.36-.06.18-.07.37-.13.56-.19.01,0,.03,0,.04.02h0l.08.32s.04.06.09.04l.82-.35s.03,0,.04.02l.04.12s.02.04.04.06c.09.1.17.19.25.26.09.09.12.07.1-.05-.01-.06-.02-.13-.02-.2,0-.03.01-.05.03-.06.1-.06.19-.12.3-.2.16-.12.38-.04.56-.1.35-.1.71-.21,1.09-.32.02,0,.04,0,.04.02.11.32.21.64.32.96.06.17.16.27.28.4.01.02.01.03,0,.05l-.03.03s-.02.04-.01.07l.12.25s.03.03.05.03l.41.06s.03.01.04.03l.13.41s.06.07.1.06c.2-.04.41-.07.63-.12.07-.01.14-.01.19.01.06.02.11.05.16.07.02.01.03.03.04.05l.1.5s0,.04-.03.04l-.24.03s-.03,0-.04.02l-.28.3s-.03.02-.05,0l-.2-.14s-.04-.01-.06-.01l-.33.04s-.04.01-.05.03l-.46.73s-.01.06.01.08l.42.34s.02.03.01.06c-.05.1-.14.18-.15.29-.02.15-.03.29-.04.44,0,.03-.02.04-.04.05-.19.03-.38.05-.55.07-.09.01-.16.06-.22.13-.01.01-.01.03,0,.04l.28.73s.04.07.08.09l.47.27s.03.03.03.05l-.03.5s-.01.05-.03.07l-.75.66s-.03.04-.02.07c.04.15.09.31.12.47.01.06.04.08.1.07.11-.02.12,0,.02.06-.05.03-.1.06-.15.09-.02.01-.04.03-.04.06-.03.15-.03.28-.12.41-.2.3-.39.6-.58.9-.02.03-.01.06.02.08.01,0,.02.01.03.01h.24s.02.01.02.02h0s-.38,1.23-.38,1.23c-.01.05,0,.09.06.1l.22.06s.04.02.04.04l.05.23s.02.04.05.05c.03,0,.06,0,.09,0,.02,0,.03,0,.03.03-.01.33-.04.66-.1.99,0,.03-.02.04-.04.06l-.22.18s-.03.04-.03.07l.1,1.11s-.01.07-.06.09c-.1.03-.17.08-.2.16-.01.03,0,.07.02.1l.15.13s.02.03.03.05l.03,1.18s.02.06.06.07l.35.1s.05.02.07.04l.91,1.21s.01.03-.02.03l-.7-.13s-.07,0-.09.03l-.48.41s-.05.03-.08.02l-.61-.09s-.06,0-.08.02l-.41.33s-.03.05,0,.07l.24.32s.01.03-.01.04l-1.03.41s-.06.05-.06.09l.02.22s0,.03-.03.03l-.23-.04s-.04,0-.06.01l-.39.33s-.02.04,0,.06h0s.32.22.32.22c0,0,.02.03.01.05h0l-.33.42s-.02.03-.01.06l.09.56s0,.03-.03.03l-.33-.1s-.08-.01-.12,0l-.57.17s-.04,0-.06,0l-.26-.12s-.05,0-.06.02c0,0,0,.02,0,.03l.09.51s.01.03.02.04l.2.22s.02.04,0,.06l-.08.17s-.03.04-.06.06l-.87.3s-.07,0-.08-.04c0-.02-.02-.04-.04-.07-.01-.01-.03-.02-.05-.01l-.22.1c-.06.02-.1.01-.15-.03-.26-.26-.52-.53-.79-.81-.09-.09-.09-.24-.12-.36,0-.03-.03-.04-.06-.04-.19.02-.37.06-.55.1-.04.01-.07.04-.09.08l-.36.83c-.07.16-.25.23-.41.17l-.66-.27s-.04,0-.05.01c-.15.2-.31.41-.47.66-.03.05-.12.1-.27.14-.03,0-.04,0-.03-.03l.1-.74s-.01-.06-.05-.07l-.23-.04s-.04-.02-.03-.05l.25-.6s0-.07-.03-.08c0,0-.01,0-.02,0-.18,0-.44.04-.59-.06-.12-.07-.23-.15-.36-.21-.07-.04-.13-.1-.17-.19-.06-.11-.12-.22-.19-.33-.01-.02-.04-.03-.06-.02,0,0-.01,0-.01.01-.27.35-.54.7-.82,1.05-.09.12-.08.38-.09.52,0,.03-.02.04-.04.03-.07-.02-.14-.03-.22-.05-.06-.01-.11,0-.14.06-.01.02-.03.03-.05.03l-.44-.09s-.04,0-.04.03h0l-.04.31s0,.04.01.06c.06.09.13.17.21.25.05.06.06.12.03.19,0,.02-.02.03-.04.03l-1.59.04s-.04-.01-.04-.04h0s.08-.45.08-.45c0-.02,0-.03-.03-.03h-.33s-.05.01-.07.03l-.49.56s-.08.06-.13.06l-1.12-.06s-.05.02-.06.04h0Z"/>
    </g>
  </g>
</svg>