<?xml version="1.0" encoding="UTF-8"?>
<svg id="Calque_1" data-name="Calque 1" xmlns="http://www.w3.org/2000/svg" viewBox="0 0 437.76 413.57">
  <defs>
    <style>
      .cls-1 {
        font-size: 14.22px;
      }

      .cls-1, .cls-2, .cls-3 {
        font-family: Lato-Regular, Lato;
      }

      .cls-4, .cls-5 {
        stroke: #1d1d1b;
      }

      .cls-4, .cls-5, .cls-6, .cls-7, .cls-8, .cls-9 {
        stroke-miterlimit: 10;
      }

      .cls-10 {
        letter-spacing: -.03em;
      }

      .cls-2, .cls-3 {
        font-size: 12px;
      }

      .cls-2, .cls-11 {
        opacity: .85;
      }

      .cls-12 {
        letter-spacing: 0em;
      }

      .cls-5 {
        fill: #fff;
      }

      .cls-6, .cls-7, .cls-8, .cls-9 {
        stroke: #000;
      }

      .cls-6, .cls-9 {
        fill: #e8d560;
      }

      .cls-7 {
        fill: #ffc500;
      }

      .cls-8 {
        fill: #a85200;
      }

      .cls-13 {
        font-family: AnnaiMN-Regular, 'Annai MN';
        font-size: 8.04px;
      }

      .cls-9 {
        stroke-width: 1.5px;
      }

      .cls-14 {
        letter-spacing: -.02em;
      }

      .cls-15 {
        letter-spacing: -.01em;
      }

      .cls-16 {
        letter-spacing: -.01em;
      }
    </style>
  </defs>
  <g>
    <g>
      <path class="cls-7" d="M157.11.54l.87.55c.07.04.11.1.15.17l1.14,2.68c.03.07.04.15.02.22l-.52,2.77c-.02.08,0,.16.03.23l.74,1.52c.07.15.19.22.35.22h1.41c.07,0,.14.04.17.11.4.76.81,1.51,1.23,2.26.26.47,1.27.78,1.74.97.24.1.51.07.73-.08l2.61-1.82c.06-.04.13-.07.21-.07l2.45-.18c.08,0,.14.02.2.08l1.55,1.72c.09.1.13.23.11.36-.07.48-.26,1.12-.09,1.6.51,1.43,1.02,2.84,1.53,4.23.05.15.17.27.32.32.54.19,1.11.39,1.73.59.14.04.31-.01.51-.17.26-.2.51-.39.75-.58.05-.04.12-.03.16.02,0,0,0,.01.01.02l.38.81c.03.07.09.12.17.14l2.55.62c.08.02.13.07.15.15l1.03,4.4c.06.26.32.42.58.36.08-.02.16-.06.22-.11l.83-.76c.08-.08.2-.11.32-.08.73.16,1.5.34,2.3.53.2.05.43.05.69,0,.88-.19,1.7-.34,2.45-.44.09-.01.16.01.21.08l1.94,2.31c.06.07.15.11.25.1l.66-.08c.09-.01.13.03.1.12l-.78,2.47c-.04.12-.02.25.04.35l1.42,2.46c.04.07.04.14,0,.22l-1.58,3c-.11.22-.03.49.19.6.02.01.05.02.07.03l1.8.57c.15.61.27,1.25.36,1.9.06.39.02.76-.1,1.11-.19.55-.63,1.17-.4,1.77.12.3.23.61.35.91.1.25.06.49-.1.7-.65.88-1.27,1.76-1.88,2.65-.34.5-1,.42-1.54.49-.19.02-.33.18-.33.37-.02,1.77.01,3.61.11,5.53.05.87.02,1.7-.07,2.48-.03.25-.26.43-.51.4-.03,0-.07-.01-.1-.02l-2.02-.71c-.09-.03-.17-.03-.25.01-1.2.56-2.48,1.17-3.83,1.84-.78.39-1.04,1.16-1.31,1.91-.06.18-.06.37.02.56.48,1.18.95,2.36,1.42,3.53.03.07,0,.16-.08.19-.71.29-1.44.59-2.19.89-.86.35,0,1.27.3,1.71.06.09.07.2.04.3-.08.29-.19.59-.31.91-.27.72.37.84.8,1.1.05.03.07.1.04.15,0,0,0,0,0,0l-3.07,4.25c-.07.09-.19.12-.29.06-1.13-.72-2.25-1.44-3.39-2.17-1.03-.67-1.74-1.46-2.56-2.37-.11-.12-.15-.27-.12-.43l.19-1.01c.02-.12,0-.25-.07-.36-.37-.6-.81-1.46-1.58-1.62-.64-.14-1.01-.33-1.71-.08-1.18.42-2.32.83-3.42,1.25-.18.07-.35.04-.51-.08-.23-.18-.49-.36-.78-.55-.74-.49-1.09,1.05-1.98.9-.74-.13-1.5-.2-2.24-.33-.48-.09-.89-.24-1.24-.44-1.77-1.04-3.47-2.02-5.11-2.94-.13-.08-.3-.07-.42.02l-.89.61c-.11.07-.24.1-.36.07l-4.05-1.02c-.25-.06-.52-.06-.77,0-.83.21-1.64.45-2.42.72-.37.13-.73.16-1.08.09-.67-.12-1.33-.26-1.97-.4-.11-.02-.2-.09-.25-.19l-.38-.73c-.06-.11-.02-.25.09-.32l1.57-.98c.21-.13.29-.39.2-.61l-1.7-4.06c-.07-.17-.09-.36-.05-.53.23-1.07.42-2.14.57-3.22.07-.48.06-.95-.02-1.43-.19-1.13-.38-2.28-.55-3.44-.03-.19.01-.39.12-.55l1.33-2.02c.09-.14.11-.29.05-.46l-1.69-4.24c-.1-.25-.26-.47-.46-.65-1.36-1.15-2.74-2.35-4.14-3.58-.56-.49-1.14-.89-1.74-1.31-.14-.1-.17-.28-.07-.42h0s2.57-3.58,2.57-3.58c.1-.14.28-.18.43-.1l.89.49c.22.12.49.04.61-.17,0,0,0,0,0,0,.12-.21.09-.46-.08-.74-.65-1.04-1.08-1.87-1.3-2.5-.1-.28-.1-.61,0-1,.04-.15.15-.28.3-.32.56-.17,1.04-.36,1.45-.58.48-.26.23-.74-.12-.95-.25-.14-.49-.31-.72-.51-.06-.06-.1-.12-.12-.21-.29-1.22-.19-2.41.05-3.73.01-.05.06-.09.11-.08.01,0,.02,0,.03.01.35.22,1.06.83,1.37.18.08-.17.06-.38-.07-.53l-1.31-1.53c-.1-.11-.15-.26-.15-.41l.05-8.53c0-.17.06-.3.19-.41l2.51-2.16s.1-.07.16-.09c1.46-.49,3.15-1.02,5.07-1.58.52-.15.96-.39,1.53-.54,2.74-.71,5.53-1.42,8.37-2.13.25-.06.46-.06.64,0Z"/>
      <path class="cls-7" d="M259.71,112.39l-1.11-2.62c-.08-.19-.28-.3-.48-.27l-.7.1c-.14.02-.27-.08-.29-.22,0,0,0-.02,0-.03l-.12-3.83c-.01-.32-.18-.62-.45-.79-1.28-.82-2.53-1.63-3.75-2.44-.22-.15-.45-.18-.66-.08-.18.08-.39.05-.55-.07l-3.68-2.91c-.19-.15-.46-.18-.68-.08l-2.07.93c-.17.08-.37.05-.51-.06l-2.02-1.55c-.15-.11-.34-.15-.51-.1l-2.48.65c-.18.05-.35.02-.51-.07l-3.26-1.95c-.21-.13-.49-.12-.69.03l-4.14,2.99c-.16.11-.23.26-.2.46.04.32.07.59-.12.88-.21.3-.42.59-.64.87-.07.09-.19.14-.3.12l-.94-.13c-.18-.03-.36.04-.49.17-.42.45-1.18,1.14-1.21,1.81-.05,1.2-.09,2.41-.12,3.62,0,.1-.05.18-.14.23-.88.48-1.2.14-1.83-.45-.17-.16-.42-.18-.62-.06-1.1.68-2.24,1.36-3.4,2.05-.4.23-.51,1.18-1.14,1.44-.38.16-.78.31-1.2.47-.06.02-.14,0-.16-.07,0-.01,0-.03,0-.04l-.02-.71c0-.08-.04-.14-.11-.19-.86-.54-1.68-.88-2.46-1.03-1.23-.23-2.4-.57-3.64-.79-.2-.04-.38-.17-.47-.35l-.77-1.53c-.09-.17-.04-.39.12-.5.34-.25.66-.52.94-.79.32-.31.07-.71-.02-1.05-.21-.82-.61-1.55-1.19-2.18-.21-.22-.4-.35-.59-.39-.25-.05-.49-.07-.74-.07-.13,0-.24-.11-.24-.24,0-.01,0-.03,0-.04l.12-.75c.03-.2-.08-.4-.27-.48l-.88-.34c-.19-.07-.32-.24-.35-.44l-.13-.92c-.03-.22-.2-.39-.42-.42l-3.75-.57c-.19-.03-.38.03-.53.15l-2.15,1.81c-.12.1-.26.16-.41.19-.81.12-1.64.26-2.47.4-.32.05-.58.14-.77.27-.41.27-.69.97-1.28.53-.53-.39-1.07-.51-1.74-.39-1.49.27-3.03.48-4.62.61-.49.04-.9.25-1.17-.34-.74-1.64-1.46-3.18-2.16-4.63-.36-.75-.97-1.34-1.56-1.93-.48-.48-.75-1.38-1.54-.43-.07.09-.2.1-.29.03-.03-.03-.06-.07-.07-.11-.19-.82-.41-1.62-.64-2.42-.17-.59-.39-1.05-.64-1.38-.58-.75-1.23-1.57-1.94-2.45-.33-.41-1.34-.68-1.81-.86-.1-.04-.16-.11-.16-.22l-.12-3.34c0-.12.07-.24.19-.28.69-.26,1.02-.07,1.46-.81.47-.79.93-1.58,1.36-2.36.13-.23.05-.52-.17-.66l-.99-.61c-.14-.09-.26-.22-.32-.38l-1.42-3.43c-.07-.16-.03-.34.1-.46.22-.21.44-.41.67-.61.51-.45.36-1.05.72-1.57.67-.93,1.37-1.85,2.13-2.75.5-.6.9-1.24,1.35-1.86.5-.69.6-1.19-.43-1.49-.24-.07-.33-.23-.26-.47.19-.71.39-1.12-.21-1.73-.08-.08-.07-.2,0-.28.02-.02.04-.03.06-.04l2.01-.79c.36-.14.47-.39.33-.75-.44-1.13-.86-2.23-1.28-3.28-.16-.42-.21-.76-.14-1.04.12-.47.4-.81.85-1.01,1.01-.46,2.02-.98,3.02-1.58.16-.09.35-.11.52-.05l2.47.85c.2.07.43-.02.52-.22.37-.77.55-1.43.55-2.32-.01-2.09-.05-4.16-.12-6.19,0-.18.13-.32.3-.33,0,0,.01,0,.02,0,.8.02.94-.09,1.39-.71.72-1.01,1.44-2.05,2.16-3.12.43-.64-.1-1.42-.38-2.03-.04-.08-.04-.17-.02-.26.19-.57.66-1.44.55-2.04-.17-.84-.22-1.64-.14-2.4.41-.07.75-.14,1.14-.02.8.26,1.58.51,2.35.75.12.04.25.03.36-.02l4.55-2.04c.15-.07.26-.2.3-.36l.78-3.01c.03-.11.08-.2.16-.28l1.61-1.68c.08-.08.17-.1.27-.06l.32.14c.16.07.2.18.12.34-.29.55-.59,1.11-.89,1.69-.37.72-.26,1.55-.25,2.33,0,.38.1.75.27,1.11.35.72.72,1.46,1.11,2.22.08.15.11.33.08.5-.12.9-.25,1.85-.38,2.85-.02.12-.01.25,0,.37.03.21.22.36.43.36l2.8-.08c.08,0,.16.02.22.08l3.25,2.87c.12.1.26.18.41.21l2.56.63c.08.02.12.07.12.16v1.2c.02.23.21.42.44.42,0,0,.02,0,.02,0l1.2-.08c.12,0,.24.06.29.17l1.56,3.27c.1.21.33.33.56.31l2.96-.37c.15-.02.29-.12.35-.26l.48-1.08c.03-.07.1-.12.18-.12.77,0,1.53,0,2.27,0,.34,0,.63-.06.92.18.66.56,1.35,1.21,2.12,1.55.59.25,1.16.51,1.71.78.69.33,2.18.43,2.8-.08.56-.46,1.17-.93,1.81-1.41.06-.05.13-.06.2-.04,1.82.42,3.58.83,5.27,1.23.25.06.72.37,1.4.94.06.05.1.11.11.18.21.78.43,1.55.67,2.31.12.37.31.7.57,1.01,1.17,1.34,2.37,2.71,3.6,4.12.21.24.47.41.75.5.42.13.84.24,1.27.32.26.05.51-.12.56-.38,0-.02,0-.03,0-.05l.1-1.18c0-.09.05-.16.13-.2l.78-.43c.07-.04.15-.05.22-.02.51.19,1.08.4,1.35.91.27.52.56,1.03.87,1.53.16.26.37.33.64.2l1.1-.52c.08-.04.17-.05.26-.03l3.29.59c.18.03.36,0,.51-.11l2.84-1.91s.06-.02.09,0l3.98,3.57c.13.12.3.19.48.2,2.23.1,4.54.18,6.94.24.49.01.94.1,1.36.26,1.07.4,2.11.78,3.13,1.12.1.03.13.1.1.2-.53,1.46-1.05,2.87-1.55,4.23-.17.46-.43.93-.8,1.41-1.68,2.21-3.29,4.33-4.84,6.33-.11.14-.18.32-.2.5l-.73,7.71c-.02.21-.07.42-.16.62l-2.93,6.84c-.1.22-.12.45-.07.69.3,1.51.59,3.04.89,4.57.07.37.07.77,0,1.18-.42,2.39-.83,4.75-1.24,7.08-.05.28-.02.58.09.88.4,1.13.81,2.25,1.24,3.35.03.08,0,.16-.06.22l-.85.73c-.06.05-.1.12-.1.2l-.1,1.23c0,.08-.05.12-.13.12l-1.03.08c-.18.01-.33.15-.36.32l-.23,1.2c-.01.07-.06.13-.12.17-.48.27-.91.41-1.28.42-.87.02-1.79.02-2.77,0-.12,0-.17-.06-.14-.18.13-.48.55-1.33-.25-1.48-.25-.05-.58-.1-.97-.15Z"/>
      <path class="cls-6" d="M103.99,56.59c1.13-.28,1.99-1.41,2.86-2.13.26-.22.58-.37.94-.45,1.3-.29,2.58-.53,3.82-1.04.28-.11.39-.3.34-.57-.03-.18-.17-.33-.34-.37-1.35-.36-2.65-.64-3.91-.84-.67-.11-1.07-.38-1.28-.99-.03-.07-.02-.14,0-.21.47-1.14.99-2.26,1.55-3.35.43-.82.81-1.66,1.16-2.52.07-.17.19-.3.35-.39.51-.26,1.02-.53,1.54-.81.5-.27,1.02-.54,1.55-.8,1.21-.59,2.41-1.21,3.59-1.86.43-.24.97-.43,1.37-.52,3.56-.85,7.09-1.69,10.59-2.53.22-.05.43-.15.6-.29.79-.61,1.63-1.21,2.53-1.82.27-.18.54-.57.85-.64.05-.01.09-.03.12-.06.37-.3.74-.61,1.1-.91.39-.33.72-.32,1.04.06.42.47.89.93,1.43,1.36,1.38,1.12,2.7,2.21,3.96,3.27.21.18.37.4.47.66l1.37,3.47c.05.13.04.28-.04.4l-1.25,1.89c-.12.19-.17.42-.14.64l.63,3.87c.05.33.05.66-.01.99-.22,1.18-.43,2.4-.64,3.65-.04.21.05.52.25.93.53,1.07.96,2.2,1.46,3.28.04.09,0,.19-.07.24-.56.35-1.66.87-1.92,1.51-.58,1.43-1.17,2.86-1.76,4.28-.05.12-.16.19-.29.19h-1.51c-.08,0-.15.02-.22.07-.51.42-.97.87-1.37,1.36-.13.16-.17.37-.11.56l.78,2.56c.04.15.02.27-.09.39-.86.96-1.73,1.94-2.6,2.95-.43.49-.36.88-.31,1.46.01.12-.07.23-.19.26l-1.97.49c-.21.05-.43.02-.62-.09-.38-.21-1.15-.79-1.6-.52-.76.45-1.47.89-2.15,1.3-.27.17-.55.28-.85.34-.79.16-1.6.31-2.42.44-.26.04-.5.17-.69.35-.32.32-.65.66-.98,1.03-.41.46-.27,1.51-.2,2.1.03.26.14.48.34.66.67.62,1.32,1.22,1.95,1.79.14.13.22.31.2.5-.13,1.35-.07,2.64.17,3.88.02.08,0,.14-.08.19l-3.55,2.37c-.29.19-.4.46-.35.8l.43,2.85c.01.07-.04.13-.11.14-.01,0-.03,0-.04,0-.31-.04-.57-.11-.8-.36-.44-.47-.88-.96-1.33-1.45-.37-.4-1.2.02-1.6.2-.15.06-.31.05-.44-.04l-2.98-2.05c-.18-.12-.31-.32-.34-.53l-.71-3.82c-.04-.2-.14-.35-.32-.44l-1.25-.68c-.24-.13-.52-.13-.76,0-1.7.9-3.38,1.8-5.03,2.72-.38.21-.81.3-1.26.26-.15-.01-.27-.14-.27-.3l.02-.92c0-.14-.08-.27-.2-.32l-1.34-.63c-.16-.07-.28-.21-.33-.38l-.81-2.72c-.07-.22-.26-.37-.48-.39l-1.42-.13c-.24-.02-.45.13-.52.35l-.25.87c-.03.12-.14.2-.27.21-1.23.02-2.47.02-3.72.02-.41,0-.71.05-1.1.24-.92.46-1.85.89-2.77,1.31-.1.05-.22.04-.32-.03-.31-.21-.78-.63-1.17-.68-.08-.01-.16,0-.23.05l-.73.46c-.13.08-.3.06-.4-.06l-1.21-1.36c-.13-.14-.31-.24-.5-.25-1.18-.11-2.33-.21-3.45-.29-1.26-.09-2.4-.73-3.53-1.23-.25-.11-.54-.09-.77.06l-3.27,2.14c-.07.04-.14.06-.22.06-.94-.02-1.05-.54-1.47-1.4-.51-1.03-1-2.01-1.48-2.94-.03-.05,0-.11.05-.14.01,0,.02,0,.04-.01l2.9-.32c.18-.02.33-.14.39-.32l.53-1.64c.07-.22-.05-.46-.27-.54-.02,0-.03,0-.05-.01-.28-.05-.55.04-.8.28-.47.45-.93.49-1.39.12-.2-.16-.4-.48-.61-.97-.49-1.13-.99-2.24-1.52-3.33-.14-.29-.15-.58-.03-.87.41-1.03.96-2.07,1.01-3.21.03-.71.09-1.44.18-2.18.04-.3-.03-.58-.2-.81-.24-.34-.47-.67-.69-1.01-.05-.07-.07-.16-.05-.24l.62-5.01c.02-.13-.02-.25-.11-.35-.9-.95-1.79-1.93-2.68-2.92-.48-.53-1-1.01-1.48-1.54-.17-.18-.28-.41-.34-.69-.34-1.53-.69-3-1.05-4.39-.03-.12,0-.24.08-.33l.76-.85c.07-.07.1-.17.09-.27l-.29-2.5c-.02-.2-.15-.38-.34-.46-.38-.18-.76-.4-1.14-.65-.13-.09-.21-.18-.23-.28-.02-.11,0-.21.07-.3.05-.06.11-.08.18-.05.5.17.87.3,1.12.41,1.2.54,2.41,1.04,3.63,1.51.36.14.7.19,1.01.16.85-.09,1.75-.13,2.68-.11.67.01,1.13-.46,1.63-.82.19-.13.42-.18.64-.12.74.18,1.49.29,2.25.34.08,0,.16.04.21.11.35.41.46.83.32,1.26-.36,1.16-.72,2.29-1.09,3.41-.09.26-.06.55.09.79l3.15,5.27c.2.34.48.43.85.27.75-.32,1.48-.63,2.21-.94.26-.11.55-.06.81.04,1.02.4,2.02.75,3,1.07.84.27,1.81.46,2.9.57,1.37.13,2.76.3,4.16.52.7.11,1.35.28,1.96.53,1.11.45,2.17.89,3.18,1.33.26.11.52.13.78.05,1.41-.43,2.83-.82,4.24-1.18Z"/>
      <path class="cls-8" d="M148.69,61.84c1.2.24,2.39.52,3.55.83.16.04.33.01.46-.09l.77-.57c.09-.06.21-.07.3-.02,1.59.9,3.09,1.92,4.74,2.79,1.33.7,2.81.65,4.23.91.57.1.84-.43,1.12-.79.12-.15.33-.19.49-.09l.74.44c.12.07.27.09.4.04,1.14-.39,2.31-.81,3.51-1.27.33-.13.66-.17,1-.13.42.05.73.24.93.57.18.3.28.6.28.9,0,.34-.04.66-.11.96-.06.22,0,.45.16.62.47.5.94,1.01,1.42,1.53.38.41.8.77,1.27,1.06,1.34.84,2.61,1.63,3.79,2.37.24.15.31.46.16.69-.03.04-.06.08-.1.11l-1.09.95c-.22.19-.29.49-.18.75.54,1.33,1.1,2.66,1.68,3.99.22.5.54.73,1.02.91.14.05.21.2.16.34,0,.02-.01.03-.02.05-.32.52-.64,1.05-.98,1.6-.24.4-1.09.49-1.51.58-.24.06-.41.28-.4.53l.25,4.01s-.02.07-.06.08l-7.63,1.56c-.23.05-.39.24-.4.47-.03.76-.07,1.58-.1,2.45-.01.31-.1.59-.27.83-.51.74-1.01,1.41-1.53,2.01-.07.08-.16.14-.26.16-1.37.33-2.69.66-3.96.98-.84.21-1.55.3-2.15.27-.71-.03-1.45-.09-2.22-.15-.09,0-.13-.06-.11-.14l.34-1.51c.04-.18,0-.37-.13-.5-.5-.58-1.01-1.12-1.54-1.6-.64-.59-.83-1.35-.94-2.13-.02-.15-.14-.27-.29-.29-.55-.08-1.11-.17-1.69-.27-.75-.13-1,.19-1.58.54-.1.06-.22.03-.28-.07-.12-.2-.23-.4-.33-.62-.18-.39-.64-.56-.93-.14-.23.34-.45.68-.67,1.02-.09.15-.25.25-.43.27l-2.47.26c-.17.02-.33-.09-.37-.25l-1.34-4.88c-.07-.26-.24-.37-.5-.33-.36.05-.72.11-1.06.18-.67.14-1.25-.74-1.37-1.3-.15-.7-.31-1.41-.49-2.14-.05-.21-.17-.4-.33-.55-.84-.77-1.71-1.55-2.62-2.35-.22-.2-.34-.44-.35-.75-.06-1.63-.12-3.24-.2-4.81-.01-.23-.07-.45-.19-.65-.44-.79-.9-1.59-1.37-2.42-.31-.55-.55-1.1-.72-1.65-.19-.6-.36-1.19-.51-1.75-.02-.07,0-.14.04-.2.24-.32.5-.6.8-.84.07-.06.15-.09.25-.09h1.7c.14,0,.26-.08.32-.21l1.57-3.84c.06-.15.13-.15.19,0,.22.49.37.73.95.85.79.17,1.56.32,2.31.48.29.06.58.05.86-.03.83-.23,1.71-.47,2.65-.72.43-.11,1.01.12,1.35.19Z"/>
      <path class="cls-6" d="M48.34,78.42c.81-.71,1.66-1.39,2.53-2.13.51-.44,1.09-.46,1.72-.37.1.02.18.08.21.18l.27.77c.09.26.37.4.64.31.01,0,.03-.01.04-.02l.87-.39c.13-.06.28,0,.34.13,0,.02.02.04.02.07.08.52.15,1.26.88,1.18.73-.08,1.42-.13,2.06-.17.18-.01.33-.15.34-.34l.03-.49c0-.07.04-.12.11-.15.18-.07.37-.07.55,0,.07.03.12.08.14.15.19.52.37,1.03.55,1.51.23.65,1.03,1.21,1.56,1.59.29.2.75.07.77-.34,0-.17-.02-.33-.1-.48-.34-.72-.69-1.44-1.05-2.18-.07-.16-.04-.35.09-.46.47-.41.91-.83,1.34-1.25.24-.23.56-.36.97-.38.12,0,.18.05.18.18l-.12,2.1c-.01.26.19.49.45.5,0,0,.02,0,.03,0h5.65c.1,0,.19.06.24.15l2.24,4.52c.07.14.18.25.32.32.46.23,1.53.67,2.02.34.85-.58,1.91-1.3,3.18-2.17.11-.07.25-.09.37-.04l1.99.86c.09.04.14.11.15.22.03,1.72.02,3.48-.04,5.25-.02.59-.28.96-.62,1.4-.14.18-.19.38-.17.61.27,2.72.57,5.55.92,8.48.02.14-.04.24-.17.29l-2.36.94c-.13.05-.24.16-.3.29l-2.06,4.87c-.03.08-.13.12-.21.08,0,0,0,0,0,0-.89-.45-1.75-.89-2.58-1.32-.52-.27-1.03.13-1.5.34-1.01.44-2.06.88-3.14,1.33-.42.17-.82.33-1.05.75-.16.29-.32.58-.48.86-.04.06-.1.11-.17.11-.4.05-.73.08-.97.09-1.91.04-3.78.1-5.63.19-.1,0-.2.03-.28.09l-2.59,1.62c-.22.14-.36.37-.37.63l-.1,2.49c0,.12-.09.22-.2.25l-7.09,2.1c-.09.03-.17,0-.22-.08l-.04-.07c-.04-.06-.02-.13.04-.16.02-.01.04-.02.05-.02l.61-.06c.25-.02.43-.24.41-.5-.01-.14-.09-.27-.22-.35-.66-.4-1.41-.91-2.23-.83-1.7.16-3.46.29-5.27.41-.57.04-.96-.1-1.29-.53-.03-.04-.02-.09.02-.12.02-.01.03-.02.05-.02.64,0,1.34.4,1.82-.25.29-.38.56-.75.83-1.1.15-.19.14-.46-.02-.64l-.98-1.13c-.13-.15-.31-.25-.51-.28l-1.86-.32c-.15-.03-.3.04-.38.17l-.36.59c-.04.06-.12.08-.18.04-.02-.01-.03-.03-.04-.05-.31-.53-.63-1.06-.96-1.61-.19-.32-.46-.53-.82-.3-.18.12-.27.35-.22.57l.36,1.4c.02.07-.03.14-.1.16-.01,0-.03,0-.04,0-.85-.07-2.13.13-2.79.79-.26.26-.35.21-.26-.15.07-.28-.02-.55-.25-.81-.49-.56-1.03-1.14-.94-1.95.01-.1.06-.18.15-.22l.94-.51c.11-.06.16-.18.16-.38,0-.1-.05-.21-.15-.32-.12-.15-.33-.2-.5-.13l-1.16.47c-.07.03-.14.03-.22,0-.84-.32-1.6-.38-1.93-1.43-.02-.07,0-.15.05-.2.2-.19.41-.4.64-.62.5-.48.16-.97-.44-1.01-.28-.02-.55-.07-.82-.14-.07-.02-.13-.08-.14-.16l-.18-1.08c-.06-.33-.25-.47-.58-.43l-.11.02c-.16.02-.29.16-.29.32-.01.73.05,1.54.2,2.42.07.45-.18.72-.75.83-.05,0-.11,0-.16,0-.56-.12-.87-.47-.92-1.04-.11-1.07-.21-2.11-.3-3.13-.03-.37-.23-.53-.6-.48-.22.03-.39.21-.4.44l-.07,1.07c0,.09-.05.16-.12.2-.69.4-1.35.58-1.99.53-.15-.01-.27-.15-.26-.3,0-.01,0-.03,0-.04.06-.27.11-.54.13-.81.08-.8-.78-.57-1.19-.37-.08.04-.17,0-.21-.07-.01-.02-.02-.04-.02-.07-.01-.44-.12-1.17-.77-1.04-.21.04-.37.24-.36.46l.02.89c0,.09-.04.17-.12.22-.19.12-.4.17-.61.15-.11,0-.21-.06-.28-.15l-2.02-2.62c-.17-.22-.46-.3-.72-.21l-1.88.69c-.09.03-.18.03-.27,0-.31-.11-.62-.29-.94-.54-.09-.07-.12-.16-.11-.27l.07-.64c.01-.11.07-.17.18-.18l.49-.07c.09-.01.17-.07.21-.14.13-.22.12-.45-.01-.7-.24-.43-.46-.88-.66-1.34-.11-.25-.37-.34-.62-.28-.18.04-.32.18-.35.37-.06.37-.1.72-.14,1.07-.02.18-.12.3-.31.36-.22.06-.35.29-.29.51l.34,1.27c.03.11,0,.24-.07.32l-1.36,1.58c-.1.11-.24.17-.39.16l-2.59-.18c-.11,0-.2-.1-.19-.21,0,0,0-.02,0-.03l.41-1.92c.06-.29.01-.59-.14-.85l-1.8-3.01c-.1-.17-.25-.3-.43-.36l-4-1.47c-.14-.05-.21-.21-.16-.35.01-.03.03-.06.05-.08.12-.14.29-.22.5-.24,1.79-.17,3.56-.35,5.31-.55.66-.08,1.02.17,1.54.5.35.22.64.14.88-.22.3-.46.96-1.21.81-1.8-.14-.56-.32-1.61-.86-1.92-.85-.5-1.67-.97-2.48-1.42-.45-.25-1.15-.34-2.1-.25-.07,0-.14.04-.19.09l-.42.48s-.1.05-.14,0c0,0-.02-.02-.02-.03-.17-.33-.33-.67-.48-1.02-.2-.44-.14-.73.03-1.14.02-.05.08-.08.14-.06.02,0,.04.02.05.04.23.37.49.52.93.63.78.19,1.58.36,2.39.5.67.11,1.29-.15,1.92-.36.16-.05.33.01.41.16.15.26.33.87.66.96,1.12.31,2.15.57,3.1.8.43.1.68-.05.76-.45.04-.22-.08-.44-.29-.52l-1.62-.64c-.13-.05-.14-.13-.04-.22.38-.33.21-.76-.2-.91-.3-.11-.59-.23-.87-.36-.14-.06-.21-.22-.16-.36.11-.39.15-.76.11-1.11-.03-.23-.23-.39-.46-.36-.02,0-.03,0-.05,0l-2.2.52c-.2.05-.29-.03-.25-.24l.03-.15c.04-.21.16-.36.36-.45.69-.31,1.16-.53,1.41-.68.27-.15.36-.36.26-.61-.14-.38-.48-.36-.79-.26-2.06.61-4.02,1.19-5.87,1.74-.4.12-1.1-.31-1.44-.49-.08-.04-.15-.05-.24-.04-.26.05-.51.14-.75.28-.85.49-1.14-.57-1.03-1.15.22-1.1.41-2.23.55-3.38.06-.48.3-.92.72-1.32.06-.06.13-.08.21-.07l4.08.41c.16.02.31-.06.39-.2.13-.24.09-.42-.12-.55-.08-.05-.16-.09-.24-.12-.4-.17-.4-.35,0-.52.33-.15.7-.27,1.04-.46.8-.46,1.6-.91,2.4-1.35.13-.08.3-.05.41.07.14.15.24.34.31.57.1.32.43.51.76.44.29-.06.56-.13.81-.21,1.8-.59,3.77-1.22,5.91-1.87.08-.03.17.02.2.11,0,.01,0,.03,0,.04l.07,2.6c0,.25.2.44.45.45.46.01.71-.78.84-1.14.02-.07.1-.11.17-.09.02,0,.04.02.06.04.26.29.62.97,1.05.9.19-.03.34-.17.39-.35.09-.4.17-.82.25-1.26.08-.51,1.01-.48,1.35-.27.56.34,1.18.73,1.87,1.16.22.14.49.19.75.16l1.55-.24c.19-.03.34-.19.35-.39l.12-2.7c.01-.26.13-.5.33-.66l1.26-1.04c.15-.12.36-.1.49.05.04.05.06.1.07.16.09.52.46.75.94.57,1.35-.53,2.57-1.04,3.66-1.53.13-.06.29,0,.35.13.01.03.02.07.02.11,0,.35-.03.94.25,1.2.18.17.39.18.63.01.34-.24.69-.48,1.05-.72.1-.07.2-.08.3-.04.07.03.11.11.09.18-.14.62-.28,1.27-.43,1.95-.06.26.05.44.33.56.18.08.39,0,.48-.17.3-.55.58-1.61,1.37-1.51.12.02.21.13.19.25,0,.02,0,.03-.01.05-.09.24-.14.49-.16.74-.02.24.1.38.33.42l1.01.16c.2.03.37.15.47.33.53.98,1.12,1.98,1.77,2.99.39.62.38,1.33.36,2.03,0,.22.1.43.29.54l1.63,1.02c.14.09.23.22.27.38l.35,1.61c.06.26.32.43.58.37.08-.02.15-.05.21-.1.84-.69,1.72-1.44,2.64-2.24Z"/>
      <path class="cls-6" d="M145.53,88.97c.15.51.29,1.02.41,1.55.06.28.33.47.61.43l3.61-.42c.09-.01.17-.05.23-.11.19-.18.35-.42.47-.71.04-.09.15-.14.24-.1.04.02.07.04.09.08l.31.56c.12.21.38.29.6.17,0,0,.01,0,.02-.01.29-.18.59-.37.91-.56.63-.38,1.08-.17,1.73-.12.16.01.24.1.25.26.02.68.15,1.23.66,1.74.52.52,1.05,1.03,1.57,1.51.06.05.09.11.09.19.1,1.17-.8,1.15-1.48,1.69-.07.06-.11.13-.11.22-.03.39.17.61.58.64,1.31.11,2.6.2,3.88.29.52.03.97.05,1.49-.07,1.65-.39,3.25-.77,4.82-1.13.16-.04.32.02.43.14l2.84,3.17c.16.18.25.4.27.64l.14,1.85c.02.25-.07.49-.24.67-.63.66-1.25,1.28-1.85,1.88-.62.62-.07,1.24.1,1.89.02.07.01.14-.02.21-.22.48-.49.83-.81,1.04-.69.46-1.47.96-2.33,1.5-.53.33-.34.78.04,1.11.71.62,1.29,1.04,1.59,2.02.2.65.41,1.31.64,1.97.04.11-.02.23-.13.27-.01,0-.02,0-.04,0l-.82.13c-.08.01-.14.05-.19.12-.37.56-1.07,1.32-.84,2.04.28.84.54,1.71.78,2.6.08.3.08.59,0,.87-.24.8-.46,1.59-.67,2.37-.07.26.02.53.24.7.36.27,1.14.77,1.32,1.21.4,1,.81,1.99,1.21,2.98.41,1.02.3,2.26.35,3.34.03.61.52.96.95,1.32.15.13.24.32.24.52-.04,1.1-.07,2.17-.24,3.29-.16,1.08-.32,2.16-.47,3.23-.02.13-.13.22-.26.22l-1.51-.02c-.08,0-.16.02-.22.07-.68.51-1.36,1.04-2.04,1.6-.31.25-.67.44-1.08.58-.93.3-1.91.62-2.92.97-.87.3-1.38.66-2.01,1.23-.25.23-.33.48-.25.77.17.59.37,1.23.6,1.92.19.57-.11,1.2-.69,1.39-.07.02-.15.04-.23.05l-3.91.44c-.19.02-.35.13-.45.29l-1.55,2.7c-.07.13-.21.2-.36.19-.61-.05-1.23-.07-1.85-.06-.68.02-1.31.47-1.96.34-1.81-.35-3.65-.72-5.53-1.13-.4-.09-.8-.15-1.2-.19-.14-.02-.28.05-.36.17-.23.33-.48.66-.76,1-.08.09-.18.14-.3.16-1.95.21-3.86.38-5.73.53-.08,0-.15.04-.2.1l-.83.94c-.14.16-.28.15-.39-.03l-.34-.53c-.11-.16-.3-.25-.49-.21-.96.18-1.88.33-2.75.46-.28.04-.53-.02-.76-.18-.09-.06-.11-.18-.05-.28.25-.42.85-1.17.19-1.55-.54-.32-1.03-.41-1.34-1.03-.38-.75-.75-1.49-1.1-2.23-.07-.15-.23-.25-.4-.24l-.98.05c-.18.01-.36-.06-.49-.18l-1.82-1.76c-.1-.09-.14-.23-.13-.36l.32-2.38c.03-.26-.03-.52-.18-.73-1.4-2.02-2.87-4.09-4.39-6.21-.41-.57-.33-1.14-.36-1.78-.01-.27-.13-.47-.37-.6-.93-.49-1.88-.99-2.85-1.49-.13-.07-.29-.06-.41,0-.51.28-.02,1.03.16,1.38.03.05,0,.12-.04.14-.02,0-.03.01-.05.01-1.19,0-2.42.05-3.69.13-.57.03-.96-.16-1.4-.45-.18-.12-.29-.29-.33-.49-.14-.83-.34-1.72-.6-2.67-.05-.19-.23-.32-.43-.3l-.83.07c-.14.01-.26-.09-.27-.23l-.1-.98c-.02-.16-.11-.31-.25-.39l-2.33-1.32c-.12-.07-.18-.22-.13-.35.73-1.9,1.47-3.83,2.2-5.8.43-1.14.72-2.17.87-3.07.18-1.05.38-2.17.59-3.34.05-.26.11-.51.2-.74.04-.1.15-.16.25-.12,0,0,.01,0,.02,0,.86.39,1.69.74,2.51,1.06.47.18.77-.21.67-.64-.06-.27-.1-.55-.12-.84-.01-.12.05-.17.17-.14.44.1.79.12,1.2-.12,1.14-.66,2.33-1.35,3.55-2.06.64-.37.6-1.19.7-1.81.02-.14.13-.25.26-.29.43-.12,1.32-.3,1.57-.73.97-1.69,2-3.47,3.09-5.36.08-.15.13-.31.12-.48-.03-.78-.07-1.6-.12-2.47-.03-.51-.25-.94-.62-1.28-.11-.1-.12-.27-.01-.38.01-.01.03-.03.04-.04.48-.34.78-.86.89-1.54.05-.33-.01-.67-.19-1.01-.39-.72-.88-1.4-1-2.23-.12-.89-.25-1.75-.37-2.59-.02-.17.05-.33.19-.42,1.09-.74,2.2-1.49,3.31-2.26.25-.17.44-.35.39-.69-.24-1.48-.31-2.96-.18-4.44.02-.28-.07-.51-.28-.69-.57-.51-1.16-1.05-1.77-1.62-.32-.3-.5-.61-.53-.93-.05-.5.11-.94.49-1.33.36-.37.72-.58,1.07-.63,1.07-.16,2.32-.25,3.27-.86.59-.38,1.18-.73,1.76-1.07.12-.07.27-.07.39,0,.33.2.66.4,1,.59.1.06.22.08.34.06,1.06-.18,2.11-.39,3.15-.62.25-.06.43-.27.43-.53,0-.42-.14-1.33.18-1.66.77-.81,1.48-1.66,2.15-2.55.03-.04.08-.04.12-.02,0,0,.02.02.02.03.38.67.75,1.31,1.1,1.92.28.49.43.92.45,1.28.08,1.58.14,3.19.18,4.86,0,.31.15.61.38.81l2.67,2.29c.17.15.29.34.33.56.15.68.3,1.4.44,2.14.15.75.82,1.15,1.32,1.66.35.37,1.14.05,1.58-.05.12-.03.24.05.27.17,0,0,0,0,0,0,.23,1.1.49,2.24.81,3.3Z"/>
      <path class="cls-7" d="M56.24,131.28c.7-.75,1.38-1.47,2.04-2.15.29-.3.29-.6-.01-.9-.64-.62-1.26-1.28-1.87-1.96-.66-.73-1.35-1-2.24-1.2-.09-.02-.15-.08-.17-.17-.01-.06.03-.13.09-.14.26-.08.4-.27.43-.54.13-.98.22-1.94.27-2.88.01-.17.1-.28.25-.34.98-.36,1.92-.7,2.84-1.04.33-.12.61-.33.53-.69-.05-.24-.27-.4-.51-.38l-3.73.33c-.16.01-.32.07-.46.17l-1.95,1.39c-.1.07-.23.06-.32-.02-.31-.27-.56-.59-.99-.68-.83-.17-1.65-.31-2.46-.43-.19-.03-.36-.16-.43-.34l-.84-2.01c-.1-.23-.04-.5.14-.67l1.6-1.52c.14-.13.3-.22.48-.28l7.59-2.22c.28-.08.43-.27.44-.56l.14-2.47c.01-.23.15-.45.36-.55.54-.28,1.05-.61,1.52-.99.32-.25.78-.39,1.39-.4,2.06-.05,4.06-.13,6-.23.15,0,.28-.09.35-.22l.66-1.23c.04-.07.1-.13.18-.16,1.18-.52,2.39-1.06,3.63-1.62.48-.21.74-.27,1.26.01.89.49,1.81.99,2.77,1.53.41.23.78-.07.84-.48.06-.37.14-.74.28-1.09.52-1.31,1.03-2.61,1.54-3.89.08-.19.23-.35.42-.42l2.45-.97c.18-.07.3-.26.28-.46-.28-2.76-.59-5.65-.92-8.67-.03-.27.04-.52.2-.74.3-.41.49-.65.51-1.22.06-1.79.07-3.58.04-5.38,0-.11.08-.19.19-.2,0,0,.02,0,.03,0l3.41.37c.18.02.35.11.46.26.44.56.87,1.06,1.29,1.49.52.53,1.08-.1,1.52-.4.11-.08.26-.08.38-.01.26.14.5.31.72.5.2.18.45.2.72.07.93-.44,1.81-.87,2.63-1.3.42-.22.85-.33,1.29-.34,1.29-.02,2.61-.02,3.97,0,.82.01.68-.8.91-1.34.03-.07.08-.11.16-.11.19,0,.37.03.52.12.06.04.11.09.13.17.27.89.54,1.78.82,2.66.04.13.18.25.43.37.38.18.76.35,1.12.5.13.05.21.18.21.32l-.04,1.11c0,.2.15.36.34.36,0,0,0,0,0,0h1.63c.16.02.31-.02.46-.1l4.89-2.56c.53-.28,1.2-.07,1.47.46.05.09.08.19.1.3l.72,3.67c.04.22.17.4.36.52,1.3.82,2.44,1.6,3.43,2.34.54.41,1.16.04,1.69-.15.1-.04.19-.01.26.07.36.43.74.86,1.15,1.28.47.5,1.06.52,1.68.65.11.02.2.09.26.18.24.36.47.76.69,1.21.41.82-.4,1.37-.91,1.88-.53.53.32,1.23.59,1.64.14.22.22.47.23.75.03.76.25,1.75-.14,2.42-.93,1.59-1.84,3.13-2.73,4.62-.1.16-.25.29-.43.34l-1.26.4c-.16.05-.27.18-.3.35l-.23,1.43c-.03.16-.12.3-.26.38-1,.58-2.01,1.16-3.01,1.75-.64.37-1.1.25-1.77.17-.37-.05-.57.15-.53.54.02.23.05.45.07.68.02.14-.04.19-.17.13l-2.2-.96c-.24-.11-.53,0-.63.25,0,.02-.01.03-.02.05-.18.6-.43,1.2-.55,1.83-.36,1.92-.56,3.82-1.28,5.69-.83,2.15-1.62,4.27-2.35,6.35-.06.16-.16.31-.28.42l-2.81,2.52s-.1.04-.14,0c-.26-.24-.51-.5-.76-.78-.11-.12-.25-.17-.42-.17-1.33.01-2.62.02-3.88.04-1.39.02-2.76.26-4.12.46-.21.03-.41.15-.54.32l-1.47,1.95c-.14.19-.36.3-.59.32l-5.95.4c-.18.01-.32.14-.36.32-.03.16,0,.35.09.56.33.8.65,1.64.97,2.53.09.25.28.51.57.78.58.55,1.16,1.1,1.73,1.65.06.06.1.13.12.21.39,1.5.85,2.96,1.17,4.45.3,1.36.67,2.75,1.12,4.17.09.29.13.57.12.85-.04,1.14-.08,2.25-.12,3.32-.02.46.34.72.66.96.06.05.07.13.03.19-.01.02-.03.03-.05.04l-3.36,1.62c-.15.07-.33.05-.46-.05-.24-.19-.49-.37-.75-.55-.07-.05-.14-.07-.23-.07-.91,0-1.76.04-2.54.1-.07,0-.12-.04-.13-.11,0-.02,0-.04,0-.06l.34-.75c.05-.12.04-.26-.03-.37-.15-.23-.35-.29-.62-.18-1.48.58-2.93,1.15-4.37,1.74-.14.06-.29.07-.43.04l-1.12-.22c-.16-.03-.32.04-.41.18-.12.2-.18.41-.18.66,0,.11-.09.2-.21.2-.05,0-.1-.02-.13-.05-.46-.43-.91-.81-1.34-1.17-.7-.57-2.18-.71-3.11-.82-.2-.03-.37-.16-.45-.34l-.53-1.32c-.09-.22-.29-.39-.53-.43-.87-.16-2.1-.23-2.8-.85-1.11-.99-2.25-1.94-3.41-2.84-.12-.09-.2-.22-.25-.36l-.91-3.18c-.06-.21-.16-.4-.3-.56l-4.92-5.72c-.15-.17-.25-.38-.29-.61-.07-.41-.13-.85-.17-1.32-.03-.34.04-.61.22-.79.5-.52,1.01-1.06,1.53-1.62Z"/>
      <path class="cls-6" d="M258.55,112.32l-1.47.21c-.19.03-.36.12-.48.26-.47.55-.95,1.09-1.44,1.63-.59.65-.84,1.49-1.04,2.32-.04.17.02.35.15.46l1.72,1.43s.05.1.01.15c0,0,0,0,0,0l-.8.77c-.07.06-.09.14-.08.23l.12,1.2c.01.1-.02.19-.08.27-1.78,2.16-3.54,4.33-5.3,6.52-.41.51-.82.91-1.23,1.19-1.25.87-2.51,1.75-3.76,2.62-.2.14-.32.38-.3.63l.37,4.51c.01.17-.04.31-.16.42l-5.75,5.27c-.12.11-.21.25-.25.41l-1.73,5.98c-.58,1.09-1.29,2.17-2.12,3.22-.13.16-.39.39-.6.52-.68.42-1.37.82-2.06,1.21-.29.17-.84.25-1.63.25-.08,0-.12-.04-.14-.11l-.14-.9c-.03-.16-.13-.29-.27-.36l-1.75-.82c-.21-.1-.47-.05-.62.13-.59.65-1.19,1.28-1.78,1.9-.17.18-.45.25-.85.22-.1,0-.15-.06-.15-.16v-.95c0-.25-.2-.45-.45-.46l-1.13-.04c-.1,0-.2-.06-.25-.15l-1.94-3.48c-.07-.13-.17-.24-.3-.32l-2.37-1.6c-.21-.14-.44-.18-.69-.13l-2.25.53c-.21.05-.42.05-.63,0l-2.73-.71c-.22-.06-.44.07-.51.29l-2.81,9.85c-.02.06-.08.1-.14.08-.02,0-.04-.02-.06-.04l-2.26-2.98c-.16-.21-.47-.26-.69-.09-.04.03-.08.07-.11.12l-.41.62c-.07.11-.21.14-.32.07l-.75-.45c-.19-.11-.42-.1-.59.02l-.74.53c-.1.07-.24.07-.34-.02l-.57-.5c-.2-.18-.49-.18-.7-.02-.38.3-.78.62-1.2.96-.17.14-.24.38-.23.72.01.26-.02.51-.1.75-.06.19-.22.37-.48.54-.59.38-1.19.78-1.8,1.21-.13.09-.31.07-.42-.05-.3-.34-.7-.85-1.24-.74-1.21.25-2.39.48-3.52.69-.17.03-.35,0-.5-.09-.65-.4-1.27-.79-1.87-1.16-.62-.38-.3-1.33.05-1.77.47-.59.94-1.17,1.41-1.76.12-.15.19-.32.21-.51.08-.74.14-1.52.2-2.33.03-.43-.05-.78-.23-1.03-.22-.3-.42-.6-.61-.9-.06-.09-.14-.16-.25-.2-1.38-.53-2.67-1.01-3.86-1.46-.12-.04-.2-.12-.25-.24-1.03-2.27-2.14-4.54-3.34-6.79-.07-.12-.18-.21-.32-.24-.16-.04-.3,0-.41.11-.91.89-1.82,1.79-2.73,2.69-.07.07-.18.07-.25,0l-1.73-1.47c-.19-.17-.47-.19-.69-.05-.56.34-1.1.76-1.79.77-.8,0-1.57-.03-2.31-.1-.16-.02-.32-.09-.43-.21l-2.37-2.56c-.12-.13-.17-.31-.14-.48.27-1.67.58-3.33.66-5.05.04-.79.08-1.52.12-2.2.01-.2-.07-.39-.21-.52-.37-.35-.96-.69-.95-1.26,0-.63-.02-1.28-.07-1.95-.04-.52-.21-1.11-.52-1.79-.38-.84-.74-1.68-1.09-2.53-.26-.63-.74-.9-1.27-1.26-.16-.11-.23-.31-.17-.49l.7-2.28c.06-.21.06-.42,0-.63-.28-.88-.56-1.77-.83-2.67-.1-.33,0-.68.31-1.06.33-.41.95-.35,1.43-.5.34-.11.45-.35.33-.72-.37-1.17-.73-2.35-1.1-3.51-.13-.42-.71-.83-1.04-1.1-.19-.16-.18-.3.04-.41.69-.37,1.28-.73,1.77-1.09.36-.26.72-.72,1.1-1.37.3-.52-.02-1.08-.22-1.58-.06-.16-.03-.35.09-.48l1.95-2.1c.14-.15.21-.35.19-.55l-.18-2.66c-.02-.29-.12-.54-.32-.75l-2.91-3.31c-.12-.13-.12-.27-.02-.41l1.53-2.04c.17-.23.27-.51.27-.8l.02-2.22c0-.09.06-.16.15-.18,2.38-.46,4.73-.93,7.05-1.4.78-.16,2.02.57,2.5,1.19.52.68,1.06,1.34,1.6,1.98.1.12.18.25.22.4.44,1.37.86,2.71,1.26,4.02.08.25.24.35.49.31.32-.06.63-.53.87-.75.11-.11.29-.11.4,0,.01.01.03.03.04.05.28.43.61.86.99,1.28.2.22.44.66.72,1.32.66,1.54,1.34,3.08,2.04,4.63.13.28.34.39.65.34,2-.34,3.98-.61,5.94-.8.67-.07,1.3.3,1.89.55.18.07.38.04.52-.08.3-.26.82-.85,1.21-.95.13-.03.26-.05.41-.06.75-.07,1.46-.16,2.13-.27.4-.07.73-.21.98-.42.63-.52,1.21-1.01,1.74-1.47.15-.13.34-.18.53-.16l2.83.39c.14.02.26.13.28.28.03.22.06.45.08.69.07.68.72.73,1.24.89.15.05.24.19.22.34-.03.25-.08.5-.13.74-.1.45.09.68.57.69.37,0,.72.03,1.05.07.09.01.17.05.23.12.51.61.86,1.28,1.04,2.02.02.08,0,.14-.05.19-.3.29-.62.57-.98.84-.31.24-.38.55-.19.93.33.67.67,1.39,1.03,2.18.1.21.29.37.53.42,1.19.25,2.38.51,3.59.78.77.17,1.5.45,2.19.84.08.05.12.11.11.21-.03.37-.02.75,0,1.14.02.24.13.38.32.42.1.02.26,0,.47-.05,1.48-.4,2.82-1.07,4.03-2.02.06-.05.09-.11.1-.18.02-.18-.02-.33-.13-.46-.06-.07-.04-.17.03-.23,0,0,.01,0,.02-.01l1.99-1.19c.16-.09.36-.07.49.05.29.27.76.8,1.23.63.53-.19,1.06-.36,1.59-.52.12-.04.21-.15.22-.27.09-1.33.15-2.59.18-3.79.01-.66.34-1.07.82-1.46.06-.05.13-.07.2-.06.27.03.56.06.85.11.35.05.62-.06.81-.32.33-.46,1.23-1.52,1.13-2.08-.03-.17.04-.33.18-.43l3.33-2.38c.12-.09.29-.09.41-.01l2.99,1.87c.26.16.58.2.88.1l2.06-.69c.22-.07.47-.03.65.11l1.97,1.51c.22.17.52.21.78.09l2.13-.92c.15-.07.33-.04.45.07,1.25,1.05,2.54,2.09,3.85,3.11.22.17.46.18.72.09.18-.06.37-.04.53.07l2.88,1.95c.15.11.25.28.26.46l.26,4.28c.01.23.21.4.44.39,0,0,0,0,0,0l1.05-.06c.1,0,.19.05.22.14l.62,1.65Z"/>
      <path class="cls-8" d="M89.96,265.66l-2.54,1.29c-.07.04-.14.04-.21,0l-.92-.57c-.16-.1-.36-.09-.5.02l-.78.58c-.07.05-.17.05-.23,0-.99-.81-1.98-1.62-2.98-2.42-.4-.32-.71-.68-.95-1.07-.36-.59-.69-1.2-1-1.83-.11-.21-.33-.34-.56-.33-.86.04-1.74.1-2.63.17-.34.03-.71-.04-1.12-.2-1.76-.68-3.59-1.3-5.26-2.18-.62-.33-1.23-.66-1.85-.99-.07-.04-.11-.1-.12-.18l-.11-1.31c-.04-.44-.27-.6-.7-.48l-1.49.44c-.17.05-.29.2-.32.37l-.16,1.26c-.01.1-.07.14-.17.11l-.99-.24c-.1-.02-.17-.08-.21-.18l-.3-.66c-.04-.1-.02-.21.07-.28.48-.39,1.02-.77,1.22-1.39.31-.96.61-1.91.91-2.84.03-.09.02-.18-.02-.26l-.79-1.6c-.06-.12-.17-.2-.29-.22-1.14-.23-2.28-.46-3.41-.68-.33-.06-.58.02-.75.25-.25.34-.38.3-.38-.13,0-.39-.14-.59-.5-.76-.67-.31-1.38-.64-2.13-.97.73-.52,1.44-1.03,2.12-1.55.47-.36.87-.76,1.19-1.2.66-.9,1.28-1.75,1.88-2.54.27-.36.5-.77.69-1.23.34-.81.75-1.57,1.14-2.36.18-.35.31-.73.39-1.13.85-3.99,1.72-7.98,2.61-11.97,0,0,.11-.56.33-1.66.15-.77.38-1.53.54-2.29.66-3.1,1.35-6.16,2.09-9.18.1-.43.16-.83.17-1.23.02-.89-.14-1.78.26-2.63.38-.79.74-1.56,1.08-2.3.04-.1.15-.15.25-.14.96.16,1.88.3,2.76.43.44.06.65-.15.63-.65-.04-.8,0-1.41-.58-2.06-.62-.7-1.27-1.46-1.94-2.28-.17-.2-.4-.27-.68-.18-.08.02-.13.07-.17.14l-.41.83c-.29.57-.39.54-.31-.09.92-7.29,1.82-14.67,2.68-22.16.04-.3.11-.55.21-.75.24-.47.49-.96.73-1.47.02-.05.08-.07.13-.04.01,0,.03.02.04.03.14.2.29.38.45.55,1.38,1.46,3,3.06,4.88,4.81.31.29.51.63.63,1.03.36,1.16.73,2.33,1.11,3.51.08.26.36.4.62.32.11-.03.2-.11.26-.2l1.08-1.67c.09-.13.12-.28.1-.43-.22-1.81-.83-3.53-1.32-5.29-.07-.26-.27-.56-.59-.9-1.46-1.56-2.92-3.12-4.37-4.69-.44-.47-.96-.91-1.58-1.32-.88-.58-1.81-1.14-2.77-1.68-.61-.34-.75-1.2-.89-1.83-.03-.12.02-.25.13-.32l1.9-1.28c.18-.12.32-.28.41-.47l1.36-2.78c.08-.17.09-.34.04-.52l-.6-1.96c-.04-.15.04-.3.18-.34.02,0,.05-.01.07-.01.22,0,.42-.04.61-.1.35-.11.44-.33.27-.66-.7-1.37-1.36-2.69-1.99-3.96-.22-.45-.62-.57-1.07-.62-.15-.02-.26-.16-.24-.31,0-.01,0-.02,0-.04.06-.21.14-.42.25-.63.63-1.2,1.16-2.33,1.58-3.41.06-.15.18-.26.33-.31.91-.3,1.82-.65,2.72-1.04.35-.15.45-.05.3.3-.07.16-.08.31-.02.47.04.1.11.15.21.16,1.06.09,2.11.08,3.15-.04.78-.09,1.16,1.27,2.1.83,1.36-.64,2.71-1.31,4.05-1.99.27-.14.58-.23.77-.47.15-.19.12-.47-.07-.62l-.96-.78c-.09-.08-.15-.19-.16-.31-.05-.92-.04-1.82.03-2.71.04-.53,0-1.05-.11-1.58-.28-1.27-.59-2.49-.95-3.66-.27-.88-.49-1.71-.66-2.48-.2-.9-.42-1.73-.65-2.48-.19-.6-1.14-1.36-1.65-1.84-.41-.39-.7-.75-.85-1.06-.27-.57-.51-1.17-.72-1.8-.01-.04,0-.09.05-.1,0,0,.01,0,.02,0l5.66-.38c.19-.01.34-.09.45-.24l1.63-2.17c.06-.08.16-.14.26-.16,1.14-.17,2.3-.39,3.45-.39,1.24,0,2.45-.03,3.63-.09.2-.01.4.07.55.22l.81.85c.2.21.53.22.74.03l3.12-2.78c.06-.05.15-.06.22-.02l1.92,1.17c.14.08.23.23.25.39l.15,1.22c.03.25.25.43.5.41l.94-.09c.11-.01.21.06.23.17l.56,2.55c.03.13.11.24.21.31.7.47,1.56.9,2.42.85,1.57-.09,3.08-.17,4.56-.23.36-.02.58-.2.64-.56.01-.06.07-.11.14-.1.01,0,.03,0,.04.02l.68.41c.08.05.12.12.14.21.1.64.05,1.27.44,1.84,1.42,2.06,2.87,4.1,4.35,6.12.16.22.2.48.13.79-.17.69-.29,1.43-.36,2.21-.03.33.08.6.33.82.68.57,1.36,1.18,2.05,1.81.42.39.87.38,1.39.35.23-.01.45.12.54.33.28.64.59,1.29.91,1.94.23.47.48.7.96.85.14.05.22.2.17.34,0,.01-.01.03-.02.04-.15.28-.29.57-.43.87-.22.47.31.67.63.82.5.22,1.02.46,1.58.35.79-.15,1.58-.3,2.36-.46.11-.02.19.02.24.11.24.44.72,1.53,1.41.84.38-.38.74-.75,1.07-1.09.08-.09.19-.14.31-.16,1.71-.21,3.57-.39,5.57-.54.51-.04.87-.62,1.09-1.03.09-.16.27-.25.46-.21,1.23.27,2.51.51,3.82.72.32.05.79.15,1.41.3.65.16,1.22.33,1.88.14.84-.25,1.84-.3,3-.14.09.01.16.08.17.17.11.72.17,1.62.87,2.06,1.04.66,2.07,1.31,3.07,1.96.25.16.46.4.58.67.49,1.1.99,2.2,1.48,3.32.29.67.07,1.41-.01,2.09-.04.31.03.71.19,1.18.29.85.58,1.69.86,2.53.02.06,0,.14-.05.18l-4.66,4.3c-.1.09-.14.23-.1.36.04.14.11.28.21.4.58.73,1.14,1.42,1.68,2.06.7.82.84,2.04,1.03,3.05.02.08,0,.16-.03.23-.3.57-.89.98-.79,1.67.27,1.88.57,3.92.89,6.12,0,.07-.03.13-.1.14-.02,0-.04,0-.06,0l-2.19-.75c-.48-.16-.76,0-.85.5-.07.42-.14.83-.2,1.23-.06.41-.31.72-.57,1.02-1.02,1.21-2.04,2.44-3.03,3.67-.63.78-.59,1,.09,1.71.12.13.11.32-.01.44,0,0,0,0,0,0l-.62.55c-.06.05-.09.11-.1.18-.06.34-.1.74-.12,1.19-.03.71-.83.74-1.34.94-.39.16-.48.42-.29.78.15.28.3.56.45.86.1.21.02.45-.18.56l-.95.52c-.06.03-.13.05-.2.05l-2.98-.14c-.25-.01-.5.05-.73.16l-2.08,1.08c-.09.05-.21.04-.29-.04l-3.12-2.83c-.14-.13-.31-.19-.5-.17l-4.31.38c-.08,0-.15.05-.19.12-.11.17-.17.36-.19.57-.15,1.66-.46,3.24-.93,4.73-.05.18-.15.32-.3.42-.62.42-1.28.88-1.98,1.37-.23.16-.31.37-.26.64l.25,1.24c.02.13-.04.26-.15.32l-2.38,1.29c-.23.12-.42.29-.59.49-.66.83-1.29,1.67-1.87,2.52-.6.87-1.42,1.6-2.18,2.34-.14.13-.19.33-.14.52l1.2,4.08c.04.14-.04.28-.18.32,0,0,0,0,0,0l-3.2.82c-.19.05-.33.23-.33.43l.02,1.69c0,.08.03.15.09.21.18.18.38.31.59.4.12.05.18.19.13.32-.01.02-.02.05-.04.07-.62.7-1.2,1.41-1.76,2.13-.19.24-.23.47-.07.74.21.37.11.53-.31.49-.2-.02-.36.05-.5.2-.49.55-.93,1.13-1.31,1.74-.47.75-1.38,1.35-2.29,1.22-1.17-.17-2.38-.3-3.6-.4-.28-.02-.55.03-.8.17-.7.39-1.93,1.24-2.74,1.17-1.17-.09-2.39-.16-3.66-.21-.19,0-.36.08-.46.24l-.53.84c-.04.06-.11.1-.19.09-.41-.05-.84-.13-1.28-.24-1.35-.34-.36,1.54-1.21,1.9-.12.05-.26,0-.31-.13,0-.01-.01-.03-.01-.04l-.12-.64c-.07-.36-.28-.49-.63-.39l-4.9,1.43c-.2.06-.33.24-.32.45.04.89.09,1.84.14,2.83.03.48-.08.8-.23,1.22-.54,1.43-1.11,2.92-1.72,4.47-.15.39-.2.79.03,1.19.23.39.45.77.68,1.14.08.13.21.21.36.23.93.1,1.86.14,2.81.13.24,0,.46.14.55.36l.87,2.08c.06.14.05.3-.02.44l-.55,1.06c-.1.19-.02.43.17.53.06.03.12.04.18.04h1.07c.07,0,.13.05.14.12l.17,2.74c.01.17-.08.34-.23.42l-.89.48c-.14.08-.22.24-.19.39l.23,1.25c.03.18-.02.36-.14.5-1.06,1.21-2.15,2.4-3.26,3.57-.18.19-.36.39-.54.62-.37.45-.25,1.03-.11,1.53.03.11-.03.23-.14.26,0,0,0,0-.01,0-.53.12-1.28.12-1.59.7-.3.56-.77,1.24-.83,1.79-.17,1.39-.38,2.73-.64,4.01ZM95.83,251.21c-.29.18-.61.34-.88.48-.24.13-.33.43-.21.67.04.07.09.12.15.17l1.18.85c.2.14.48.1.63-.1.05-.07.08-.16.08-.26l.02-1.56c0-.09-.03-.16-.09-.22-.24-.23-.53-.24-.88-.02Z"/>
      <path class="cls-8" d="M237.62,149.92l1.03.61c.08.05.13.14.11.24l-.42,2.71c-.02.14-.11.27-.23.35l-2.67,1.62c-.12.07-.2.2-.22.34l-.3,2.74c-.03.25.16.48.41.51.04,0,.07,0,.11,0l3.49-.44c.26-.03.5-.13.7-.29l3.45-2.7c.22-.17.26-.49.09-.71,0,0,0,0,0,0l-.96-1.2c-.06-.08-.08-.19-.03-.28l1.03-2.09c.03-.07.11-.1.18-.07l1.15.49c.22.09.48.05.66-.1l2.36-1.95c.1-.08.22-.13.35-.14,1.08-.08,2.15-.16,3.2-.23.76-.05,1.4.01,1.92.2.08.03.11.08.1.16-.07.49-.33.96,0,1.42.52.74,1.06,1.53,1.61,2.39.05.08.06.16.03.25l-1.03,2.83c-.07.19-.02.41.12.55,1.1,1.08,2.19,2.12,3.28,3.13.87.8,1.54,1.79,2.26,2.76.04.06.06.13.05.2-.08.68-.31,1.2-.69,1.58-1.37,1.31-2.67,2.58-3.9,3.82-.18.18-.24.4-.21.67.08.56.16,1.07.23,1.52.02.11.07.2.14.28.35.33.69.67,1.03,1.01.28.27.66.51,1.14.71.63.26,1.27.53,1.91.79.11.04.16.16.11.27-.25.66-.29,1.19,0,1.88.31.77.62,1.51.91,2.22.07.16.18.3.32.4l3.27,2.29c.07.05.09.14.05.21l-1.15,2.15c-.1.19-.11.42-.02.62l.43.9c.03.07.03.15,0,.22l-.66,1.23c-.09.16-.22.29-.39.36l-9.51,4.07c-.88.27-1.8.48-2.76.64-.63.11-1.07.28-1.41.77-.12.17-.33.23-.52.14l-3.49-1.58c-.33-.15-.57-.06-.72.28-.25.57-.94,1.92-.72,2.52.2.57.44,1.16.71,1.77.13.3.34.55.61.75.54.39,1.08.77,1.6,1.12.1.07.15.18.14.3l-.1,1.63c0,.13-.12.22-.25.22-.04,0-.07-.01-.1-.03-.4-.24-.83-.29-1.29-.15-1.95.6-4.03,1.25-6.23,1.95-.5.16-.58.88-.72,1.32-.05.15-.17.26-.32.3-.76.2-1.51.37-2.27.5-.24.04-.4.17-.49.39-.37.89-.58,1.79-.64,2.7-.01.19-.17.35-.36.36l-2.36.15c-.14,0-.26.1-.31.23-.43,1.14-.86,2.3-1.28,3.48-.06.16-.07.31-.03.46.03.14.11.26.24.33.27.17.54.37.8.59.09.08.11.18.06.29-.12.24-.3.42-.54.54-.08.04-.17.05-.25.02l-1.63-.58c-.24-.09-.44-.02-.59.19-.57.81-1.11,1.64-1.64,2.48-.29.46-.1.72.16,1.2.28.54.54.99,1.08,1.3,1.5.86,2.95,1.69,4.36,2.48.12.07.2.2.19.34v1.37c-.01.13-.08.2-.2.2-.44.03-1.25-.03-1.58.36-.56.67-1.15,1.32-1.77,1.94-.09.09-.22.11-.32.06l-1.6-.74c-.08-.04-.13-.09-.16-.18-.1-.31-.14-.62-.13-.93,0-.44-.22-.59-.64-.64-1.39-.17-2.78-.27-4.16-.3-.14,0-.25-.11-.26-.24-.06-.75-.12-1.51-.17-2.27-.02-.23-.07-.39-.15-.48-.21-.23-.59-.14-.8.08-.23.24-.48.47-.74.69-.12.11-.31.11-.43,0-.26-.22-.58-.37-.95-.45-.08-.02-.15,0-.22.02l-4.09,1.81c-.1.04-.21.02-.28-.07l-1.41-1.72c-.13-.16-.33-.27-.54-.3l-3.07-.37c-.2-.02-.38.12-.4.31,0,.02,0,.03,0,.05v1.02c.01.06-.04.11-.1.11-.02,0-.04,0-.05-.01-.5-.27-.98-.54-1.45-.83-.88-.55-1.76-.58-2.7-.45-.07,0-.13.04-.19.09l-.34.31s-.12.04-.16,0c-.02-.02-.03-.04-.03-.07l-.05-.49c-.02-.24-.24-.42-.48-.4-.07,0-.13.03-.19.06l-3.34,2.06c-.11.07-.25.06-.35,0-1-.68-2.02-1.35-3.06-2.03-.32-.21-.55-.51-.73-.89-.88-1.78-1.79-3.61-2.73-5.48-.37-.73-.64-1.42-.8-2.06-.31-1.26-.62-2.53-.94-3.81-.03-.11-.09-.22-.18-.29l-4.49-3.93c-.15-.13-.33-.21-.53-.23l-1.43-.14c-.24-.02-.46.16-.48.4,0,0,0,0,0,.01l-.05.75c0,.11-.1.19-.21.19,0,0-.02,0-.02,0l-2.06-.41c-.17-.03-.31-.17-.35-.34-.14-.6-.3-1.21-.47-1.85-.25-.91-.93-1.4-1.67-1.79-.16-.08-.35-.06-.49.06l-3.57,3.1c-.06.05-.14.04-.19-.01,0,0,0,0,0-.01-.26-.37-.61-1.01-1.17-.77-.09.04-.17.12-.22.25-1.04,2.37-2.1,4.76-3.16,7.16-.02.05-.08.07-.12.05-.02,0-.03-.02-.04-.03-.22-.33-.41-.72-.58-1.19-.17-.48.03-1.07.11-1.57.05-.33-.06-.52-.36-.68-.31-.18-.61-.38-.88-.6-.06-.05-.1-.11-.13-.19l-.47-1.62c-.09-.3-.27-.57-.52-.75l-2.53-1.88c-.19-.15-.46-.13-.64.03-.73.66-1.43,1.28-2.1,1.86-.34.3-.58.65-.71,1.05-.36,1.1-.72,2.23-1.09,3.38-.15.46-.39.92-.73,1.37-.37.49-.77.97-1.19,1.44-.13.15-.34.22-.54.18-.81-.18-1.61-.37-2.4-.57-.31-.08-.6-.02-.89.17-.65.44-1.29.84-1.91,1.21-.09.05-.2.03-.25-.06l-1.1-1.6c-.11-.16-.14-.36-.08-.55l.77-2.51c.05-.17.03-.36-.07-.51-.47-.75-.95-1.51-1.44-2.3-.28-.46-.46-.89-.53-1.29-.09-.52-.2-1.05-.34-1.57-.06-.24.02-.42.23-.54l1.18-.69c.19-.11.27-.36.17-.56l-.43-.91c-.14-.3-.06-.5.26-.61.55-.18,1.15-.17,1.12-.95-.01-.42.01-.82.07-1.19.02-.1.07-.19.16-.26l.94-.7c.2-.15.25-.44.09-.64h0s-.51-.69-.51-.69c-.09-.12-.09-.3,0-.42,1.07-1.44,2.19-2.87,3.36-4.3.35-.43.39-.89.44-1.43.01-.13.13-.22.26-.21.02,0,.03,0,.05.01l2.56.85c.25.08.52-.05.61-.3.02-.07.03-.15.02-.22l-1-6.94c-.02-.12.01-.25.09-.35l.65-.93c.12-.17.17-.39.12-.6l-.57-2.54c-.06-.27-.18-.51-.35-.72l-1.77-2.17c-.06-.07-.05-.18.02-.24l4.4-4.02c.2-.18.27-.46.18-.71-.35-1.05-.7-2.09-1.07-3.12-.19-.54.11-1.46.13-2.07.01-.35-.07-.73-.24-1.12-.54-1.23-1.07-2.43-1.58-3.6-.1-.23-.26-.42-.47-.56l-3.32-2.22c-.12-.08-.21-.21-.26-.35l-.34-1.13c-.05-.18-.03-.37.06-.53l1.29-2.24c.1-.17.27-.28.47-.3,1.29-.12,2.59-.26,3.9-.42.27-.03.47-.15.6-.35.22-.34.44-.66.66-.98.17-.25.2-.53.1-.85-.24-.74-.47-1.43-.68-2.06-.02-.07-.02-.14.02-.2.25-.37.57-.63.96-.77,1.06-.39,2.34-.82,3.86-1.28.23-.07.57-.27,1.01-.6.58-.44,1.13-.87,1.65-1.3.12-.1.28-.16.44-.16.41,0,1.44-.14,1.74.23.85,1.04,1.73,2.02,2.65,2.95.11.11.26.18.41.18,1.01.02,2.02.04,3.03.05.66,0,1.12-.32,1.62-.68.08-.06.19-.05.26.01l1.81,1.57c.25.22.63.2.86-.04l2.4-2.49c.07-.07.18-.07.25,0,.02.02.03.03.04.05,1,2.17,2.04,4.24,3.14,6.21.09.17.23.28.41.35,1.2.42,2.35.83,3.47,1.25.54.2,1.02.96,1,1.53-.02.77-.08,1.51-.18,2.22-.01.08-.04.15-.09.22l-1.73,2.06c-.14.17-.21.37-.21.59l.02,1.4c0,.19.1.37.26.47l2.54,1.59c.19.12.42.16.64.12l3.63-.73c.15-.03.27.02.36.14.35.46.81,1.23,1.49.77.84-.58,1.73-1.17,2.66-1.78.79-.52.21-1.37.71-1.95.17-.19.36-.34.58-.44.09-.04.17-.03.25.04l.56.5c.21.19.52.2.74.03l.69-.53c.13-.1.3-.09.43,0,.71.55,1.21,1,1.78-.1.04-.08.14-.12.23-.07.03.01.05.03.06.06.76,1.11,1.54,2.21,2.36,3.3.23.3.49.36.79.18.06-.04.11-.1.14-.17.06-.14.1-.28.14-.42.94-3.29,1.87-6.66,2.79-10.1.03-.1.13-.15.22-.13l2.14.57c.28.07.57.08.85.01l1.99-.47c.21-.05.44,0,.62.12.51.36,1.05.72,1.62,1.06.25.15.46.38.64.71.62,1.13,1.24,2.25,1.86,3.38.3.55.94.38,1.44.37.1,0,.15.05.16.15.02.3.02.61,0,.94-.01.35.15.52.47.51.52-.02,1.01-.04,1.47-.07.23-.02.45-.12.61-.3l1.52-1.69c.11-.12.29-.16.44-.08l.84.43c.08.04.12.1.13.18.08.48.03,1.39.59,1.43,1.06.07,1.84.02,2.33-.15.47-.16,1.26-.62,2.38-1.37.38-.26.74-.6,1.06-1.03.63-.83,1.24-1.67,1.83-2.53Z"/>
      <path class="cls-7" d="M252.22,191.75l.98,2.24c.07.17.24.28.43.28h.9c.08,0,.14.06.15.13l.35,2.9c.02.18.11.31.26.41.79.5,1.62,1.02,2.46,1.57.23.15.48.23.76.24.93.04,1.78.08,2.54.12.06,0,.11.04.14.1l1.5,3.75c.04.1,0,.15-.1.13-.34-.06-.71-.07-1.12-.04-.1,0-.18.05-.24.12-.53.64-1.14,1.15-1.3,2.04-.13.69-.27,1.38-.44,2.06-.12.5-.54.77-.95,1.04-.39.26-.49.56-.2.97.54.77,1.11,1.55,1.72,2.34.09.12.11.25.05.39l-.84,2.15c-.06.16-.03.35.08.48l3.3,3.99c.07.08.16.14.27.16l2.89.55c.23.04.45.12.65.23l4.38,2.34c.21.11.45.13.68.05l5.61-1.99c.09-.03.16,0,.22.07l1.55,2.03c.05.07.06.14.02.21-.37.8-.68,1.59-1.19,2.31-.94,1.34-1.88,2.66-2.81,3.94-.12.16-.18.34-.2.54l-.22,3.36-7.36,3.99c-.19.1-.33.28-.37.49l-.32,1.4c-.06.25-.23.47-.46.58l-2.31,1.09c-.21.1-.38.26-.49.46l-1.89,3.43c-.09.16-.25.27-.43.3l-2.32.32c-.16.02-.31.11-.4.24l-3.18,4.23c-.16.21-.12.51.09.67.03.02.06.04.1.06l1.31.57c.1.04.15.16.11.27l-.72,1.8c-.04.1-.11.15-.22.16-.39.02-.81-.01-1.26-.1-.32-.06-.53,0-.76.22-.49.45-.97,1.02-1.62,1.17-.77.18-1.57.35-2.4.53-.26.06-.4.22-.4.48l-.02.66c0,.12-.1.22-.23.21-.01,0-.02,0-.03,0l-3.11-.54c-.22-.04-.44.08-.52.29l-.54,1.35c-.08.2-.18.21-.29.03-.09-.15-.24-.25-.45-.3-.95-.25-1.88-.48-2.77-.7-.18-.05-.38-.04-.56.01l-3.6,1.03c-.12.04-.25-.04-.29-.16,0-.03-.01-.06,0-.09l.05-.47c0-.08,0-.15-.05-.22-.09-.15-.22-.26-.38-.35-1.04-.58-2.03-1.15-2.97-1.71-.51-.3-1.07.1-1.58.19-.21.04-.45.02-.72-.05-1.31-.34-2.62-.68-3.96-1.01-.19-.05-.34-.18-.42-.35l-1.9-4.17c-.08-.17-.25-.27-.43-.25l-6.48.72c-.14.02-.29-.04-.38-.16-.63-.76-1.29-1.54-1.99-2.33-.41-.46-1.55-.51-2.1-.48-.14,0-.26.08-.32.21-.2.39-.39.79-.57,1.2-.18.4-.19.68.18.99.21.17.18.27-.09.3-1.09.11-2.16.24-3.19.37-.6.08-1.09-.03-1.65-.2-.14-.04-.21-.19-.17-.32.14-.46.21-.91-.11-1.33-.35-.46-.82-1.28-1.44-1.31-2.11-.09-4.22-.14-6.31-.15-.07,0-.12-.06-.12-.13,0-.02,0-.05.02-.07l1.17-1.8c.11-.17.28-.3.47-.35l2.56-.77c.26-.08.41-.35.34-.61-.12-.47-.57-1.14-.17-1.56.49-.51.93-1.04,1.33-1.58.1-.14.29-.2.46-.15.56.18,1.68.76,1.84-.21.25-1.48.5-2.93.76-4.33.08-.47.18-.86.51-1.22,1.35-1.45,2.68-2.91,3.97-4.4.19-.22.18-.55-.03-.75-.82-.79-1.66-1.64-2.51-2.56-.34-.37-.56-.6-.6-1.15-.05-.73-.08-1.42-.11-2.07,0-.16-.05-.32-.13-.46-.31-.55-.63-1.11-.96-1.69-.29-.51-.37-.96-.3-1.51,0-.08.08-.13.15-.12,0,0,0,0,0,0l1.9.23c.15.02.29.09.38.21l1.58,1.93c.15.19.41.25.63.15,1.3-.59,2.63-1.2,3.99-1.84.77-.36,1.43,1.06,2.12.3.36-.4.54-.34.52.21-.02.42,0,.88.06,1.38.04.37.22.57.53.58,1.33.07,2.72.2,4.15.39.12.02.21.12.21.24,0,.78-.12,1.07.69,1.44.81.37,1.63.72,2.44,1.04.23.09.49.03.66-.16l1.96-2.22c.1-.12.23-.18.39-.18.34,0,.69-.02,1.05-.04.46-.03.7-.25.71-.68.03-.74.06-1.5.1-2.27.01-.26-.12-.5-.35-.62-1.71-.94-3.32-1.85-4.83-2.74-.39-.23-.64-.61-.76-1.15-.02-.07,0-.13.03-.19l1.12-1.76c.08-.12.23-.18.37-.12l1.43.53c.26.1.55.03.75-.16l1.19-1.19c.19-.19.19-.5,0-.69-.02-.02-.04-.04-.06-.05l-1.09-.8c-.12-.09-.16-.24-.11-.38l.93-2.53c.05-.15.19-.25.34-.25.81-.04,1.64-.08,2.49-.11.27-.01.4-.21.41-.59.02-.89.18-1.77.5-2.62.06-.16.2-.28.37-.32l2.32-.5c.17-.04.3-.16.36-.32l.37-1.12c.04-.12.13-.21.25-.24,2-.57,3.92-1.11,5.76-1.62.68-.19,1.19.33,1.72.45.44.1.78-.11.79-.56.01-1.03.05-2.03.11-3.02.01-.21-.08-.41-.26-.53-.55-.37-1.09-.75-1.62-1.12-.3-.21-.53-.47-.67-.78-.21-.44-.39-.89-.53-1.32-.03-.08-.03-.15,0-.22l.38-1.07c.05-.14.14-.18.28-.12l3.47,1.55c.14.07.31.03.43-.08.31-.31.63-.61.97-.9.08-.07.18-.12.3-.14.75-.13,1.45-.27,2.12-.41.07-.02.14-.01.22.02.08.03.15.08.2.14Z"/>
      <path class="cls-7" d="M172.49,279.47l-2.68-.71c-.24-.06-.49-.07-.74-.03-.74.14-1.48.27-2.22.39-.54.09-1.05.26-1.52.5-1.25.63-2.49,1.28-3.73,1.94-.14.08-.23.23-.23.39v1.03c0,.1-.05.16-.16.17l-2.31.15c-.11,0-.22-.03-.31-.09l-2.02-1.54c-.15-.12-.33-.2-.51-.24-1.39-.32-2.83-.67-4.31-1.03-.74-.18-1.39-.04-2.13-.04-.26,0-.49.1-.68.3-.25.25-.9.84-1.94,1.74-.06.05-.12.07-.2.07l-.94-.05c-.08,0-.13-.04-.16-.11l-1.02-2.53c-.08-.2-.25-.35-.45-.41l-3.89-1.14c-.09-.03-.12-.09-.09-.18l.78-1.96c.09-.23-.01-.49-.23-.6-1.68-.81-3.35-1.61-5-2.4-.45-.21-.82-.31-1.1-.3-.48.02-.99.04-1.53.07-.42.02-.51.51-.59.84,0,.04-.05.06-.08.05-.02,0-.03-.01-.04-.03l-2.37-3.11c-.1-.13-.26-.21-.43-.2l-2.92.2c-.15.01-.3-.04-.41-.14-.6-.54-1.24-1.12-1.92-1.74-.29-.26-.59-.43-.91-.5-2.82-.63-5.64-1.45-8.46-2.47-.07-.03-.16-.02-.23.02l-1.39.75c-.15.08-.24.24-.23.41l.18,3.09c0,.09-.02.17-.09.24l-.68.66c-.09.09-.22.13-.34.13-1.23-.09-2.44-.18-3.68-.16-1.37.02-2.74.05-4.12.09-.08,0-.14-.02-.21-.07l-1.08-.94c-.11-.09-.25-.14-.4-.12l-6.09.84c-.06,0-.13-.01-.18-.05l-5.46-4.84c.12-1.12.28-2.27.46-3.44.11-.71.33-1.26.71-1.82.09-.14.24-.24.41-.27.4-.08.79-.15,1.15-.23.47-.1.63-.39.5-.88-.14-.52-.12-.95.09-1.3.13-.22.38-.54.77-.97.81-.9,1.71-1.91,2.68-3.04.07-.08.15-.16.23-.24.42-.4.17-1.03,0-1.5-.1-.28-.02-.49.25-.63l.79-.41c.11-.06.18-.18.17-.31-.08-1.23-.18-2.55-.3-3.95-.02-.23-.14-.35-.36-.39-.17-.02-.34,0-.51.05-.09.03-.19-.02-.22-.11-.01-.04-.01-.09,0-.13l.29-.59c.03-.07.05-.14.04-.22-.03-.24-.09-.47-.19-.68-.39-.88-.77-1.74-1.13-2.58-.06-.15-.2-.24-.36-.25l-2.77-.18c-.58-.04-1.01-.54-.98-1.12,0-.11.03-.21.07-.31l1.97-5.11c.09-.25.13-.51.1-.77l-.22-2.25c-.02-.16.08-.31.24-.36l3.57-1.1c.13-.04.26.03.3.16,0,.02.01.04.01.07,0,.3.06.61.17.94.07.23.32.35.54.27.03,0,.05-.02.07-.03.32-.18.66-.35,1.02-.53.52-.25.63-.74.61-1.27,0-.17.13-.3.29-.31.02,0,.04,0,.05,0,.32.05.63.11.95.18.33.07.69.03.82-.34.09-.26.21-.51.37-.75.18-.26.41-.19.68-.16,1.02.11,2.04.23,3.06.35.99.12,1.94-.65,2.72-1.16.35-.23.73-.32,1.14-.29,1.2.11,2.41.26,3.63.43.15.02.3,0,.45-.06.66-.29,1.4-.56,1.83-1.13.41-.55.82-1.08,1.22-1.6.12-.16.32-.25.52-.24.33.02.66.03.99.03.36,0,.52-.18.49-.55-.01-.17-.08-.34-.19-.47-.58-.71-.24-1.13.25-1.7.45-.53.89-1.06,1.32-1.6.68-.85-.35-1.09-.89-1.38-.07-.04-.11-.09-.13-.16-.09-.29-.08-.56.04-.81.03-.06.07-.11.14-.12l3.39-.86c.25-.06.41-.32.34-.58,0,0,0,0,0,0-.33-1.27-.75-2.67-1.24-4.19-.09-.27-.02-.49.21-.66.99-.75,1.74-1.55,2.28-2.39.41-.66.95-1.28,1.39-1.9.1-.15.24-.27.39-.35l2.83-1.59c.18-.1.28-.31.24-.51l-.26-1.29c-.04-.19.04-.38.2-.49.57-.38,1.14-.79,1.72-1.22.15-.11.26-.26.32-.44.54-1.64.89-3.25,1.05-4.81.02-.18.16-.31.34-.33.81-.06,1.74-.14,2.79-.25.33-.03.61.05.84.27.99.92,2.04,1.83,3.14,2.73.13.11.32.13.48.06.76-.37,1.5-.74,2.22-1.12.31-.16.62-.24.92-.23.84.01,1.65.03,2.42.05.13,0,.24.1.26.23l.27,1.86c.05.32.16.63.34.9l1.63,2.48c.1.15.12.33.07.5l-.74,2.38c-.07.23-.04.48.09.68l1.6,2.48c.15.23.46.3.7.16l2.27-1.4c.17-.11.39-.13.58-.07.87.27,1.75.52,2.63.74.34.09.61-.01.81-.29.47-.66,1.02-1.28,1.52-1.95.31-.42.56-.93.76-1.54.34-1.05.71-2.17,1.13-3.36.09-.26.24-.49.44-.67l1.5-1.36c.16-.14.4-.15.56,0,.44.38.91.75,1.42,1.11.71.49.94,1.45,1.1,2.23.1.52.7.8,1.09,1.05.11.07.17.21.14.34-.09.48-.28,1.09-.04,1.54.41.79.8,1.56,1.17,2.32.08.18.21.31.37.4.22.12.5.04.62-.18,0-.01.01-.02.02-.04l3.29-7.57s.05-.04.08-.03c0,0,.02,0,.02.02l.45.53c.15.17.41.19.58.05,0,0,0,0,0,0l3.67-3.15c.1-.08.24-.1.35-.03.32.2.52.45.6.76.2.73.41,1.53.63,2.4.07.26.28.46.55.51l3.27.59c.25.05.5-.12.54-.38,0-.02,0-.05,0-.07l.02-.83c0-.1.08-.19.18-.2.37-.04.7.07.98.32,1.22,1.09,2.5,2.16,3.86,3.21.28.22.45.42.53.79.19.97.39,1.94.59,2.91.2.94.42,1.67.67,2.18,1.19,2.46,2.27,4.69,3.26,6.68.12.24.31.44.57.6,1.28.79,2.52,1.56,3.73,2.31.23.14.51.14.74,0l2.76-1.74s.08-.01.1.02c0,.01.01.02.01.03.02.2.04.4.05.59.02.22.09.37.21.45.48.31,1.08-.43,1.39-.69.24-.21.49-.33.74-.37.41-.06.79.01,1.14.21.79.44,1.56.86,2.31,1.27.21.11.38.28.49.49l.88,1.58c.11.2.18.43.18.66l.06,2.21c0,.25.11.49.3.67l2.6,2.5c.2.19.21.39.01.59-1.1,1.16-2.15,2.23-3.16,3.22-.07.07-.18.2-.32.39-.25.34-.55.63-.62,1.09-.23,1.57-.47,3.04-.74,4.43-.04.2-.23.33-.42.29-.03,0-.06-.02-.09-.03-.32-.16-.66-.22-1.02-.19-.09,0-.16.04-.22.11l-2.22,2.48c-.13.15-.18.36-.11.55l.29.85c.02.07-.01.14-.08.17,0,0,0,0,0,0l-2.26.67c-.22.07-.41.21-.53.4-.52.8-1.04,1.61-1.58,2.44-.27.42-1.17.11-1.39-.25-.49-.75-.93-1.48-1.32-2.17-.11-.19-.33-.28-.53-.23-1.33.35-2.69.71-4.1,1.08-.41.11-.95.41-1.6.91-1.12.85-2.3,1.73-3.54,2.62-.82.59-1.53,1.21-2.12,1.84-.74.79-1.49,1.61-2.24,2.45-.18.2-.42.31-.7.31-1.04.02-2,.03-2.88.06-.17,0-.33.06-.46.16-1.62,1.2-3.73,2.48-4.74,4.45-.69,1.35-1.42,2.71-2.21,4.07-.22.39-.35.82-.39,1.29-.09,1.2-.14,2.42-.16,3.65-.04,3.47.02,6.92.17,10.33.01.24.08.57.25.75.65.7,1.25,1.47,1.81,2.31Z"/>
      <path class="cls-6" d="M267.95,300.1c.02.44.05.87.1,1.28.11.9-.42,1.83-.71,2.67-.11.31-.27.56-.5.75-.37.31-1.05.61-1.15,1.13-.04.21.09.41.3.45.02,0,.04,0,.07,0l.89.02c.21,0,.28.11.2.3l-2.62,6.25c-.05.12-.14.16-.26.13-1.18-.3-.76-1.65-1.74-1.94-1.66-.49-3.33-.97-4.98-1.46-.39-.11-.71-.23-1.03-.53-.57-.53-1.1-1-1.59-1.4-.47-.38-.54-1.07-.16-1.54.07-.09.16-.16.25-.23.65-.42,1.33-.87,2.04-1.34.17-.11.23-.28.18-.51-.03-.15-.15-.27-.3-.3l-4.39-.82c-.08-.01-.13-.09-.11-.16,0,0,0-.02,0-.03l1.22-2.98c.06-.14.07-.29.05-.44l-.52-2.97c-.05-.27-.31-.45-.58-.4-.03,0-.06.01-.08.02l-2.54.91c-.06.02-.14,0-.16-.07-.01-.03-.01-.06,0-.08l.94-2.69c.06-.16.17-.31.32-.4l.99-.64c.24-.15.31-.47.15-.71-.05-.07-.11-.13-.18-.17l-3.8-2.13c-.11-.06-.19-.17-.22-.3l-.37-1.91c-.03-.17.04-.35.18-.45l2.25-1.59c.22-.16.27-.46.12-.68-.01-.02-.02-.03-.04-.05l-1.93-2.11c-.14-.15-.35-.19-.54-.11-.12.05-.23.08-.35.08-.17,0-.31-.13-.32-.3,0-.08.02-.15.07-.21l2-2.42c.11-.13.16-.3.15-.46-.03-.41-.06-.82-.11-1.23-.06-.5.28-.91.56-1.29.6-.83,1.28-.18,1.91-.62.07-.05.12-.11.14-.2.09-.4.2-1.18.63-1.33,1.72-.61,3.39-1.23,5.02-1.86.26-.1.48-.28.64-.51l1.34-1.96c.1-.14.24-.2.41-.18l3.97.63c.26.04.51-.14.55-.4,0-.03,0-.06,0-.08-.07-2.99-.16-5.87-.25-8.66-.01-.28.2-.58.64-.89.07-.05.14-.07.23-.07.63,0,.98.27,1.07.82.26,1.58.78,3.25.71,4.95-.06,1.43-.13,2.71-.22,3.84-.04.54-.03.96.32,1.42.54.73,1.07,1.48,1.6,2.25.13.18.21.39.24.61l1.91,12.7c.03.23,0,.44-.09.65-.8,1.85-1.65,3.69-2.53,5.53-.13.27-.2.57-.21.89-.03,1.55,0,2.85.1,3.91.05.52.08,1.07.11,1.65Z"/>
    </g>
    <g>
      <g id="Medaille">
        <g id="RondMedaille">
          <circle id="GrandRond" class="cls-7" cx="157.55" cy="78.11" r="12.62"/>
          <circle id="PetitRond" class="cls-7" cx="157.55" cy="78.11" r="9.94"/>
        </g>
      </g>
      <text class="cls-13" transform="translate(155.65 80.6)"><tspan x="0" y="0">1</tspan></text>
    </g>
    <g>
      <g id="Medaille-2" data-name="Medaille">
        <g id="RondMedaille-2" data-name="RondMedaille">
          <circle id="GrandRond-2" data-name="GrandRond" class="cls-7" cx="205.96" cy="181.53" r="12.62"/>
          <circle id="PetitRond-2" data-name="PetitRond" class="cls-7" cx="205.96" cy="181.53" r="9.94"/>
        </g>
      </g>
      <text class="cls-13" transform="translate(204.06 184.01)"><tspan x="0" y="0">2</tspan></text>
    </g>
    <g>
      <g id="Medaille-3" data-name="Medaille">
        <g id="RondMedaille-3" data-name="RondMedaille">
          <circle id="GrandRond-3" data-name="GrandRond" class="cls-7" cx="111.75" cy="181.53" r="12.62"/>
          <circle id="PetitRond-3" data-name="PetitRond" class="cls-7" cx="111.75" cy="181.53" r="9.94"/>
        </g>
      </g>
      <text class="cls-13" transform="translate(109.86 184.01)"><tspan x="0" y="0">3</tspan></text>
    </g>
  </g>
  <g>
    <text class="cls-3" transform="translate(365.43 38.56)"><tspan x="0" y="0">0-4 millions</tspan></text>
    <text class="cls-3" transform="translate(365.43 106.75)"><tspan x="0" y="0">5-8 millions</tspan></text>
    <text class="cls-2" transform="translate(365.43 167.98)"><tspan x="0" y="0">8 millions et +</tspan></text>
    <g id="Visage">
      <ellipse id="ContourPerso" class="cls-6" cx="339.02" cy="35.6" rx="19.66" ry="24.07"/>
      <g id="Sourcil">
        <path id="SourcilGauche" class="cls-5" d="M329.39,26.34s1.26-1.54,2.53-1.7"/>
        <path id="SourcilDroit" class="cls-5" d="M346.6,24.07s1.98.63,2.37,1.42"/>
      </g>
      <g id="Yeux">
        <g id="OeilGauche">
          <path id="Contour" class="cls-5" d="M336.05,33.69s.12-3.75-.59-4.23c0,0-1.19-2.33-1.86-2.29s-.71.04-1.58,0-1.62,1.5-1.62,1.5c0,0-.4.95-.43,2.01s-.12,2.77.2,3.28,5.89-.28,5.89-.28Z"/>
          <circle id="Pupille" class="cls-4" cx="332.72" cy="30.94" r="1.27"/>
        </g>
        <g id="OeilDroit">
          <path id="Contour-2" data-name="Contour" class="cls-5" d="M342.85,33.44s-.12-3.75.59-4.23c0,0,1.19-2.33,1.86-2.29s.71.04,1.58,0,1.62,1.5,1.62,1.5c0,0,.4.95.43,2.01s.12,2.77-.2,3.28-5.89-.28-5.89-.28Z"/>
          <circle id="Pupille-2" data-name="Pupille" class="cls-4" cx="345.9" cy="30.94" r="1.27"/>
        </g>
      </g>
      <path id="Bouche" class="cls-5" d="M332.12,37.49s4.44,1.4,6.97,1.16c2.53-.24,5.19-1.72,6.83-1.72s-2.18,4.3-4.58,4.47-8.1.6-9.22-1.8c0,0-.92-1.55,0-2.11Z"/>
    </g>
    <g id="Visage-2" data-name="Visage" class="cls-11">
      <ellipse id="ContourPerso-2" data-name="ContourPerso" class="cls-8" cx="339.02" cy="165.03" rx="19.04" ry="23.31"/>
      <g id="Sourcil-2" data-name="Sourcil">
        <path id="SourcilGauche-2" data-name="SourcilGauche" class="cls-5" d="M329.69,156.06s1.22-1.49,2.45-1.64"/>
        <path id="SourcilDroit-2" data-name="SourcilDroit" class="cls-5" d="M346.36,153.86s1.91.61,2.3,1.38"/>
      </g>
      <g id="Yeux-2" data-name="Yeux">
        <g id="OeilGauche-2" data-name="OeilGauche">
          <path id="Contour-3" data-name="Contour" class="cls-5" d="M336.15,163.18s.11-3.63-.57-4.09c0,0-1.15-2.26-1.8-2.22-.65.04-.69.04-1.53,0s-1.57,1.45-1.57,1.45c0,0-.38.92-.42,1.95s-.11,2.68.19,3.17,5.7-.27,5.7-.27Z"/>
          <circle id="Pupille-3" data-name="Pupille" class="cls-4" cx="332.92" cy="160.51" r="1.23"/>
        </g>
        <g id="OeilDroit-2" data-name="OeilDroit">
          <path id="Contour-4" data-name="Contour" class="cls-5" d="M342.73,162.94s-.11-3.63.57-4.09c0,0,1.15-2.26,1.8-2.22.65.04.69.04,1.53,0s1.57,1.45,1.57,1.45c0,0,.38.92.42,1.95s.11,2.68-.19,3.17-5.7-.27-5.7-.27Z"/>
          <circle id="Pupille-4" data-name="Pupille" class="cls-4" cx="345.69" cy="160.51" r="1.23"/>
        </g>
      </g>
      <path id="Bouche-2" data-name="Bouche" class="cls-5" d="M332.34,166.85s4.3,1.36,6.75,1.12c2.45-.24,5.02-1.67,6.61-1.67s-2.11,4.16-4.43,4.33-7.84.58-8.93-1.74c0,0-.89-1.5,0-2.05Z"/>
    </g>
    <g id="Visage-3" data-name="Visage">
      <ellipse id="ContourPerso-3" data-name="ContourPerso" class="cls-7" cx="339.02" cy="103.8" rx="19.66" ry="24.07"/>
      <g id="Sourcil-3" data-name="Sourcil">
        <path id="SourcilGauche-3" data-name="SourcilGauche" class="cls-5" d="M329.39,94.54s1.26-1.54,2.53-1.7"/>
        <path id="SourcilDroit-3" data-name="SourcilDroit" class="cls-5" d="M346.6,92.26s1.98.63,2.37,1.42"/>
      </g>
      <g id="Yeux-3" data-name="Yeux">
        <g id="OeilGauche-3" data-name="OeilGauche">
          <path id="Contour-5" data-name="Contour" class="cls-5" d="M336.05,101.89s.12-3.75-.59-4.23c0,0-1.19-2.33-1.86-2.29s-.71.04-1.58,0-1.62,1.5-1.62,1.5c0,0-.4.95-.43,2.01s-.12,2.77.2,3.28,5.89-.28,5.89-.28Z"/>
          <circle id="Pupille-5" data-name="Pupille" class="cls-4" cx="332.72" cy="99.13" r="1.27"/>
        </g>
        <g id="OeilDroit-3" data-name="OeilDroit">
          <path id="Contour-6" data-name="Contour" class="cls-5" d="M342.85,101.64s-.12-3.75.59-4.23c0,0,1.19-2.33,1.86-2.29s.71.04,1.58,0,1.62,1.5,1.62,1.5c0,0,.4.95.43,2.01s.12,2.77-.2,3.28-5.89-.28-5.89-.28Z"/>
          <circle id="Pupille-6" data-name="Pupille" class="cls-4" cx="345.9" cy="99.13" r="1.27"/>
        </g>
      </g>
      <path id="Bouche-3" data-name="Bouche" class="cls-5" d="M332.12,105.69s4.44,1.4,6.97,1.16c2.53-.24,5.19-1.72,6.83-1.72s-2.18,4.3-4.58,4.47-8.1.6-9.22-1.8c0,0-.92-1.55,0-2.11Z"/>
    </g>
  </g>
  <g>
    <g>
      <rect class="cls-9" x="135" y="321.24" width="85.43" height="91.58"/>
      <rect class="cls-9" x="50.14" y="345.16" width="84.74" height="67.66"/>
      <rect class="cls-9" x="220.3" y="356.09" width="84.74" height="56.72"/>
      <g>
        <g id="Medaille-4" data-name="Medaille">
          <g id="RondMedaille-4" data-name="RondMedaille">
            <circle id="GrandRond-4" data-name="GrandRond" class="cls-7" cx="177.59" cy="367.03" r="12.58"/>
            <circle id="PetitRond-4" data-name="PetitRond" class="cls-7" cx="177.59" cy="367.03" r="9.9"/>
          </g>
        </g>
        <text class="cls-1" transform="translate(173.33 371.88)"><tspan x="0" y="0">1</tspan></text>
      </g>
      <g>
        <g id="Medaille-5" data-name="Medaille">
          <g id="RondMedaille-5" data-name="RondMedaille">
            <circle id="GrandRond-5" data-name="GrandRond" class="cls-7" cx="92.51" cy="378.99" r="12.58"/>
            <circle id="PetitRond-5" data-name="PetitRond" class="cls-7" cx="92.51" cy="378.99" r="9.9"/>
          </g>
        </g>
        <text class="cls-1" transform="translate(88.21 382.67)"><tspan x="0" y="0">2</tspan></text>
      </g>
      <g>
        <g id="Medaille-6" data-name="Medaille">
          <g id="RondMedaille-6" data-name="RondMedaille">
            <circle id="GrandRond-6" data-name="GrandRond" class="cls-7" cx="262.68" cy="384.46" r="12.58"/>
            <circle id="PetitRond-6" data-name="PetitRond" class="cls-7" cx="262.68" cy="384.46" r="9.9"/>
          </g>
        </g>
        <text class="cls-1" transform="translate(258.81 388.89)"><tspan x="0" y="0">3</tspan></text>
      </g>
    </g>
    <text class="cls-3" transform="translate(140.27 312.49)"><tspan x="0" y="0">le-de-</tspan><tspan class="cls-10" x="34.37" y="0">F</tspan><tspan class="cls-14" x="40.8" y="0">r</tspan><tspan x="45.41" y="0">ance</tspan></text>
    <text class="cls-3" transform="translate(38.27 325.41)"><tspan x="0" y="0">Au</tspan><tspan class="cls-15" x="14.83" y="0">v</tspan><tspan class="cls-12" x="20.82" y="0">ergne-Rhne</tspan><tspan x="29.94" y="14.4">Alpes</tspan></text>
    <text class="cls-3" transform="translate(240.94 333.3)"><tspan x="0" y="0">Nou</tspan><tspan class="cls-16" x="22.42" y="0">v</tspan><tspan x="28.4" y="0">elle</tspan><tspan x="0" y="14.4">Aquitaine</tspan></text>
  </g>
</svg>