<?xml version="1.0" encoding="UTF-8"?>
<svg id="Calque_1" data-name="Calque 1" xmlns="http://www.w3.org/2000/svg" viewBox="0 0 700.06 374.7">
  <defs>
    <style>
      .cls-1 {
        letter-spacing: -.09em;
      }

      .cls-2, .cls-3, .cls-4, .cls-5, .cls-6, .cls-7, .cls-8, .cls-9, .cls-10, .cls-11 {
        stroke-miterlimit: 10;
      }

      .cls-2, .cls-5, .cls-6, .cls-9 {
        stroke: #1d1d1b;
      }

      .cls-12 {
        font-family: Lato-Regular, Lato;
        font-size: 12px;
      }

      .cls-3 {
        fill: #ebd85f;
      }

      .cls-3, .cls-4 {
        stroke-width: .5px;
      }

      .cls-3, .cls-4, .cls-7, .cls-8, .cls-10, .cls-11 {
        stroke: #000;
      }

      .cls-4 {
        fill: #ab5200;
      }

      .cls-5, .cls-7 {
        fill: #e8d560;
      }

      .cls-6 {
        fill: #fff;
      }

      .cls-8 {
        fill: #ffc500;
      }

      .cls-9, .cls-10 {
        fill: #a85200;
      }

      .cls-11 {
        fill: #e7d460;
        stroke-width: 1.5px;
      }

      .cls-13 {
        stroke-width: 0px;
      }

      .cls-14 {
        letter-spacing: -.03em;
      }

      .cls-15 {
        letter-spacing: -.01em;
      }

      .cls-16 {
        letter-spacing: -.03em;
      }
    </style>
  </defs>
  <g id="Bretagne">
    <g>
      <path class="cls-4" d="M446.38,79.56l-13.01,73.78c-40.75-7.18-67.95-46.04-60.77-86.79,6.35-36.02,37.2-61.91,73.78-61.91v74.92Z"/>
      <path class="cls-3" d="M446.38,79.56V4.64c41.38,0,74.92,33.54,74.92,74.92s-33.54,74.92-74.92,74.92c-4.8,0-8.28-.3-13.01-1.14l13.01-73.78Z"/>
    </g>
  </g>
  <g id="Occitanie">
    <g>
      <path class="cls-4" d="M273.67,75.17l-14.29,73.54c-40.61-7.89-67.14-47.22-59.25-87.83C207.02,25.46,237.59.25,273.67.25v74.92Z"/>
      <path class="cls-3" d="M273.67,75.17V.25c41.38,0,74.92,33.54,74.92,74.92s-33.54,74.92-74.92,74.92c-5.3,0-9.1-.37-14.29-1.38l14.29-73.54Z"/>
    </g>
  </g>
  <g id="PACA">
    <g>
      <path class="cls-4" d="M624.89,81.5l-9.13,74.36c-41.07-5.04-70.27-42.42-65.23-83.49,4.6-37.45,36.62-65.79,74.36-65.79v74.92Z"/>
      <path class="cls-3" d="M624.89,81.5V6.58c41.38,0,74.92,33.54,74.92,74.92s-33.54,74.92-74.92,74.92c-3.64,0-5.52-.11-9.13-.56l9.13-74.36Z"/>
    </g>
  </g>
  <text class="cls-12" transform="translate(45.47 147.58)"><tspan class="cls-14" x="0" y="0">F</tspan><tspan x="6.37" y="0">emme</tspan></text>
  <text class="cls-12" transform="translate(46.62 305.93)"><tspan x="0" y="0">Homme</tspan></text>
  <text class="cls-12" transform="translate(461.62 79.56)"><tspan x="0" y="0">52,9 %</tspan></text>
  <text class="cls-12" transform="translate(288.88 79.56)"><tspan x="0" y="0">53,2 %</tspan></text>
  <text class="cls-12" transform="translate(636.91 79.56)"><tspan x="0" y="0">52,2 %</tspan></text>
  <g>
    <g>
      <rect class="cls-11" x="288.38" y="293.03" width="101.36" height="80.93"/>
      <rect class="cls-11" x="389.75" y="264.42" width="102.18" height="109.54"/>
      <rect class="cls-11" x="491.92" y="306.11" width="101.36" height="67.85"/>
    </g>
    <text class="cls-12" transform="translate(415.61 329.6)"><tspan x="0" y="0">Occitanie</tspan></text>
    <text class="cls-12" transform="translate(313.87 340.03)"><tspan x="0" y="0">Bretagne</tspan></text>
    <text class="cls-12" transform="translate(502.18 340.03)"><tspan x="0" y="0">Pr</tspan><tspan class="cls-15" x="12.17" y="0">ov</tspan><tspan x="24.67" y="0">ence</tspan><tspan class="cls-16" x="49.52" y="0">-</tspan><tspan x="53.38" y="0">Alpes</tspan><tspan x="8.61" y="14.4">-Côte d</tspan><tspan class="cls-1" x="47.45" y="14.4">’</tspan><tspan x="48.9" y="14.4">Azur</tspan></text>
    <g id="Personnage">
      <g id="Corps">
        <g id="Bras">
          <path id="BrasDroite" class="cls-10" d="M461.02,207.96l-.28-4.12h3.92s4.06-1.33,4.69-1.82c.63-.49,3.57-2.24,4.2-2.86s5.53-5.52,5.53-5.52l2.45,2.24.49.56s-.49,1.54-1.61,2.3-1.75,1.89-3.22,3c-1.47,1.12-2.45,2.03-3.64,2.79s-3.43,1.89-5.6,2.37c-2.17.49-6.93,1.05-6.93,1.05Z"/>
          <path id="BrasGauche" class="cls-9" d="M409.42,194.22l-3.69,2.2s.66,1.64,1.44,2.07,1.15,1.42,3.9,3.16c2.75,1.73,13.7,7.09,14.28,6.22s0-.15,0-.15v-3.59l-15.92-9.91Z"/>
        </g>
        <g id="Jambe">
          <path id="JambeGauche" class="cls-2" d="M436.58,261.7c1.88,0,3.75-.05,5.61-.13-.86-5.7-2.16-14.64-1.93-15.05.75-1.35,1.01-13.3,1.01-13.3l-5.03-7.77-.35.04-1.92,21.83,2.35,14.39c.09,0,.18-.01.27-.01Z"/>
          <path id="JambeDroite" class="cls-2" d="M455.11,261.7c-1.88,0-3.75-.05-5.61-.13.86-5.7,2.16-14.64,1.93-15.05-.75-1.35-1.01-13.3-1.01-13.3l5.03-7.77.35.04,1.92,21.83-2.35,14.39c-.09,0-.18-.01-.27-.01Z"/>
          <g id="Pied">
            <rect id="PiedGauche" class="cls-13" x="434.33" y="261.21" width="10.07" height="3.04"/>
            <rect id="PiedDroit" class="cls-13" x="447.33" y="261.18" width="10.07" height="3.04"/>
          </g>
        </g>
        <g id="Main">
          <path id="MainGauche" class="cls-6" d="M408.1,186.84s-.12-.91-.12-1.03-.91-.51-.91-.51c0,0-.95-.28-1.07-.24s-.83.36-.83.36l-.63.4-.24,1.11.71,1.15-.79-.51-.83-.36-.83.12-.44.59-.24,1.03.36,1.54-.79-.83-.99.04-.79.55-.71,1.11,1.27,2.18,2.14,2.18,1.58,1.42,1.46-.08-.04,1.5.83,1.23,2.33.63,3.12-2.06,1.7-2.81-.51-1.42-.83-.63-.51-3.24,1.15-.71.2-2.29-1.34-.71-.91-.24-.95.91h-1.23l-2.73,2.69-.75,2.48"/>
          <path id="MainDroite" class="cls-6" d="M478.55,193.27s-.32-1.16.48-2.01c.79-.85,1.22,1.53,1.22,1.53,0,0-.48-3.75,0-4.5s1.48-2.59,1-3.54-.42-3.07.58-3.01c1,.05,3.65.21,3.12,5.29,0,0,1.22-1.48,2.96-.85s.9,2.43.9,2.43c0,0,3.07-.79,2.12,3.23,0,0-.16.53-.63.69s.15-.21.82.16-.02,2.59-1.4,3.33-3.91,1.48-5.02,1.22c0,0-3.01,1.32-4.87-1.27-1.85-2.59-1.27-2.7-1.27-2.7Z"/>
        </g>
      </g>
      <g id="Medaille">
        <g id="FicelleMedaille">
          <path id="BoutGauche" class="cls-6" d="M402.85,195.73s-3.35,6.77-1.54,8.74l1.81,1.98"/>
          <path id="BoutDroit" class="cls-6" d="M408.44,200.41s-3.26,6.43-1.12,6.39"/>
        </g>
        <g id="RondMedaille">
          <circle id="GrandRond" class="cls-8" cx="402.97" cy="214.83" r="10.18"/>
          <circle id="PetitRond" class="cls-8" cx="402.97" cy="214.83" r="8.02"/>
        </g>
        <polygon id="Etoile" class="cls-6" points="404.56 209.05 405.19 212.97 408.77 214.66 405.24 216.47 404.74 220.4 401.93 217.61 398.03 218.34 399.82 214.8 397.92 211.33 401.84 211.93 404.56 209.05"/>
      </g>
      <g id="Visage">
        <ellipse id="ContourPerso" class="cls-10" cx="444.38" cy="209.85" rx="19.69" ry="24.1"/>
        <g id="Sourcil">
          <path id="SourcilGauche" class="cls-6" d="M434.74,200.58s1.27-1.54,2.53-1.7"/>
          <path id="SourcilDroit" class="cls-6" d="M451.97,198.3s1.98.63,2.37,1.42"/>
        </g>
        <g id="Yeux">
          <g id="OeilGauche">
            <path id="Contour" class="cls-6" d="M441.41,207.94s.12-3.76-.59-4.23c0,0-1.19-2.33-1.86-2.29s-.71.04-1.58,0-1.62,1.5-1.62,1.5c0,0-.4.95-.44,2.02s-.12,2.77.2,3.28,5.89-.28,5.89-.28Z"/>
            <circle id="Pupille" class="cls-2" cx="438.08" cy="205.18" r="1.27"/>
          </g>
          <g id="OeilDroit">
            <path id="Contour-2" data-name="Contour" class="cls-6" d="M448.22,207.69s-.12-3.76.59-4.23c0,0,1.19-2.33,1.86-2.29s.71.04,1.58,0,1.62,1.5,1.62,1.5c0,0,.4.95.44,2.02s.12,2.77-.2,3.28-5.89-.28-5.89-.28Z"/>
            <circle id="Pupille-2" data-name="Pupille" class="cls-2" cx="451.28" cy="205.18" r="1.27"/>
          </g>
        </g>
        <path id="Bouche" class="cls-6" d="M437.48,211.74s4.44,1.41,6.98,1.16,5.19-1.73,6.84-1.73-2.19,4.3-4.58,4.48-8.11.6-9.24-1.8c0,0-.92-1.55,0-2.12Z"/>
      </g>
    </g>
    <g id="Personnage-2" data-name="Personnage">
      <g id="Corps-2" data-name="Corps">
        <g id="Bras-2" data-name="Bras">
          <path id="BrasDroite-2" data-name="BrasDroite" class="cls-7" d="M354.44,236.57l-.28-4.12h3.92s4.06-1.33,4.69-1.82,3.57-2.24,4.2-2.86,5.53-5.52,5.53-5.52l2.45,2.24.49.56s-.49,1.54-1.61,2.3-1.75,1.89-3.22,3-2.45,2.03-3.64,2.79-3.43,1.89-5.6,2.37-6.93,1.05-6.93,1.05Z"/>
          <path id="BrasGauche-2" data-name="BrasGauche" class="cls-5" d="M302.84,222.82l-3.69,2.2s.66,1.64,1.44,2.07,1.15,1.42,3.9,3.16c2.75,1.73,13.7,7.09,14.28,6.22s0-.15,0-.15v-3.59l-15.92-9.91Z"/>
        </g>
        <g id="Jambe-2" data-name="Jambe">
          <path id="JambeGauche-2" data-name="JambeGauche" class="cls-2" d="M330,290.31c1.88,0,3.75-.05,5.61-.13-.86-5.7-2.16-14.64-1.93-15.05.75-1.35,1.01-13.3,1.01-13.3l-5.03-7.77-.35.04-1.92,21.83,2.35,14.39c.09,0,.18-.01.27-.01Z"/>
          <path id="JambeDroite-2" data-name="JambeDroite" class="cls-2" d="M348.53,290.31c-1.88,0-3.75-.05-5.61-.13.86-5.7,2.16-14.64,1.93-15.05-.75-1.35-1.01-13.3-1.01-13.3l5.03-7.77.35.04,1.92,21.83-2.35,14.39c-.09,0-.18-.01-.27-.01Z"/>
          <g id="Pied-2" data-name="Pied">
            <rect id="PiedGauche-2" data-name="PiedGauche" class="cls-13" x="327.76" y="289.82" width="10.07" height="3.04"/>
            <rect id="PiedDroit-2" data-name="PiedDroit" class="cls-13" x="340.75" y="289.78" width="10.07" height="3.04"/>
          </g>
        </g>
        <g id="Main-2" data-name="Main">
          <path id="MainGauche-2" data-name="MainGauche" class="cls-6" d="M301.52,215.45s-.12-.91-.12-1.03-.91-.51-.91-.51c0,0-.95-.28-1.07-.24s-.83.36-.83.36l-.63.4-.24,1.11.71,1.15-.79-.51-.83-.36-.83.12-.44.59-.24,1.03.36,1.54-.79-.83-.99.04-.79.55-.71,1.11,1.27,2.18,2.14,2.18,1.58,1.42,1.46-.08-.04,1.5.83,1.23,2.33.63,3.12-2.06,1.7-2.81-.51-1.42-.83-.63-.51-3.24,1.15-.71.2-2.29-1.34-.71-.91-.24-.95.91h-1.23l-2.73,2.69-.75,2.48"/>
          <path id="MainDroite-2" data-name="MainDroite" class="cls-6" d="M371.97,221.88s-.32-1.16.48-2.01,1.22,1.53,1.22,1.53c0,0-.48-3.75,0-4.5s1.48-2.59,1-3.54-.42-3.07.58-3.01,3.65.21,3.12,5.29c0,0,1.22-1.48,2.96-.85s.9,2.43.9,2.43c0,0,3.07-.79,2.12,3.23,0,0-.16.53-.63.69s.15-.21.82.16-.02,2.59-1.4,3.33c-1.37.74-3.91,1.48-5.02,1.22,0,0-3.01,1.32-4.87-1.27-1.85-2.59-1.27-2.7-1.27-2.7Z"/>
        </g>
      </g>
      <g id="Medaille-2" data-name="Medaille">
        <g id="FicelleMedaille-2" data-name="FicelleMedaille">
          <path id="BoutGauche-2" data-name="BoutGauche" class="cls-6" d="M296.27,224.34s-3.35,6.77-1.54,8.74l1.81,1.98"/>
          <path id="BoutDroit-2" data-name="BoutDroit" class="cls-6" d="M301.86,229.02s-3.26,6.43-1.12,6.39"/>
        </g>
        <g id="RondMedaille-2" data-name="RondMedaille">
          <circle id="GrandRond-2" data-name="GrandRond" class="cls-8" cx="296.39" cy="243.44" r="10.18"/>
          <circle id="PetitRond-2" data-name="PetitRond" class="cls-8" cx="296.39" cy="243.44" r="8.02"/>
        </g>
        <polygon id="Etoile-2" data-name="Etoile" class="cls-6" points="297.98 237.66 298.61 241.57 302.19 243.27 298.67 245.08 298.16 249.01 295.35 246.21 291.45 246.95 293.24 243.41 291.34 239.93 295.26 240.54 297.98 237.66"/>
      </g>
      <g id="Visage-2" data-name="Visage">
        <ellipse id="ContourPerso-2" data-name="ContourPerso" class="cls-7" cx="337.8" cy="238.46" rx="19.69" ry="24.1"/>
        <g id="Sourcil-2" data-name="Sourcil">
          <path id="SourcilGauche-2" data-name="SourcilGauche" class="cls-6" d="M328.16,229.18s1.27-1.54,2.53-1.7"/>
          <path id="SourcilDroit-2" data-name="SourcilDroit" class="cls-6" d="M345.4,226.91s1.98.63,2.37,1.42"/>
        </g>
        <g id="Yeux-2" data-name="Yeux">
          <g id="OeilGauche-2" data-name="OeilGauche">
            <path id="Contour-3" data-name="Contour" class="cls-6" d="M334.84,236.55s.12-3.76-.59-4.23c0,0-1.19-2.33-1.86-2.29s-.71.04-1.58,0-1.62,1.5-1.62,1.5c0,0-.4.95-.44,2.02s-.12,2.77.2,3.28,5.89-.28,5.89-.28Z"/>
            <circle id="Pupille-3" data-name="Pupille" class="cls-2" cx="331.5" cy="233.79" r="1.27"/>
          </g>
          <g id="OeilDroit-2" data-name="OeilDroit">
            <path id="Contour-4" data-name="Contour" class="cls-6" d="M341.64,236.3s-.12-3.76.59-4.23c0,0,1.19-2.33,1.86-2.29s.71.04,1.58,0,1.62,1.5,1.62,1.5c0,0,.4.95.44,2.02s.12,2.77-.2,3.28-5.89-.28-5.89-.28Z"/>
            <circle id="Pupille-4" data-name="Pupille" class="cls-2" cx="344.7" cy="233.79" r="1.27"/>
          </g>
        </g>
        <path id="Bouche-2" data-name="Bouche" class="cls-6" d="M330.9,240.35s4.44,1.41,6.98,1.16,5.19-1.73,6.84-1.73-2.19,4.3-4.58,4.48-8.11.6-9.24-1.8c0,0-.92-1.55,0-2.12Z"/>
      </g>
    </g>
    <g id="Personnage-3" data-name="Personnage">
      <g id="Corps-3" data-name="Corps">
        <g id="Bras-3" data-name="Bras">
          <path id="BrasDroite-3" data-name="BrasDroite" class="cls-7" d="M562.79,249.21l-.28-4.12h3.92s4.06-1.33,4.69-1.82,3.57-2.24,4.2-2.86,5.53-5.52,5.53-5.52l2.45,2.24.49.56s-.49,1.54-1.61,2.3-1.75,1.89-3.22,3c-1.47,1.12-2.45,2.03-3.64,2.79-1.19.77-3.43,1.89-5.6,2.37-2.17.49-6.93,1.05-6.93,1.05Z"/>
          <path id="BrasGauche-3" data-name="BrasGauche" class="cls-5" d="M511.19,235.47l-3.69,2.2s.66,1.64,1.44,2.07,1.15,1.42,3.9,3.16c2.75,1.73,13.7,7.09,14.28,6.22s0-.15,0-.15v-3.59l-15.92-9.91Z"/>
        </g>
        <g id="Jambe-3" data-name="Jambe">
          <path id="JambeGauche-3" data-name="JambeGauche" class="cls-2" d="M538.35,302.95c1.88,0,3.75-.05,5.61-.13-.86-5.7-2.16-14.64-1.93-15.05.75-1.35,1.01-13.3,1.01-13.3l-5.03-7.77-.35.04-1.92,21.83,2.35,14.39c.09,0,.18-.01.27-.01Z"/>
          <path id="JambeDroite-3" data-name="JambeDroite" class="cls-2" d="M556.88,302.95c-1.88,0-3.75-.05-5.61-.13.86-5.7,2.16-14.64,1.93-15.05-.75-1.35-1.01-13.3-1.01-13.3l5.03-7.77.35.04,1.92,21.83-2.35,14.39c-.09,0-.18-.01-.27-.01Z"/>
          <g id="Pied-3" data-name="Pied">
            <rect id="PiedGauche-3" data-name="PiedGauche" class="cls-13" x="536.1" y="302.46" width="10.07" height="3.04"/>
            <rect id="PiedDroit-3" data-name="PiedDroit" class="cls-13" x="549.1" y="302.43" width="10.07" height="3.04"/>
          </g>
        </g>
        <g id="Main-3" data-name="Main">
          <path id="MainGauche-3" data-name="MainGauche" class="cls-6" d="M509.87,228.09s-.12-.91-.12-1.03-.91-.51-.91-.51c0,0-.95-.28-1.07-.24s-.83.36-.83.36l-.63.4-.24,1.11.71,1.15-.79-.51-.83-.36-.83.12-.44.59-.24,1.03.36,1.54-.79-.83-.99.04-.79.55-.71,1.11,1.27,2.18,2.14,2.18,1.58,1.42,1.46-.08-.04,1.5.83,1.23,2.33.63,3.12-2.06,1.7-2.81-.51-1.42-.83-.63-.51-3.24,1.15-.71.2-2.29-1.34-.71-.91-.24-.95.91h-1.23l-2.73,2.69-.75,2.48"/>
          <path id="MainDroite-3" data-name="MainDroite" class="cls-6" d="M580.32,234.52s-.32-1.16.48-2.01c.79-.85,1.22,1.53,1.22,1.53,0,0-.48-3.75,0-4.5s1.48-2.59,1-3.54-.42-3.07.58-3.01,3.65.21,3.12,5.29c0,0,1.22-1.48,2.96-.85,1.75.63.9,2.43.9,2.43,0,0,3.07-.79,2.12,3.23,0,0-.16.53-.63.69s.15-.21.82.16-.02,2.59-1.4,3.33-3.91,1.48-5.02,1.22c0,0-3.01,1.32-4.87-1.27-1.85-2.59-1.27-2.7-1.27-2.7Z"/>
        </g>
      </g>
      <g id="Medaille-3" data-name="Medaille">
        <g id="FicelleMedaille-3" data-name="FicelleMedaille">
          <path id="BoutGauche-3" data-name="BoutGauche" class="cls-6" d="M504.62,236.98s-3.35,6.77-1.54,8.74l1.81,1.98"/>
          <path id="BoutDroit-3" data-name="BoutDroit" class="cls-6" d="M510.21,241.66s-3.26,6.43-1.12,6.39"/>
        </g>
        <g id="RondMedaille-3" data-name="RondMedaille">
          <circle id="GrandRond-3" data-name="GrandRond" class="cls-8" cx="504.74" cy="256.08" r="10.18"/>
          <circle id="PetitRond-3" data-name="PetitRond" class="cls-8" cx="504.74" cy="256.08" r="8.02"/>
        </g>
        <polygon id="Etoile-3" data-name="Etoile" class="cls-6" points="506.33 250.3 506.96 254.21 510.54 255.91 507.01 257.72 506.51 261.65 503.7 258.86 499.8 259.59 501.59 256.05 499.69 252.58 503.61 253.18 506.33 250.3"/>
      </g>
      <g id="Visage-3" data-name="Visage">
        <ellipse id="ContourPerso-3" data-name="ContourPerso" class="cls-7" cx="546.15" cy="251.1" rx="19.69" ry="24.1"/>
        <g id="Sourcil-3" data-name="Sourcil">
          <path id="SourcilGauche-3" data-name="SourcilGauche" class="cls-6" d="M536.51,241.83s1.27-1.54,2.53-1.7"/>
          <path id="SourcilDroit-3" data-name="SourcilDroit" class="cls-6" d="M553.74,239.55s1.98.63,2.37,1.42"/>
        </g>
        <g id="Yeux-3" data-name="Yeux">
          <g id="OeilGauche-3" data-name="OeilGauche">
            <path id="Contour-5" data-name="Contour" class="cls-6" d="M543.18,249.19s.12-3.76-.59-4.23c0,0-1.19-2.33-1.86-2.29s-.71.04-1.58,0-1.62,1.5-1.62,1.5c0,0-.4.95-.44,2.02s-.12,2.77.2,3.28,5.89-.28,5.89-.28Z"/>
            <circle id="Pupille-5" data-name="Pupille" class="cls-2" cx="539.85" cy="246.43" r="1.27"/>
          </g>
          <g id="OeilDroit-3" data-name="OeilDroit">
            <path id="Contour-6" data-name="Contour" class="cls-6" d="M549.99,248.94s-.12-3.76.59-4.23c0,0,1.19-2.33,1.86-2.29s.71.04,1.58,0,1.62,1.5,1.62,1.5c0,0,.4.95.44,2.02s.12,2.77-.2,3.28-5.89-.28-5.89-.28Z"/>
            <circle id="Pupille-6" data-name="Pupille" class="cls-2" cx="553.05" cy="246.43" r="1.27"/>
          </g>
        </g>
        <path id="Bouche-3" data-name="Bouche" class="cls-6" d="M539.25,252.99s4.44,1.41,6.98,1.16,5.19-1.73,6.84-1.73-2.19,4.3-4.58,4.48-8.11.6-9.24-1.8c0,0-.92-1.55,0-2.12Z"/>
      </g>
    </g>
  </g>
  <g id="Personnage-4" data-name="Personnage">
    <g id="Corps-4" data-name="Corps">
      <g id="Bras-4" data-name="Bras">
        <path id="BrasDroite-4" data-name="BrasDroite" class="cls-7" d="M88.36,213.3l-.39-5.77h5.49s5.69-1.86,6.57-2.54,5-3.13,5.89-4.01,7.75-7.73,7.75-7.73l3.43,3.13.69.78s-.69,2.15-2.26,3.23c-1.57,1.08-2.45,2.64-4.51,4.21s-3.43,2.84-5.1,3.91c-1.67,1.08-4.81,2.64-7.85,3.33-3.04.69-9.71,1.47-9.71,1.47Z"/>
        <path id="BrasGauche-4" data-name="BrasGauche" class="cls-5" d="M16.06,194.04l-5.17,3.08s.92,2.3,2.01,2.91,1.61,2,5.46,4.42c3.85,2.43,19.2,9.93,20.01,8.72s0-.22,0-.22v-5.03l-22.31-13.88Z"/>
      </g>
      <g id="Jambe-4" data-name="Jambe">
        <path id="JambeGauche-4" data-name="JambeGauche" class="cls-2" d="M54.12,288.6c2.63,0,5.25-.07,7.86-.19-1.2-7.98-3.02-20.51-2.7-21.08,1.05-1.89,1.41-18.64,1.41-18.64l-7.04-10.89-.5.06-2.7,30.59,3.3,20.16c.12,0,.25-.02.38-.02Z"/>
        <path id="JambeDroite-4" data-name="JambeDroite" class="cls-2" d="M80.08,288.6c-2.63,0-5.25-.07-7.86-.19,1.2-7.98,3.02-20.51,2.7-21.08-1.05-1.89-1.41-18.64-1.41-18.64l7.04-10.89.5.06,2.7,30.59-3.3,20.16c-.12,0-.25-.02-.38-.02Z"/>
        <g id="Pied-4" data-name="Pied">
          <rect id="PiedGauche-4" data-name="PiedGauche" class="cls-13" x="50.97" y="287.91" width="14.11" height="4.25"/>
          <rect id="PiedDroit-4" data-name="PiedDroit" class="cls-13" x="69.18" y="287.86" width="14.11" height="4.25"/>
        </g>
      </g>
      <g id="Main-4" data-name="Main">
        <path id="MainGauche-4" data-name="MainGauche" class="cls-6" d="M14.21,183.7s-.17-1.27-.17-1.44-1.27-.72-1.27-.72c0,0-1.33-.39-1.5-.33s-1.16.5-1.16.5l-.89.55-.33,1.55,1,1.61-1.11-.72-1.16-.5-1.16.17-.61.83-.33,1.44.5,2.16-1.11-1.16-1.39.06-1.11.78-1,1.55,1.77,3.05,2.99,3.05,2.22,2,2.05-.11-.06,2.11,1.16,1.72,3.27.89,4.38-2.88,2.38-3.94-.72-2-1.16-.89-.72-4.54,1.61-1,.28-3.21-1.88-1-1.27-.33-1.33,1.27h-1.72l-3.82,3.77-1.05,3.47"/>
        <path id="MainDroite-4" data-name="MainDroite" class="cls-6" d="M112.92,192.72s-.44-1.63.67-2.82,1.7,2.15,1.7,2.15c0,0-.67-5.26,0-6.3s2.07-3.63,1.41-4.96-.59-4.3.82-4.22,5.11.3,4.37,7.41c0,0,1.7-2.07,4.15-1.19s1.26,3.41,1.26,3.41c0,0,4.3-1.11,2.96,4.52,0,0-.22.74-.89.96s.22-.3,1.15.22-.03,3.63-1.96,4.67c-1.93,1.04-5.48,2.07-7.04,1.7,0,0-4.22,1.85-6.82-1.78-2.59-3.63-1.78-3.78-1.78-3.78Z"/>
      </g>
    </g>
    <g id="Visage-4" data-name="Visage">
      <ellipse id="ContourPerso-4" data-name="ContourPerso" class="cls-7" cx="65.05" cy="215.95" rx="27.58" ry="33.77"/>
      <g id="Sourcil-4" data-name="Sourcil">
        <path id="SourcilGauche-4" data-name="SourcilGauche" class="cls-6" d="M51.53,202.95s1.77-2.16,3.55-2.38"/>
        <path id="SourcilDroit-4" data-name="SourcilDroit" class="cls-6" d="M75.68,199.76s2.77.89,3.33,2"/>
      </g>
      <g id="Yeux-4" data-name="Yeux">
        <g id="OeilGauche-4" data-name="OeilGauche">
          <path id="Contour-7" data-name="Contour" class="cls-6" d="M60.89,213.27s.17-5.27-.83-5.93c0,0-1.66-3.27-2.6-3.21-.94.06-1,.05-2.22,0s-2.27,2.11-2.27,2.11c0,0-.55,1.33-.61,2.83s-.17,3.88.28,4.6,8.26-.39,8.26-.39Z"/>
          <circle id="Pupille-7" data-name="Pupille" class="cls-2" cx="56.21" cy="209.4" r="1.78"/>
        </g>
        <g id="OeilDroit-4" data-name="OeilDroit">
          <path id="Contour-8" data-name="Contour" class="cls-6" d="M70.42,212.92s-.17-5.27.83-5.93c0,0,1.66-3.27,2.6-3.21s1,.05,2.22,0,2.27,2.11,2.27,2.11c0,0,.55,1.33.61,2.83s.17,3.88-.28,4.6-8.26-.39-8.26-.39Z"/>
          <circle id="Pupille-8" data-name="Pupille" class="cls-2" cx="74.71" cy="209.4" r="1.78"/>
        </g>
      </g>
      <path id="Bouche-4" data-name="Bouche" class="cls-6" d="M55.37,218.6s6.22,1.97,9.78,1.63,7.28-2.42,9.58-2.42-3.06,6.03-6.42,6.27c-3.36.25-11.36.84-12.94-2.52,0,0-1.28-2.17,0-2.96Z"/>
    </g>
  </g>
  <g id="Personnage-5" data-name="Personnage">
    <g id="Corps-5" data-name="Corps">
      <g id="Bras-5" data-name="Bras">
        <path id="BrasDroite-5" data-name="BrasDroite" class="cls-10" d="M88.64,51.77l-.4-5.85h5.56s5.76-1.88,6.66-2.58,5.07-3.17,5.96-4.06l7.85-7.83,3.48,3.17.7.79s-.7,2.18-2.28,3.27c-1.59,1.09-2.48,2.68-4.57,4.26s-3.48,2.87-5.17,3.96-4.87,2.68-7.95,3.37c-3.08.69-9.83,1.49-9.83,1.49Z"/>
        <path id="BrasGauche-5" data-name="BrasGauche" class="cls-9" d="M15.42,32.26l-5.24,3.12s.93,2.33,2.04,2.94c1.11.61,1.63,2.02,5.53,4.48,3.9,2.46,19.45,10.06,20.26,8.83s0-.22,0-.22v-5.1l-22.59-14.06Z"/>
      </g>
      <g id="Jambe-5" data-name="Jambe">
        <path id="JambeGauche-5" data-name="JambeGauche" class="cls-2" d="M53.96,128.02c2.67,0,5.32-.08,7.96-.19-1.22-8.08-3.06-20.77-2.74-21.35,1.06-1.92,1.43-18.88,1.43-18.88l-7.13-11.03-.5.06-2.73,30.98,3.34,20.42c.12,0,.25-.02.38-.02Z"/>
        <path id="JambeDroite-5" data-name="JambeDroite" class="cls-2" d="M80.25,128.02c-2.67,0-5.32-.08-7.96-.19,1.22-8.08,3.06-20.77,2.74-21.35-1.06-1.92-1.43-18.88-1.43-18.88l7.13-11.03.5.06,2.73,30.98-3.34,20.42c-.12,0-.25-.02-.38-.02Z"/>
        <g id="Pied-5" data-name="Pied">
          <rect id="PiedGauche-5" data-name="PiedGauche" class="cls-13" x="50.77" y="127.32" width="14.28" height="4.31"/>
          <rect id="PiedDroit-5" data-name="PiedDroit" class="cls-13" x="69.22" y="127.28" width="14.28" height="4.31"/>
        </g>
      </g>
      <g id="Main-5" data-name="Main">
        <path id="MainGauche-5" data-name="MainGauche" class="cls-6" d="M13.55,21.8s-.17-1.29-.17-1.46-1.29-.73-1.29-.73c0,0-1.35-.39-1.52-.34s-1.18.51-1.18.51l-.9.56-.34,1.57,1.01,1.63-1.12-.73-1.18-.51-1.18.17-.62.84-.34,1.46.51,2.19-1.12-1.18-1.4.06-1.12.79-1.01,1.57,1.8,3.09,3.03,3.09,2.25,2.02,2.08-.11-.06,2.13,1.18,1.74,3.31.9,4.43-2.92,2.41-3.99-.73-2.02-1.18-.9-.73-4.6,1.63-1.01.28-3.26-1.91-1.01-1.29-.34-1.35,1.29h-1.74l-3.87,3.82-1.07,3.52"/>
        <path id="MainDroite-5" data-name="MainDroite" class="cls-6" d="M113.52,30.92s-.45-1.65.68-2.85,1.73,2.18,1.73,2.18c0,0-.68-5.33,0-6.38s2.1-3.68,1.43-5.03-.6-4.35.83-4.28,5.18.3,4.43,7.5c0,0,1.73-2.1,4.2-1.2,2.48.9,1.28,3.45,1.28,3.45,0,0,4.35-1.13,3,4.58,0,0-.23.75-.9.98s.22-.3,1.16.23-.03,3.68-1.99,4.73c-1.95,1.05-5.55,2.1-7.13,1.73,0,0-4.28,1.88-6.9-1.8-2.63-3.68-1.8-3.83-1.8-3.83Z"/>
      </g>
    </g>
    <g id="Visage-5" data-name="Visage">
      <ellipse id="ContourPerso-5" data-name="ContourPerso" class="cls-10" cx="65.03" cy="54.45" rx="27.93" ry="34.2"/>
      <g id="Sourcil-5" data-name="Sourcil">
        <path id="SourcilGauche-5" data-name="SourcilGauche" class="cls-6" d="M51.35,41.29s1.8-2.19,3.59-2.41"/>
        <path id="SourcilDroit-5" data-name="SourcilDroit" class="cls-6" d="M75.8,38.06s2.81.9,3.37,2.02"/>
      </g>
      <g id="Yeux-5" data-name="Yeux">
        <g id="OeilGauche-5" data-name="OeilGauche">
          <path id="Contour-9" data-name="Contour" class="cls-6" d="M60.82,51.74s.17-5.33-.84-6.01c0,0-1.68-3.31-2.64-3.26-.95.06-1.01.05-2.25,0s-2.3,2.13-2.3,2.13c0,0-.56,1.35-.62,2.86s-.17,3.93.28,4.66,8.36-.39,8.36-.39Z"/>
          <circle id="Pupille-9" data-name="Pupille" class="cls-2" cx="56.09" cy="47.82" r="1.8"/>
        </g>
        <g id="OeilDroit-5" data-name="OeilDroit">
          <path id="Contour-10" data-name="Contour" class="cls-6" d="M70.47,51.39s-.17-5.33.84-6.01c0,0,1.68-3.31,2.64-3.26s1.01.05,2.25,0c1.23-.06,2.3,2.13,2.3,2.13,0,0,.56,1.35.62,2.86s.17,3.93-.28,4.66-8.36-.39-8.36-.39Z"/>
          <circle id="Pupille-10" data-name="Pupille" class="cls-2" cx="74.82" cy="47.82" r="1.8"/>
        </g>
      </g>
      <path id="Bouche-5" data-name="Bouche" class="cls-6" d="M55.23,57.13s6.3,2,9.91,1.65c3.6-.35,7.37-2.45,9.71-2.45s-3.1,6.1-6.5,6.35c-3.4.25-11.51.85-13.11-2.55,0,0-1.3-2.2,0-3Z"/>
    </g>
  </g>
</svg>