<?xml version="1.0" encoding="UTF-8"?>
<svg id="Calque_1" data-name="Calque 1" xmlns="http://www.w3.org/2000/svg" viewBox="0 0 131.01 120.87">
  <defs>
    <style>
      .cls-1, .cls-2, .cls-3 {
        stroke: #1d1d1b;
      }

      .cls-1, .cls-2, .cls-3, .cls-4, .cls-5 {
        stroke-miterlimit: 10;
      }

      .cls-2 {
        fill: #fff;
      }

      .cls-3, .cls-4 {
        fill: #a95200;
      }

      .cls-4, .cls-5 {
        stroke: #000;
      }

      .cls-5 {
        fill: none;
      }

      .cls-6 {
        stroke-width: 0px;
      }

      .cls-7 {
        font-family: Poppins-Regular, Poppins;
        font-size: 9.59px;
      }
    </style>
  </defs>
  <g id="Mascotte7">
    <g id="Personnage">
      <g id="Corps">
        <g id="Bras">
          <path id="BrasDroite" class="cls-4" d="M78.69,71.32l-.25-3.63h3.45s3.57-1.17,4.13-1.6,3.14-1.97,3.7-2.52,4.87-4.86,4.87-4.86l2.16,1.97.43.49s-.43,1.35-1.42,2.03-1.54,1.66-2.83,2.64-2.16,1.78-3.2,2.46-3.02,1.66-4.93,2.09c-1.91.43-6.1.92-6.1.92Z"/>
          <path id="BrasGauche" class="cls-3" d="M33.26,59.22l-3.25,1.93s.58,1.44,1.26,1.83,1.01,1.25,3.43,2.78,12.06,6.24,12.57,5.48,0-.14,0-.14v-3.16s-14.01-8.72-14.01-8.72Z"/>
        </g>
        <g id="Jambe">
          <path id="JambeGauche" class="cls-1" d="M57.17,118.63c1.65,0,3.3-.05,4.94-.12-.76-5.02-1.9-12.88-1.7-13.25.66-1.19.88-11.71.88-11.71l-4.43-6.84-.31.04-1.69,19.22,2.07,12.67c.08,0,.16-.01.24-.01Z"/>
          <path id="JambeDroite" class="cls-1" d="M73.48,118.63c-1.65,0-3.3-.05-4.94-.12.76-5.02,1.9-12.88,1.7-13.25-.66-1.19-.88-11.71-.88-11.71l4.43-6.84.31.04,1.69,19.22-2.07,12.67c-.08,0-.16-.01-.24-.01Z"/>
          <g id="Pied">
            <rect id="PiedGauche" class="cls-6" x="55.19" y="118.19" width="8.86" height="2.67"/>
            <rect id="PiedDroit" class="cls-6" x="66.64" y="118.17" width="8.86" height="2.67"/>
          </g>
        </g>
        <g id="Main">
          <path id="MainGauche" class="cls-2" d="M32.1,52.73s-.1-.8-.1-.91c0-.1-.8-.45-.8-.45,0,0-.84-.24-.94-.21s-.73.31-.73.31l-.56.35-.21.97.63,1.01-.7-.45-.73-.31-.73.1-.38.52-.21.91.31,1.36-.7-.73-.87.03-.7.49-.63.97,1.11,1.92,1.88,1.92,1.39,1.25,1.29-.07-.03,1.32.73,1.08,2.05.56,2.75-1.81,1.5-2.47-.45-1.25-.73-.56-.45-2.86,1.01-.63.17-2.02-1.18-.63-.8-.21-.84.8h-1.08s-2.4,2.37-2.4,2.37l-.66,2.18"/>
          <path id="MainDroite" class="cls-2" d="M94.12,58.39s-.28-1.02.42-1.77,1.07,1.35,1.07,1.35c0,0-.42-3.31,0-3.96s1.3-2.28.88-3.12-.37-2.7.51-2.65,3.21.19,2.75,4.66c0,0,1.07-1.3,2.61-.74s.79,2.14.79,2.14c0,0,2.7-.7,1.86,2.84,0,0-.14.47-.56.61s.14-.19.72.14-.02,2.28-1.23,2.93-3.44,1.3-4.42,1.07c0,0-2.65,1.16-4.28-1.12s-1.12-2.37-1.12-2.37Z"/>
        </g>
      </g>
      <g id="Visage">
        <ellipse id="ContourPerso" class="cls-4" cx="64.04" cy="72.99" rx="17.33" ry="21.22"/>
        <g id="Sourcil">
          <path id="SourcilGauche" class="cls-2" d="M55.55,64.82s1.11-1.36,2.23-1.5"/>
          <path id="SourcilDroit" class="cls-2" d="M70.72,62.82s1.74.56,2.09,1.25"/>
        </g>
        <g id="Yeux">
          <g id="OeilGauche">
            <path id="Contour" class="cls-2" d="M61.43,71.3s.1-3.31-.52-3.73c0,0-1.04-2.05-1.64-2.02s-.63.03-1.39,0-1.43,1.32-1.43,1.32c0,0-.35.84-.38,1.78s-.1,2.44.17,2.89,5.19-.24,5.19-.24Z"/>
            <circle id="Pupille" class="cls-1" cx="58.49" cy="68.87" r="1.12"/>
          </g>
          <g id="OeilDroit">
            <path id="Contour-2" data-name="Contour" class="cls-2" d="M67.42,71.08s-.1-3.31.52-3.73c0,0,1.04-2.05,1.64-2.02s.63.03,1.39,0,1.43,1.32,1.43,1.32c0,0,.35.84.38,1.78s.1,2.44-.17,2.89-5.19-.24-5.19-.24Z"/>
            <circle id="Pupille-2" data-name="Pupille" class="cls-1" cx="70.11" cy="68.87" r="1.12"/>
          </g>
        </g>
        <path id="Bouche" class="cls-2" d="M57.96,74.65s3.91,1.24,6.15,1.02c2.23-.22,4.57-1.52,6.02-1.52,1.45,0-1.92,3.79-4.03,3.94-2.11.16-7.14.53-8.13-1.58,0,0-.81-1.37,0-1.86Z"/>
      </g>
    </g>
  </g>
  <g>
    <rect class="cls-5" x=".5" y=".5" width="130.01" height="44.66" rx="12.18" ry="12.18"/>
    <text class="cls-7" transform="translate(21.34 20.31)"><tspan x="0" y="0">Les territoires sont </tspan><tspan x="-9.92" y="11.51">inégalement déservis !</tspan></text>
  </g>
</svg>