<?xml version="1.0" encoding="UTF-8"?>
<svg id="Calque_1" data-name="Calque 1" xmlns="http://www.w3.org/2000/svg" viewBox="0 0 74.3 65.87">
  <defs>
    <style>
      .cls-1, .cls-2, .cls-3 {
        stroke: #1d1d1b;
      }

      .cls-1, .cls-2, .cls-3, .cls-4 {
        stroke-miterlimit: 10;
      }

      .cls-2 {
        fill: #fff;
      }

      .cls-3, .cls-4 {
        fill: #b44c00;
      }

      .cls-4 {
        stroke: #000;
      }

      .cls-5 {
        stroke-width: 0px;
      }
    </style>
  </defs>
  <g id="Personnage">
    <g id="Corps">
      <g id="Bras">
        <path id="BrasDroite" class="cls-4" d="M49.76,21.27l-.22-3.27h3.11s3.22-1.05,3.72-1.44,2.83-1.77,3.33-2.27l4.38-4.37,1.94,1.77.39.44s-.39,1.22-1.28,1.83-1.39,1.49-2.55,2.38-1.94,1.6-2.88,2.21-2.72,1.49-4.44,1.88-5.49.83-5.49.83Z"/>
        <path id="BrasGauche" class="cls-3" d="M8.87,10.38l-2.93,1.74s.52,1.3,1.14,1.64.91,1.13,3.09,2.5,10.86,5.62,11.31,4.93,0-.12,0-.12v-2.85l-12.61-7.85Z"/>
      </g>
      <g id="Jambe">
        <path id="JambeGauche" class="cls-1" d="M30.39,63.86c1.49,0,2.97-.04,4.45-.11-.68-4.51-1.71-11.6-1.53-11.92.59-1.07.8-10.54.8-10.54l-3.98-6.16-.28.04-1.52,17.3,1.86,11.4c.07,0,.14,0,.21,0Z"/>
        <path id="JambeDroite" class="cls-1" d="M45.07,63.86c-1.49,0-2.97-.04-4.45-.11.68-4.51,1.71-11.6,1.53-11.92-.59-1.07-.8-10.54-.8-10.54l3.98-6.16.28.04,1.52,17.3-1.86,11.4c-.07,0-.14,0-.21,0Z"/>
        <g id="Pied">
          <rect id="PiedGauche" class="cls-5" x="28.61" y="63.46" width="7.98" height="2.4"/>
          <rect id="PiedDroit" class="cls-5" x="38.91" y="63.44" width="7.98" height="2.4"/>
        </g>
      </g>
      <g id="Main">
        <path id="MainGauche" class="cls-2" d="M7.83,4.54s-.09-.72-.09-.81-.72-.41-.72-.41c0,0-.75-.22-.85-.19s-.66.28-.66.28l-.5.31-.19.88.56.91-.63-.41-.66-.28-.66.09-.34.47-.19.81.28,1.22-.63-.66-.78.03-.63.44-.56.88,1,1.72,1.69,1.72,1.25,1.13,1.16-.06-.03,1.19.66.97,1.85.5,2.48-1.63,1.35-2.23-.41-1.13-.66-.5-.41-2.57.91-.56.16-1.82-1.07-.56-.72-.19-.75.72h-.97l-2.16,2.13-.6,1.96"/>
        <path id="MainDroite" class="cls-2" d="M63.65,9.64s-.25-.92.38-1.59.96,1.22.96,1.22c0,0-.38-2.98,0-3.56s1.17-2.05.8-2.81-.34-2.43.46-2.39,2.89.17,2.47,4.19c0,0,.96-1.17,2.35-.67s.71,1.93.71,1.93c0,0,2.43-.63,1.68,2.56,0,0-.13.42-.5.54s.12-.17.65.13-.02,2.05-1.11,2.64-3.1,1.17-3.98.96c0,0-2.39,1.05-3.85-1.01s-1.01-2.14-1.01-2.14Z"/>
      </g>
    </g>
    <g id="Visage">
      <ellipse id="ContourPerso" class="cls-4" cx="36.57" cy="22.77" rx="15.6" ry="19.1"/>
      <g id="Sourcil">
        <path id="SourcilGauche" class="cls-2" d="M28.93,15.42s1-1.22,2.01-1.35"/>
        <path id="SourcilDroit" class="cls-2" d="M42.59,13.62s1.57.5,1.88,1.13"/>
      </g>
      <g id="Yeux">
        <g id="OeilGauche">
          <path id="Contour" class="cls-2" d="M34.22,21.26s.09-2.98-.47-3.35c0,0-.94-1.85-1.47-1.82s-.56.03-1.25,0-1.28,1.19-1.28,1.19c0,0-.31.75-.34,1.6s-.09,2.19.16,2.6,4.67-.22,4.67-.22Z"/>
          <circle id="Pupille" class="cls-1" cx="31.58" cy="19.07" r="1.01"/>
        </g>
        <g id="OeilDroit">
          <path id="Contour-2" data-name="Contour" class="cls-2" d="M39.61,21.06s-.09-2.98.47-3.35c0,0,.94-1.85,1.47-1.82s.56.03,1.25,0,1.28,1.19,1.28,1.19c0,0,.31.75.34,1.6s.09,2.19-.16,2.6-4.67-.22-4.67-.22Z"/>
          <circle id="Pupille-2" data-name="Pupille" class="cls-1" cx="42.04" cy="19.07" r="1.01"/>
        </g>
      </g>
      <path id="Bouche" class="cls-2" d="M31.1,24.27s3.52,1.11,5.53.92,4.11-1.37,5.42-1.37-1.73,3.41-3.63,3.55-6.42.47-7.32-1.42c0,0-.73-1.23,0-1.68Z"/>
    </g>
  </g>
</svg>