<?xml version="1.0" encoding="UTF-8"?>
<svg id="Calque_1" data-name="Calque 1" xmlns="http://www.w3.org/2000/svg" viewBox="0 0 78.89 90.65">
  <defs>
    <style>
      .cls-1, .cls-2, .cls-3, .cls-4, .cls-5, .cls-6, .cls-7, .cls-8 {
        stroke-miterlimit: 10;
      }

      .cls-1, .cls-2, .cls-5 {
        stroke: #1d1d1b;
      }

      .cls-2, .cls-8 {
        fill: #a0571c;
      }

      .cls-3 {
        fill: #fbca39;
      }

      .cls-3, .cls-4, .cls-6, .cls-7, .cls-8 {
        stroke: #000;
      }

      .cls-4, .cls-5 {
        fill: #fff;
      }

      .cls-6 {
        fill: #e8d972;
      }

      .cls-7 {
        fill: #fff8e9;
      }

      .cls-9 {
        stroke-width: 0px;
      }
    </style>
  </defs>
  <g id="Mascotte">
    <g id="Podium">
      <g id="StructurePodium">
        <path id="Contour" class="cls-7" d="M18.91,69.56h46.34l-.71,13.75,9.38.96-1.29,5.88s-61.55-.13-61.51,0-1.92-10.29-1.92-10.29l10.63-.29-.92-10Z"/>
        <polygon id="Nombre" class="cls-4" points="38.66 76.89 42.88 76.89 42.88 83.73 40.16 83.73 40.16 78.07 38.66 78.07 38.66 76.89"/>
      </g>
      <g id="MarcheJaune">
        <polyline id="MarcheCentre" class="cls-6" points="65.27 69.42 61.84 59.5 21.74 59.5 18.9 69.42"/>
        <polyline id="MarcheGauche" class="cls-6" points="9.2 79.67 9.2 70.76 18.9 70.76 19.83 79.38"/>
        <polyline id="MarcheDroite" class="cls-6" points="64.56 83.15 64.92 76.07 74.7 77.47 73.98 84.13"/>
      </g>
      <g id="RenforcementContour">
        <line id="ContourCentre" class="cls-6" x1="18.71" y1="69.56" x2="65.25" y2="69.56"/>
        <line id="ContourBas" class="cls-6" x1="64.54" y1="83.32" x2="73.92" y2="84.28"/>
      </g>
    </g>
    <g id="Personnage">
      <g id="Corps">
        <g id="Bras">
          <path id="BrasDroite" class="cls-8" d="M54.41,21.22l-.22-3.26h3.1s3.21-1.05,3.71-1.43,2.82-1.77,3.32-2.26l4.37-4.36,1.94,1.77.39.44s-.39,1.21-1.27,1.82-1.38,1.49-2.54,2.37-1.94,1.6-2.88,2.21-2.71,1.49-4.43,1.88-5.48.83-5.48.83Z"/>
          <path id="BrasGauche" class="cls-2" d="M13.64,10.36l-2.92,1.74s.52,1.3,1.13,1.64.91,1.13,3.08,2.5c2.17,1.37,10.83,5.6,11.28,4.92s0-.12,0-.12v-2.84l-12.58-7.83Z"/>
        </g>
        <g id="Jambe">
          <path id="JambeGauche" class="cls-1" d="M35.1,63.68c1.48,0,2.96-.04,4.43-.1-.68-4.5-1.71-11.57-1.53-11.89.59-1.07.79-10.51.79-10.51l-3.97-6.14-.28.04-1.52,17.25,1.86,11.37c.07,0,.14,0,.21,0Z"/>
          <path id="JambeDroite" class="cls-1" d="M49.74,63.68c-1.48,0-2.96-.04-4.43-.1.68-4.5,1.71-11.57,1.53-11.89-.59-1.07-.79-10.51-.79-10.51l3.97-6.14.28.04,1.52,17.25-1.86,11.37c-.07,0-.14,0-.21,0Z"/>
          <g id="Pied">
            <rect id="PiedGauche" class="cls-9" x="33.33" y="63.29" width="7.95" height="2.4"/>
            <rect id="PiedDroit" class="cls-9" x="43.6" y="63.26" width="7.95" height="2.4"/>
          </g>
        </g>
        <g id="Main">
          <path id="MainGauche" class="cls-5" d="M12.6,4.53s-.09-.72-.09-.81-.72-.41-.72-.41c0,0-.75-.22-.84-.19s-.66.28-.66.28l-.5.31-.19.88.56.91-.63-.41-.66-.28-.66.09-.34.47-.19.81.28,1.22-.63-.66-.78.03-.63.44-.56.88,1,1.72,1.69,1.72,1.25,1.13,1.16-.06-.03,1.19.66.97,1.84.5,2.47-1.63,1.34-2.22-.41-1.13-.66-.5-.41-2.56.91-.56.16-1.81-1.06-.56-.72-.19-.75.72h-.97l-2.16,2.13-.59,1.96"/>
          <path id="MainDroite" class="cls-5" d="M68.26,9.61s-.25-.92.38-1.59.96,1.21.96,1.21c0,0-.38-2.97,0-3.55s1.17-2.05.79-2.8-.33-2.42.46-2.38,2.88.17,2.47,4.18c0,0,.96-1.17,2.34-.67s.71,1.92.71,1.92c0,0,2.42-.63,1.67,2.55,0,0-.13.42-.5.54s.12-.17.65.13-.02,2.05-1.11,2.63-3.09,1.17-3.97.96c0,0-2.38,1.04-3.84-1s-1-2.13-1-2.13Z"/>
        </g>
      </g>
      <g id="Medaille">
        <g id="FicelleMedaille">
          <path id="BoutGauche" class="cls-5" d="M8.45,11.55s-2.65,5.35-1.21,6.91l1.43,1.56"/>
          <path id="BoutDroit" class="cls-5" d="M12.86,15.25s-2.57,5.08-.88,5.05"/>
        </g>
        <g id="RondMedaille">
          <circle id="GrandRond" class="cls-3" cx="8.54" cy="26.65" r="8.04"/>
          <circle id="PetitRond" class="cls-3" cx="8.54" cy="26.65" r="6.33"/>
        </g>
        <polygon id="Etoile" class="cls-5" points="9.8 22.08 10.3 25.17 13.12 26.51 10.34 27.94 9.94 31.05 7.72 28.84 4.64 29.42 6.05 26.62 4.55 23.87 7.65 24.35 9.8 22.08"/>
      </g>
      <g id="Visage">
        <ellipse id="ContourPerso" class="cls-8" cx="41.26" cy="22.71" rx="15.55" ry="19.04"/>
        <g id="Sourcil">
          <path id="SourcilGauche" class="cls-5" d="M33.65,15.38s1-1.22,2-1.34"/>
          <path id="SourcilDroit" class="cls-5" d="M47.26,13.58s1.56.5,1.88,1.13"/>
        </g>
        <g id="Yeux">
          <g id="OeilGauche">
            <path id="Contour-2" data-name="Contour" class="cls-5" d="M38.92,21.2s.09-2.97-.47-3.34c0,0-.94-1.84-1.47-1.81s-.56.03-1.25,0-1.28,1.19-1.28,1.19c0,0-.31.75-.34,1.59s-.09,2.19.16,2.59,4.66-.22,4.66-.22Z"/>
            <circle id="Pupille" class="cls-1" cx="36.28" cy="19.02" r="1"/>
          </g>
          <g id="OeilDroit">
            <path id="Contour-3" data-name="Contour" class="cls-5" d="M44.3,21s-.09-2.97.47-3.34c0,0,.94-1.84,1.47-1.81s.56.03,1.25,0,1.28,1.19,1.28,1.19c0,0,.31.75.34,1.59s.09,2.19-.16,2.59-4.66-.22-4.66-.22Z"/>
            <circle id="Pupille-2" data-name="Pupille" class="cls-1" cx="46.71" cy="19.02" r="1"/>
          </g>
        </g>
        <path id="Bouche" class="cls-5" d="M35.81,24.2s3.51,1.11,5.52.92,4.1-1.36,5.4-1.36-1.73,3.4-3.62,3.54-6.41.47-7.3-1.42c0,0-.72-1.23,0-1.67Z"/>
      </g>
    </g>
  </g>
</svg>