<?xml version="1.0" encoding="UTF-8"?>
<svg id="Calque_1" data-name="Calque 1" xmlns="http://www.w3.org/2000/svg" viewBox="0 0 116.9 134.4">
  <defs>
    <style>
      .cls-1, .cls-2, .cls-3, .cls-4, .cls-5, .cls-6, .cls-7, .cls-8 {
        stroke-miterlimit: 10;
      }

      .cls-1, .cls-4, .cls-6 {
        stroke: #1d1d1b;
      }

      .cls-2 {
        fill: #fcf5e7;
      }

      .cls-2, .cls-3, .cls-5, .cls-7, .cls-8 {
        stroke: #000;
      }

      .cls-3, .cls-4 {
        fill: #fff;
      }

      .cls-5 {
        fill: #e4d772;
      }

      .cls-6, .cls-7 {
        fill: #9c581c;
      }

      .cls-8 {
        fill: #f8c73b;
      }

      .cls-9 {
        stroke-width: 0px;
      }
    </style>
  </defs>
  <g id="Mascotte">
    <g id="Podium">
      <g id="StructurePodium">
        <path id="Contour" class="cls-2" d="M27.89,103.27h68.95l-1.05,20.46,13.95,1.43-1.92,8.74s-91.59-.19-91.52,0-2.85-15.32-2.85-15.32l15.81-.43-1.36-14.88Z"/>
        <polygon id="Nombre" class="cls-3" points="57.28 114.16 63.56 114.16 63.56 124.34 59.51 124.34 59.51 115.93 57.28 115.93 57.28 114.16"/>
      </g>
      <g id="MarcheJaune">
        <polyline id="MarcheCentre" class="cls-5" points="96.87 103.05 91.77 88.3 32.11 88.3 27.87 103.05"/>
        <polyline id="MarcheGauche" class="cls-5" points="13.44 118.3 13.44 105.05 27.87 105.05 29.26 117.87"/>
        <polyline id="MarcheDroite" class="cls-5" points="95.82 123.47 96.35 112.94 110.91 115.03 109.84 124.94"/>
      </g>
      <g id="RenforcementContour">
        <line id="ContourCentre" class="cls-5" x1="27.59" y1="103.27" x2="96.85" y2="103.27"/>
        <line id="ContourBas" class="cls-5" x1="95.79" y1="123.73" x2="109.74" y2="125.15"/>
      </g>
    </g>
    <g id="Personnage">
      <g id="Corps">
        <g id="Bras">
          <path id="BrasDroite" class="cls-7" d="M80.72,31.33l-.33-4.85h4.61s4.77-1.56,5.51-2.14,4.2-2.63,4.94-3.37,6.5-6.49,6.5-6.49l2.88,2.63.58.66s-.58,1.81-1.89,2.71-2.06,2.22-3.79,3.53c-1.73,1.31-2.88,2.38-4.28,3.28s-4.03,2.22-6.58,2.79c-2.55.57-8.15,1.23-8.15,1.23Z"/>
          <path id="BrasGauche" class="cls-6" d="M20.05,15.16l-4.34,2.58s.77,1.93,1.69,2.44,1.35,1.67,4.58,3.71c3.23,2.04,16.11,8.34,16.79,7.32s0-.18,0-.18v-4.22l-18.72-11.65Z"/>
        </g>
        <g id="Jambe">
          <path id="JambeGauche" class="cls-1" d="M51.99,94.51c2.21,0,4.41-.06,6.6-.16-1.01-6.7-2.54-17.21-2.27-17.69.88-1.59,1.18-15.64,1.18-15.64l-5.91-9.14-.42.05-2.26,25.67,2.77,16.92c.1,0,.21-.01.32-.01Z"/>
          <path id="JambeDroite" class="cls-1" d="M73.77,94.51c-2.21,0-4.41-.06-6.6-.16,1.01-6.7,2.54-17.21,2.27-17.69-.88-1.59-1.18-15.64-1.18-15.64l5.91-9.14.42.05,2.26,25.67-2.77,16.92c-.1,0-.21-.01-.32-.01Z"/>
          <g id="Pied">
            <rect id="PiedGauche" class="cls-9" x="49.34" y="93.93" width="11.84" height="3.57"/>
            <rect id="PiedDroit" class="cls-9" x="64.63" y="93.89" width="11.84" height="3.57"/>
          </g>
        </g>
        <g id="Main">
          <path id="MainGauche" class="cls-4" d="M18.5,6.49s-.14-1.07-.14-1.21-1.07-.6-1.07-.6c0,0-1.12-.33-1.26-.28s-.98.42-.98.42l-.74.47-.28,1.3.84,1.35-.93-.6-.98-.42-.98.14-.51.7-.28,1.21.42,1.81-.93-.98-1.16.05-.93.65-.84,1.3,1.49,2.56,2.51,2.56,1.86,1.67,1.72-.09-.05,1.77.98,1.44,2.74.74,3.67-2.42,2-3.3-.6-1.67-.98-.74-.6-3.81,1.35-.84.23-2.7-1.58-.84-1.07-.28-1.12,1.07h-1.44l-3.21,3.16-.88,2.91"/>
          <path id="MainDroite" class="cls-4" d="M101.33,14.06s-.37-1.37.56-2.36c.93-.99,1.43,1.8,1.43,1.8,0,0-.56-4.41,0-5.28s1.74-3.05,1.18-4.17-.5-3.61.68-3.54,4.29.25,3.67,6.22c0,0,1.43-1.74,3.48-.99,2.05.75,1.06,2.86,1.06,2.86,0,0,3.61-.93,2.49,3.79,0,0-.19.62-.75.81s.18-.25.96.19-.03,3.05-1.65,3.92-4.6,1.74-5.91,1.43c0,0-3.54,1.55-5.72-1.49s-1.49-3.17-1.49-3.17Z"/>
        </g>
      </g>
      <g id="Medaille">
        <g id="FicelleMedaille">
          <path id="BoutGauche" class="cls-4" d="M12.33,16.94s-3.94,7.95-1.81,10.28l2.13,2.33"/>
          <path id="BoutDroit" class="cls-4" d="M18.9,22.44s-3.83,7.55-1.32,7.51"/>
        </g>
        <g id="RondMedaille">
          <circle id="GrandRond" class="cls-8" cx="12.47" cy="39.41" r="11.97"/>
          <circle id="PetitRond" class="cls-8" cx="12.47" cy="39.41" r="9.43"/>
        </g>
        <polygon id="Etoile" class="cls-4" points="14.33 32.61 15.08 37.21 19.29 39.2 15.14 41.33 14.54 45.95 11.24 42.67 6.66 43.53 8.76 39.37 6.53 35.28 11.13 35.99 14.33 32.61"/>
      </g>
      <g id="Visage">
        <ellipse id="ContourPerso" class="cls-7" cx="61.16" cy="33.55" rx="23.14" ry="28.34"/>
        <g id="Sourcil">
          <path id="SourcilGauche" class="cls-4" d="M49.82,22.64s1.49-1.81,2.98-2"/>
          <path id="SourcilDroit" class="cls-4" d="M70.08,19.97s2.33.74,2.79,1.67"/>
        </g>
        <g id="Yeux">
          <g id="OeilGauche">
            <path id="Contour-2" data-name="Contour" class="cls-4" d="M57.67,31.3s.14-4.42-.7-4.98c0,0-1.4-2.74-2.19-2.7s-.84.05-1.86,0c-1.02-.05-1.91,1.77-1.91,1.77,0,0-.47,1.12-.51,2.37s-.14,3.26.23,3.86,6.93-.33,6.93-.33Z"/>
            <circle id="Pupille" class="cls-1" cx="53.74" cy="28.06" r="1.49"/>
          </g>
          <g id="OeilDroit">
            <path id="Contour-3" data-name="Contour" class="cls-4" d="M65.67,31.01s-.14-4.42.7-4.98c0,0,1.4-2.74,2.19-2.7s.84.05,1.86,0c1.02-.05,1.91,1.77,1.91,1.77,0,0,.47,1.12.51,2.37s.14,3.26-.23,3.86-6.93-.33-6.93-.33Z"/>
            <circle id="Pupille-2" data-name="Pupille" class="cls-1" cx="69.27" cy="28.06" r="1.49"/>
          </g>
        </g>
        <path id="Bouche" class="cls-4" d="M53.04,35.77s5.22,1.65,8.21,1.37c2.98-.29,6.11-2.03,8.04-2.03s-2.57,5.06-5.39,5.26c-2.82.21-9.53.7-10.86-2.11,0,0-1.08-1.82,0-2.49Z"/>
      </g>
    </g>
  </g>
</svg>