<?xml version="1.0" encoding="UTF-8"?>
<svg id="Calque_1" data-name="Calque 1" xmlns="http://www.w3.org/2000/svg" viewBox="0 0 374.99 129.99">
  <defs>
    <style>
      .cls-1 {
        font-family: Lato-Regular, Lato;
        font-size: 6.67px;
      }

      .cls-2, .cls-3, .cls-4, .cls-5, .cls-6, .cls-7, .cls-8 {
        stroke-miterlimit: 10;
      }

      .cls-2, .cls-3, .cls-4, .cls-5, .cls-7 {
        stroke: #1d1d1b;
      }

      .cls-3, .cls-6 {
        fill: #ffc100;
      }

      .cls-4 {
        fill: #fff;
      }

      .cls-5 {
        fill: #ead246;
      }

      .cls-6, .cls-8 {
        stroke: #000;
      }

      .cls-7, .cls-8 {
        fill: #b44c00;
      }

      .cls-9, .cls-10, .cls-11, .cls-12, .cls-13, .cls-14 {
        stroke-width: 0px;
      }

      .cls-15 {
        letter-spacing: -.01em;
      }

      .cls-10 {
        fill: #374749;
      }

      .cls-11 {
        fill: #143034;
      }

      .cls-12 {
        fill: #d00;
      }

      .cls-13 {
        fill: #c30000;
      }

      .cls-14 {
        fill: #a90000;
      }
    </style>
  </defs>
  <g id="Graphique">
    <g id="Personnage">
      <g id="Corps">
        <g id="Bras">
          <path id="BrasDroite" class="cls-8" d="M54.56,52.26l-.22-3.27h3.11s3.22-1.05,3.72-1.44,2.83-1.77,3.33-2.27l4.38-4.37,1.94,1.77.39.44s-.39,1.22-1.28,1.83-1.39,1.49-2.55,2.38-1.94,1.6-2.88,2.21-2.72,1.49-4.44,1.88-5.49.83-5.49.83Z"/>
          <path id="BrasGauche" class="cls-7" d="M13.68,41.37l-2.93,1.74s.52,1.3,1.14,1.64.91,1.13,3.09,2.5,10.86,5.62,11.31,4.93,0-.12,0-.12v-2.85l-12.61-7.85Z"/>
        </g>
        <g id="Jambe">
          <path id="JambeGauche" class="cls-2" d="M35.2,94.84c1.49,0,2.97-.04,4.45-.11-.68-4.51-1.71-11.6-1.53-11.92.59-1.07.8-10.54.8-10.54l-3.98-6.16-.28.04-1.52,17.3,1.86,11.4c.07,0,.14,0,.21,0Z"/>
          <path id="JambeDroite" class="cls-2" d="M49.88,94.84c-1.49,0-2.97-.04-4.45-.11.68-4.51,1.71-11.6,1.53-11.92-.59-1.07-.8-10.54-.8-10.54l3.98-6.16.28.04,1.52,17.3-1.86,11.4c-.07,0-.14,0-.21,0Z"/>
          <g id="Pied">
            <rect id="PiedGauche" class="cls-9" x="33.42" y="94.45" width="7.98" height="2.4"/>
            <rect id="PiedDroit" class="cls-9" x="43.72" y="94.42" width="7.98" height="2.4"/>
          </g>
        </g>
        <g id="Main">
          <path id="MainGauche" class="cls-4" d="M12.63,35.52s-.09-.72-.09-.81-.72-.41-.72-.41c0,0-.75-.22-.85-.19s-.66.28-.66.28l-.5.31-.19.88.56.91-.63-.41-.66-.28-.66.09-.34.47-.19.81.28,1.22-.63-.66-.78.03-.63.44-.56.88,1,1.72,1.69,1.72,1.25,1.13,1.16-.06-.03,1.19.66.97,1.85.5,2.48-1.63,1.35-2.23-.41-1.13-.66-.5-.41-2.57.91-.56.16-1.82-1.07-.56-.72-.19-.75.72h-.97l-2.16,2.13-.6,1.96"/>
          <path id="MainDroite" class="cls-4" d="M68.45,40.62s-.25-.92.38-1.59.96,1.22.96,1.22c0,0-.38-2.98,0-3.56s1.17-2.05.8-2.81-.34-2.43.46-2.39,2.89.17,2.47,4.19c0,0,.96-1.17,2.35-.67s.71,1.93.71,1.93c0,0,2.43-.63,1.68,2.56,0,0-.13.42-.5.54s.12-.17.65.13-.02,2.05-1.11,2.64-3.1,1.17-3.98.96c0,0-2.39,1.05-3.85-1.01s-1.01-2.14-1.01-2.14Z"/>
        </g>
      </g>
      <g id="Medaille">
        <g id="FicelleMedaille">
          <path id="BoutGauche" class="cls-4" d="M8.47,42.56s-2.65,5.36-1.22,6.93l1.44,1.57"/>
          <path id="BoutDroit" class="cls-4" d="M12.9,46.27s-2.58,5.09-.89,5.06"/>
        </g>
        <g id="RondMedaille">
          <circle id="GrandRond" class="cls-6" cx="8.57" cy="57.7" r="8.07"/>
          <circle id="PetitRond" class="cls-6" cx="8.57" cy="57.7" r="6.35"/>
        </g>
        <polygon id="Etoile" class="cls-4" points="9.82 53.12 10.32 56.22 13.16 57.57 10.37 59 9.96 62.11 7.74 59.9 4.65 60.48 6.07 57.68 4.56 54.92 7.67 55.4 9.82 53.12"/>
      </g>
      <g id="Visage">
        <ellipse id="ContourPerso" class="cls-8" cx="41.38" cy="53.76" rx="15.6" ry="19.1"/>
        <g id="Sourcil">
          <path id="SourcilGauche" class="cls-4" d="M33.74,46.41s1-1.22,2.01-1.35"/>
          <path id="SourcilDroit" class="cls-4" d="M47.39,44.6s1.57.5,1.88,1.13"/>
        </g>
        <g id="Yeux">
          <g id="OeilGauche">
            <path id="Contour" class="cls-4" d="M39.03,52.24s.09-2.98-.47-3.35c0,0-.94-1.85-1.47-1.82s-.56.03-1.25,0-1.28,1.19-1.28,1.19c0,0-.31.75-.34,1.6s-.09,2.19.16,2.6,4.67-.22,4.67-.22Z"/>
            <circle id="Pupille" class="cls-2" cx="36.38" cy="50.05" r="1.01"/>
          </g>
          <g id="OeilDroit">
            <path id="Contour-2" data-name="Contour" class="cls-4" d="M44.42,52.04s-.09-2.98.47-3.35c0,0,.94-1.85,1.47-1.82s.56.03,1.25,0,1.28,1.19,1.28,1.19c0,0,.31.75.34,1.6s.09,2.19-.16,2.6-4.67-.22-4.67-.22Z"/>
            <circle id="Pupille-2" data-name="Pupille" class="cls-2" cx="46.84" cy="50.05" r="1.01"/>
          </g>
        </g>
        <path id="Bouche" class="cls-4" d="M35.91,55.25s3.52,1.11,5.53.92,4.11-1.37,5.42-1.37-1.73,3.41-3.63,3.55-6.42.47-7.32-1.42c0,0-.73-1.23,0-1.68Z"/>
      </g>
    </g>
    <g id="Nombre">
      <g>
        <rect class="cls-5" x="141.32" y="2.03" width="62.73" height="18.59" rx="9.29" ry="9.29"/>
        <text class="cls-1" transform="translate(150.16 12.97)"><tspan x="0" y="0">1 siège pour 51 </tspan></text>
      </g>
      <g>
        <rect class="cls-5" x="141.32" y="53.08" width="62.73" height="18.59" rx="9.29" ry="9.29"/>
        <text class="cls-1" transform="translate(150.83 64.02)"><tspan x="0" y="0">1 siège pour 51 </tspan></text>
      </g>
      <g>
        <rect class="cls-5" x="141.83" y="110.89" width="62.73" height="18.59" rx="9.29" ry="9.29"/>
        <text class="cls-1" transform="translate(150.98 122.49)"><tspan x="0" y="0">1 siège pour 54 </tspan></text>
      </g>
    </g>
    <g id="Fleche">
      <g id="Fleche2">
        <g>
          <polygon class="cls-2" points="226.61 8.04 229.12 11.18 226.61 13.19 226.61 8.04"/>
          <line class="cls-4" x1="207.48" y1="11.13" x2="226.73" y2="11.13"/>
        </g>
        <g>
          <polygon class="cls-2" points="226.92 59.8 229.43 62.94 226.92 64.94 226.92 59.8"/>
          <line class="cls-4" x1="207.79" y1="62.88" x2="227.04" y2="62.88"/>
        </g>
        <g>
          <polygon class="cls-2" points="226.92 117.61 229.43 120.75 226.92 122.75 226.92 117.61"/>
          <line class="cls-4" x1="207.79" y1="120.69" x2="227.04" y2="120.69"/>
        </g>
      </g>
      <g id="Fleche1">
        <g>
          <polyline class="cls-4" points="41.38 34.66 41.38 11.33 125.34 11.33"/>
          <polygon class="cls-2" points="125.34 1.43 134.31 12.63 125.34 19.81 125.34 1.43"/>
        </g>
        <g>
          <polygon class="cls-2" points="123.84 51.35 132.81 62.56 123.84 69.73 123.84 51.35"/>
          <line class="cls-4" x1="55.47" y1="62.37" x2="124.26" y2="62.37"/>
        </g>
        <g>
          <line class="cls-4" x1="42.56" y1="96.85" x2="42.56" y2="120.18"/>
          <line class="cls-4" x1="42.14" y1="120.18" x2="125.97" y2="120.18"/>
          <polygon class="cls-2" points="125.97 109.98 134.93 121.19 125.97 128.36 125.97 109.98"/>
        </g>
      </g>
    </g>
    <g id="Siège">
      <g>
        <path class="cls-13" d="M362.36,68.1c.27,1.03.55,1.9.83,2.61.49,1.27,1.81,2,3.13,2.25.55.1.97.15,1.24.16.07.17.13.34.17.51.06.26.09.39.1.41.28,1.05.42,2.13.41,3.23-.03.02-.05.06-.06.11-.08.66-.25,1.23-.64,1.75-.26.34-.49.67-.93.81-.91.28-1.82.56-2.73.86-2.02.47-4.06.85-6.12,1.14-2.79.39-5.62.74-8.43.86-1.58.07-3.16.14-4.74.13-2.3-.01-4.53-.04-6.68-.08-.3,0-.92-.04-1.84-.1-1.71-.11-3.43-.33-5.16-.67-.42-.08-1.03-.27-1.82-.57-.03-.06-.08-.1-.13-.13-1.11-.62-2.03-1.41-2.76-2.37-.09-.12-.19-.46-.3-1.01,0-.89.02-1.56.07-1.99.09-.83.36-1.7.81-2.61.31-.06.64-.12,1-.2.79-.16,1.47-.52,2.05-1.1.39-.39.56-.65.7-1.21.16-.65.34-1.29.54-1.93-.02.1.02.16.13.18.04,0,.08,0,.11-.02,1.28-.71,2.72-1.06,4.19-1.23.43-.05.81-.12,1.14-.22,1.1-.31,2.3-.7,3.31-.82.21-.02.44-.06.67-.09.86-.13,1.74-.16,2.6-.24.75-.07,1.4-.1,1.93-.11,2.06-.02,3.45-.01,4.16.03.81.05,1.72.1,2.72.15.63.03,1.25.1,1.88.19.5.07.98.11,1.44.12.99.01,2.01-.03,2.94.1.68.1,1.17.2,1.47.32.58.23,1.19.49,1.83.77.28.12.54.13.76.03Z"/>
        <path class="cls-10" d="M359.58,84.6c.12,1.89.18,3.79.19,5.71-1.49-.12-2.53-.14-3.11-.08-.64.07-1.28.14-1.92.21-.08-1.26-.11-2.12-.09-2.57.04-.85.13-1.7.26-2.55.01-.07.01-.16,0-.27l4.66-.45Z"/>
        <path class="cls-11" d="M337.61,90.29c.02.09.05.14.1.15,1.02.18,1.91.21,2.15,1.45.12.62.07,1.2-.17,1.73h-8.95c-.27-.5-.29-.97-.05-1.41.4-.74,1.03-1.35,1.87-1.81,1.61-.3,3.25-.32,4.92-.05.07.01.11,0,.13-.05Z"/>
        <g>
          <path class="cls-14" d="M344.24,25.63h1.51c.37.06,1.07.15,2.11.28,3.86.47,7.87,2.14,10.87,4.63.42.35.8.75,1.18,1.13.29.29.57.61.86.96.36.45.75.91,1.06,1.37.94,1.39,1.69,2.78,2.25,4.17.43,1.08.7,1.77.79,2.07.75,2.51,1.25,4.99,1.49,7.44.12,1.22.23,2.47.26,3.69.05,2.15.05,4.31-.03,6.46-1.23.01-2.14.09-2.74.23-.41.09-.84.27-1.3.53-.47.27-.77.63-.88,1.07-.01,0-.05,0-.1.05-.03.02-.05.05-.07.09-.14.36-.21.74-.23,1.13-.03.9-.01,1.81.12,2.71.21,1.49.53,2.97.95,4.44-.23.1-.48.09-.76-.03-.64-.28-1.25-.54-1.83-.77-.3-.12-.79-.22-1.47-.32-.94-.13-1.96-.09-2.94-.1-.46,0-.94-.05-1.44-.12-.62-.09-1.25-.16-1.88-.19-1-.05-1.91-.1-2.72-.15-.71-.04-2.1-.05-4.16-.03-.53,0-1.18.04-1.93.11-.87.08-1.74.11-2.6.24-.23.04-.46.07-.67.09-1.01.12-2.21.51-3.31.82-.33.1-.71.17-1.14.22-1.47.17-2.91.51-4.19,1.23-.03.02-.07.03-.11.02-.1-.02-.15-.08-.13-.18.36-1.46.65-2.93.86-4.42.11-.75.17-1.59.2-2.52.02-.92-.05-1.89-.53-2.67-.02-.03-.05-.05-.08-.05-.02,0-.04-.01-.06-.02.01-.12-.03-.22-.12-.32-.26-.28-.6-.54-1.01-.77-.22-.13-.7-.26-1.43-.39-.41-.07-1.32-.11-2.73-.12.15-2.73.29-5.43.44-8.11.09-1.54.13-2.37.14-2.48.22-2.9.78-5.73,1.68-8.5.65-2,1.53-3.87,2.64-5.59,1.5-2.34,3.46-4.27,5.91-5.53,1.31-.67,2.69-1.14,4.17-1.41.28-.05.79-.12,1.54-.2.52-.05,1.03-.12,1.54-.21Z"/>
          <path class="cls-12" d="M331.46,59.24s.04.02.06.02c.03,0,.06.02.08.05.49.78.56,1.75.53,2.67-.02.93-.09,1.77-.2,2.52-.21,1.49-.5,2.96-.86,4.42-.2.64-.38,1.28-.54,1.93-.14.56-.31.82-.7,1.21-.58.58-1.26.94-2.05,1.1-.36.07-.69.14-1,.2-1.4.12-2.79.05-4.18-.23-.07-.03-.17-.07-.28-.11-.19-.07-.38-.15-.57-.23-.32-.14-.49-.32-.66-.6-.8-1.35-1.34-2.79-1.63-4.32-.32-1.67-.67-3.4-1.04-5.2-.03-.17-.07-.33-.12-.5v-.89l.26-.92c.76-.17,1.35-.28,1.76-.35,1.31-.2,2.74-.35,4.29-.45,2.17-.14,4.35-.22,6.53-.25.05,0,.15-.02.32-.06Z"/>
          <path class="cls-12" d="M374.71,60.25l.28,1.16v.82c-.06.2-.12.54-.18,1.02-.2,1.56-.58,3.2-1.13,4.94-.06.18-.14.46-.27.85-.25.8-.61,1.73-1.1,2.79-.17.38-.54.66-1.09.85-.68.2-1.38.32-2.1.36-.5.02-1.01.05-1.55.08-.28,0-.69-.05-1.24-.16-1.33-.24-2.64-.97-3.13-2.25-.28-.71-.55-1.58-.83-2.61-.42-1.48-.74-2.96-.95-4.44-.13-.9-.15-1.81-.12-2.71.01-.39.09-.77.23-1.13.01-.04.04-.07.07-.09.05-.04.08-.05.1-.05.41,0,.8-.02,1.17-.05.53-.04.92-.07,1.16-.07,1.29,0,2.58.04,3.86.14,2.27.18,4.55.37,6.84.55Z"/>
          <path class="cls-11" d="M363.89,80.78c.14,1.15-.11,2.32-1.2,2.9-.81.44-1.89.59-2.81.74-.16.03-.26.09-.31.18l-4.66.45-.04-.03s-.07-.04-.11-.04c-.3,0-.53,0-.66,0-5.1.35-8.76.53-10.97.54-1.85.01-3.73.02-5.62.03-1.12,0-1.96-.05-2.53-.15-.75-.13-1.52-.25-2.29-.34-.06-.09-.13-.14-.22-.16-.85-.19-1.84-.45-2.44-1.03-.64-.61-.9-1.5-.93-2.39.8.3,1.41.49,1.82.57,1.73.34,3.45.56,5.16.67.92.06,1.53.09,1.84.1,2.15.04,4.38.07,6.68.08,1.59,0,3.16-.06,4.74-.13,2.81-.12,5.64-.47,8.43-.86,2.06-.29,4.1-.66,6.12-1.14Z"/>
          <path class="cls-10" d="M337.51,85.55c.16,1.64.19,3.22.1,4.74-.02.05-.06.06-.13.05-1.67-.27-3.31-.25-4.92.05l.13-5.34c.77.1,1.54.21,2.29.34.57.1,1.42.15,2.53.15Z"/>
          <path class="cls-11" d="M359.77,90.31c.84.18,1.51.55,2.02,1.13.36.4.59.77.7,1.1.13.37.05.73-.22,1.08h-8.93c-.14-.29-.21-.6-.21-.93,0-.64.04-1.25.52-1.67.1-.09.28-.18.54-.29.21-.08.39-.18.55-.29.64-.07,1.28-.14,1.92-.21.58-.07,1.62-.04,3.11.08Z"/>
        </g>
      </g>
      <g>
        <path class="cls-11" d="M326.17,57.65c1.41,0,2.32.04,2.73.12.73.13,1.21.26,1.43.39.41.24.74.49,1.01.77.09.09.13.2.12.32-.16.04-.27.06-.32.06-2.18.03-4.35.12-6.53.25-1.55.1-2.97.25-4.29.45-.42.06-1,.18-1.76.35.21-.77.62-1.35,1.25-1.75.22-.14.5-.18.76-.21,1.66-.22,3.44-.43,5.34-.63.13-.01.21-.05.25-.11Z"/>
        <path class="cls-11" d="M322.61,73.13c1.38.28,2.78.36,4.18.23-.45.91-.72,1.77-.81,2.61-.05.43-.07,1.1-.07,1.99-1.44-.19-2.41-.95-2.92-2.27-.27-.71-.4-1.56-.38-2.56Z"/>
        <path class="cls-11" d="M371.22,72.68c.23,1.03.26,2.37-.37,3.25-.57.8-1.65,1.22-2.61,1.33,0-1.1-.13-2.18-.41-3.23,0-.01-.04-.15-.1-.41-.04-.17-.1-.34-.17-.51.54-.03,1.06-.05,1.55-.08.73-.03,1.43-.15,2.1-.36Z"/>
        <path class="cls-11" d="M366.6,57.85c.23.15.65.09.93.11,1.58.12,3.37.29,5.38.5.21.02.39.09.54.19.67.46,1.04.82,1.26,1.6-2.29-.19-4.57-.37-6.84-.55-1.28-.1-2.57-.15-3.86-.14-.24,0-.63.02-1.16.07-.37.03-.76.05-1.17.05.11-.45.4-.8.88-1.07.46-.26.89-.44,1.3-.53.6-.14,1.51-.21,2.74-.23Z"/>
      </g>
    </g>
    <g id="Région">
      <g>
        <rect class="cls-3" x="237.74" y="2.05" width="62.73" height="18.59" rx="9.29" ry="9.29"/>
        <text class="cls-1" transform="translate(260.67 12.99)"><tspan x="0" y="0">Corse</tspan></text>
      </g>
      <g>
        <rect class="cls-3" x="237.21" y="53.09" width="62.73" height="18.59" rx="9.29" ry="9.29"/>
        <text class="cls-1" transform="translate(255.05 60.28)"><tspan x="0" y="0">Au</tspan><tspan class="cls-15" x="8.25" y="0">v</tspan><tspan x="11.58" y="0">ergne</tspan><tspan x="-4.08" y="8.01">Rhône Alpes</tspan></text>
      </g>
      <g>
        <rect class="cls-3" x="237.21" y="110.9" width="62.73" height="18.59" rx="9.29" ry="9.29"/>
        <text class="cls-1" transform="translate(256.14 117.85)"><tspan x="0" y="0">Nou</tspan><tspan class="cls-15" x="12.47" y="0">v</tspan><tspan x="15.8" y="0">elle</tspan><tspan x="-1.13" y="8.01">Aquitaine</tspan></text>
      </g>
    </g>
  </g>
</svg>